<?xml version="1.0" encoding="UTF-8"?>
<svg id="Layer_2" data-name="Layer 2" xmlns="http://www.w3.org/2000/svg" viewBox="0 0 198.53 60.2">
  <defs>
    <style>
      .cls-1 {
        fill: #fff;
      }

      .cls-2 {
        fill: #f47878;
      }
    </style>
  </defs>
  <g id="Layer_1-2" data-name="Layer 1">
    <g>
      <rect class="cls-2" x="0" y="0" width="198.53" height="60.2" rx="30.1" ry="30.1"/>
      <g>
        <g>
          <path class="cls-1" d="M44.26,39.6c-.15-.01-.29-.04-.44-.04-2.81,0-5.63,0-8.44,0-.05,0-.1,0-.16,0h-.07s-.05,0-.07,0c-.08,0-.16,0-.25-.01-.03-.06-.06-.16-.1-.16-.36-.06-.72-.08-1.07,.03-.05,.02-.08,.08-.12,.13-.77,0-1.55,0-2.32,0-1.38-.02-2.58-.99-2.95-2.29-.24-.84-.14-1.65,.3-2.42,.1-.17,.18-.35,.27-.53,.09-.2,0-.38-.06-.56-.27-.99-.56-1.97-.84-2.96-.22-.77-.45-1.55-.67-2.32-.32-1.1-.63-2.2-.94-3.29-.39-1.37-.78-2.73-1.17-4.1-.33-1.15-.65-2.31-.98-3.46-.12-.41-.24-.82-.37-1.25h-.59c-1.28,0-2.57,0-3.85,.01-.4,0-.79-.27-.95-.69-.15-.39-.07-.76,.21-1.07,.22-.24,.5-.34,.82-.34,1.67,0,3.34,0,5.01,0,.39,0,.77,.08,.99,.44,.12,.21,.19,.45,.25,.69,.21,.72,.4,1.44,.61,2.16,.08,.27,.16,.54,.24,.81,.02,.09,.06,.12,.16,.12,.31,0,.62,0,.93,0,8.28,0,16.55,0,24.83,0,.35,0,.7,0,1.05,.03,.49,.05,.87,.51,.81,.95-.05,.36-.14,.71-.23,1.06-.26,.96-.54,1.92-.81,2.89-.2,.7-.4,1.4-.6,2.1-.32,1.11-.63,2.22-.95,3.32-.25,.86-.5,1.73-.74,2.59-.28,.99-.56,1.98-.84,2.97-.11,.41-.29,.76-.73,.89-.15,.04-.31,.06-.46,.06-5.43,0-10.86,0-16.28,0-.62,0-1.23,0-1.85,0-.11,0-.17,.03-.22,.13-.09,.19-.18,.38-.27,.57-.19,.4-.05,.75,.21,1.06,.2,.24,.47,.37,.79,.37,.2,0,.41,0,.62,0,5.56,0,11.11,0,16.67,0,.27,0,.55,.01,.81,.07,.39,.08,.59,.38,.69,.74,.14,.53-.24,1.1-.7,1.23-.09,.03-.19,.05-.29,.05-1.06,0-2.11,0-3.17,0,0-.15-.15-.13-.22-.12-.09,0-.17,.08-.26,.12,0,.01,0,.03,.01,.04-.04-.01-.09-.02-.13-.03,0-.02,0-.04,0-.07,.04-.17-.12-.13-.18-.13-.17-.02-.34-.01-.5,0-.16,0-.34-.01-.35,.22,0,0-.03,.01-.05,.02"/>
          <path class="cls-1" d="M45.35,39.6s.09,.02,.13,.03c0-.01,0-.03-.01-.04,.09-.04,.17-.12,.26-.12,.07,0,.21-.03,.22,.12h-.35s-.01,.04-.02,.06c.12,.05,.23,.11,.35,.15,.7,.22,1.22,.68,1.6,1.3,.33,.54,.51,1.14,.49,1.77-.06,1.41-1.01,2.63-2.41,2.95-1.23,.28-2.26-.07-3.11-.96-.45-.48-.69-1.08-.77-1.75-.06-.44-.05-.88,.12-1.29,.12-.32,.28-.63,.46-.92,.35-.54,.86-.89,1.45-1.11,.17-.06,.34-.11,.51-.17,.02,0,.05-.01,.05-.02,.02-.24,.2-.22,.35-.22,.17,0,.34-.01,.5,0,.06,0,.22-.04,.18,.14-.29,0-.59,0-.88,.04,.12,.02,.23,0,.34,0,.18,0,.36,.02,.54,.03"/>
          <path class="cls-1" d="M33.53,39.59s.07-.11,.12-.13c.35-.11,.71-.09,1.07-.03,.04,0,.07,.11,.1,.16l-.03,.06c.09,.02,.18,.03,.27,.05,.4,.14,.8,.3,1.12,.59,.61,.53,1.01,1.19,1.13,2.01,.12,.85-.04,1.64-.55,2.33-.46,.62-1.08,1.03-1.84,1.2-.22,.05-.44,.1-.66,.1-.92,0-1.71-.31-2.34-1-.64-.7-.97-1.53-.87-2.48,.08-.78,.44-1.45,1.01-2,.4-.38,.87-.59,1.39-.74,.08-.02,.15-.05,.23-.07,.01,.01,.03,.03,.04,.03,.25-.04,.49-.09,.73-.13,0-.01,0-.02,0-.03l-.77,.11h-.17Z"/>
        </g>
        <g>
          <path class="cls-1" d="M72.21,23.17l-5.91,13.27h3.15l1.18-2.84h6.15l1.18,2.84h3.22l-5.93-13.27h-3.03Zm-.62,8.09l2.11-5.08,2.1,5.08h-4.21Z"/>
          <path class="cls-1" d="M89.68,27.31c-.24-.26-.5-.48-.8-.66-.64-.38-1.4-.57-2.26-.57-.96,0-1.83,.21-2.6,.64-.77,.43-1.38,1.04-1.83,1.82-.45,.78-.67,1.71-.67,2.79s.22,1.98,.67,2.77c.45,.78,1.06,1.39,1.83,1.83,.77,.44,1.64,.65,2.6,.65,.9,0,1.66-.19,2.3-.57,.34-.2,.63-.46,.88-.77v1.18h2.82v-14.06h-2.96v4.94Zm-.29,5.53c-.23,.42-.55,.75-.94,.98s-.83,.34-1.31,.34-.94-.11-1.33-.34-.7-.55-.94-.98c-.23-.42-.35-.93-.35-1.51s.12-1.1,.35-1.52c.23-.42,.55-.74,.94-.97,.39-.23,.83-.34,1.33-.34s.92,.11,1.31,.34c.39,.23,.7,.55,.94,.97s.35,.92,.35,1.52-.12,1.08-.35,1.51Z"/>
          <path class="cls-1" d="M102.8,27.31c-.24-.26-.5-.48-.8-.66-.64-.38-1.4-.57-2.26-.57-.96,0-1.83,.21-2.6,.64-.77,.43-1.38,1.04-1.83,1.82-.45,.78-.67,1.71-.67,2.79s.22,1.98,.67,2.77c.45,.78,1.06,1.39,1.83,1.83,.77,.44,1.64,.65,2.6,.65,.9,0,1.66-.19,2.3-.57,.34-.2,.63-.46,.88-.77v1.18h2.82v-14.06h-2.96v4.94Zm-.29,5.53c-.23,.42-.55,.75-.94,.98s-.83,.34-1.31,.34-.94-.11-1.33-.34-.7-.55-.94-.98c-.23-.42-.35-.93-.35-1.51s.12-1.1,.35-1.52c.23-.42,.55-.74,.94-.97,.39-.23,.83-.34,1.33-.34s.92,.11,1.31,.34c.39,.23,.7,.55,.94,.97s.35,.92,.35,1.52-.12,1.08-.35,1.51Z"/>
          <path class="cls-1" d="M118.43,34.24c-.39,0-.7-.12-.93-.35s-.34-.57-.34-1v-4.15h2.54v-2.27h-2.54v-2.48h-2.96v2.48h-1.57v2.27h1.57v4.19c0,1.21,.33,2.13,1,2.74,.67,.61,1.6,.92,2.8,.92,.46,0,.89-.05,1.32-.16,.42-.11,.79-.27,1.09-.48l-.8-2.08c-.33,.25-.73,.38-1.19,.38Z"/>
          <path class="cls-1" d="M129.5,26.76c-.85-.45-1.81-.67-2.88-.67s-2.05,.22-2.89,.67c-.84,.45-1.5,1.07-1.99,1.86s-.73,1.7-.73,2.72,.24,1.91,.73,2.7c.49,.79,1.15,1.41,1.99,1.87,.84,.46,1.8,.68,2.89,.68s2.03-.23,2.88-.68c.85-.45,1.51-1.08,1.99-1.87,.48-.79,.72-1.69,.72-2.7s-.24-1.95-.72-2.73c-.48-.78-1.14-1.4-1.99-1.85Zm-.63,6.08c-.23,.42-.54,.75-.93,.98s-.83,.34-1.33,.34-.94-.11-1.33-.34-.7-.55-.94-.98c-.23-.42-.35-.93-.35-1.51s.12-1.1,.35-1.52,.55-.74,.94-.97c.39-.23,.83-.34,1.33-.34s.94,.11,1.33,.34c.39,.23,.7,.55,.93,.97s.34,.92,.34,1.52-.11,1.08-.34,1.51Z"/>
          <path class="cls-1" d="M143.09,28.86c.4-.23,.86-.34,1.36-.34,.47,0,.9,.11,1.3,.34,.4,.23,.73,.58,1,1.06l2.29-1.23c-.38-.83-.97-1.48-1.76-1.92-.8-.45-1.73-.67-2.8-.67s-2.08,.22-2.94,.67c-.86,.45-1.53,1.07-2.02,1.86s-.73,1.7-.73,2.72,.24,1.91,.73,2.71,1.16,1.42,2.02,1.87c.86,.45,1.84,.67,2.94,.67s2.01-.22,2.8-.67,1.38-1.08,1.76-1.9l-2.29-1.25c-.27,.49-.6,.85-1,1.07-.4,.22-.83,.33-1.3,.33-.51,0-.96-.11-1.36-.34s-.72-.55-.96-.97c-.23-.42-.35-.92-.35-1.52s.12-1.1,.35-1.52,.55-.74,.96-.97Z"/>
          <path class="cls-1" d="M154.85,26.09c-.81,0-1.6,.11-2.39,.32s-1.45,.52-2.01,.91l1.06,2.07c.37-.29,.81-.52,1.34-.69,.52-.17,1.06-.26,1.6-.26,.8,0,1.39,.18,1.77,.53,.39,.35,.58,.85,.58,1.48h-2.35c-1.04,0-1.88,.13-2.52,.39-.64,.26-1.12,.62-1.41,1.07-.3,.45-.45,.99-.45,1.59s.15,1.11,.46,1.57,.74,.84,1.31,1.11c.57,.27,1.25,.41,2.05,.41,.9,0,1.63-.17,2.2-.51,.39-.23,.69-.54,.91-.92v1.28h2.77v-5.82c0-1.55-.43-2.7-1.29-3.43-.86-.73-2.07-1.1-3.62-1.1Zm1.1,8.16c-.39,.23-.83,.35-1.33,.35-.52,0-.93-.11-1.22-.33-.3-.22-.45-.52-.45-.9,0-.34,.13-.62,.39-.85,.26-.23,.74-.34,1.43-.34h2.03v1.04c-.18,.45-.46,.8-.85,1.03Z"/>
          <path class="cls-1" d="M165.26,27.6v-1.36h-2.82v10.2h2.96v-4.81c0-.97,.25-1.69,.75-2.15,.5-.46,1.15-.69,1.96-.69,.11,0,.22,0,.32,0,.1,0,.21,.02,.34,.03v-2.73c-.96,0-1.78,.19-2.44,.56-.43,.24-.78,.56-1.06,.95Z"/>
          <path class="cls-1" d="M176.67,33.86c-.33,.25-.73,.38-1.19,.38-.39,0-.7-.12-.93-.35s-.34-.57-.34-1v-4.15h2.54v-2.27h-2.54v-2.48h-2.96v2.48h-1.57v2.27h1.57v4.19c0,1.21,.33,2.13,1,2.74,.67,.61,1.6,.92,2.8,.92,.46,0,.89-.05,1.32-.16,.42-.11,.79-.27,1.09-.48l-.8-2.08Z"/>
        </g>
      </g>
    </g>
  </g>
</svg>