<?xml version="1.0" encoding="UTF-8"?>
<svg id="Layer_2" data-name="Layer 2" xmlns="http://www.w3.org/2000/svg" viewBox="0 0 70.64 70.64">
  <defs>
    <style>
      .cls-1 {
        fill: #fff;
      }

      .cls-2 {
        fill: #f47878;
      }
    </style>
  </defs>
  <g id="Layer_1-2" data-name="Layer 1">
    <g>
      <circle class="cls-1" cx="35.32" cy="35.32" r="35.32"/>
      <path class="cls-2" d="M37.79,20.51h0c-1.67,1.67-1.67,4.37,0,6.03l3.19,3.19c.49,.49,.14,1.32-.55,1.32H15.51c-2.36,0-4.27,1.91-4.27,4.27s1.91,4.27,4.27,4.27h24.92c.69,0,1.04,.83,.55,1.32l-3.19,3.19c-1.67,1.67-1.67,4.37,0,6.04,1.67,1.67,4.37,1.67,6.04,0l12.34-12.34c1.36-1.36,1.36-3.58,0-4.94l-12.34-12.34c-1.67-1.67-4.37-1.67-6.04,0"/>
    </g>
  </g>
</svg>