<?xml version="1.0" encoding="UTF-8"?>
<svg id="Layer_2" data-name="Layer 2" xmlns="http://www.w3.org/2000/svg" viewBox="0 0 70.64 70.64">
  <defs>
    <style>
      .cls-1 {
        fill: #fff;
      }

      .cls-2 {
        fill: #f47878;
      }
    </style>
  </defs>
  <g id="Layer_1-2" data-name="Layer 1">
    <g>
      <circle class="cls-1" cx="35.32" cy="35.32" r="35.32"/>
      <path class="cls-2" d="M32.85,50.13h0c1.67-1.67,1.67-4.37,0-6.03l-3.19-3.19c-.49-.49-.14-1.32,.55-1.32h24.92c2.36,0,4.27-1.91,4.27-4.27s-1.91-4.27-4.27-4.27H30.21c-.69,0-1.04-.83-.55-1.32l3.19-3.19c1.67-1.67,1.67-4.37,0-6.04-1.67-1.67-4.37-1.67-6.04,0l-12.34,12.34c-1.36,1.36-1.36,3.58,0,4.94l12.34,12.34c1.67,1.67,4.37,1.67,6.04,0"/>
    </g>
  </g>
</svg>