<?xml version="1.0" encoding="UTF-8"?>
<svg id="Layer_2" data-name="Layer 2" xmlns="http://www.w3.org/2000/svg" viewBox="0 0 52.79 71.56">
  <defs>
    <style>
      .cls-1 {
        fill: #f47878;
      }
    </style>
  </defs>
  <g id="Layer_1-2" data-name="Layer 1">
    <g>
      <path class="cls-1" d="m0,35.95c.42-1.11.83-2.18,1.24-3.24.63-1.64,1.28-3.28,1.88-4.93.09-.25.07-.6-.02-.86-.66-1.81-1.36-3.61-2.04-5.41-.31-.82-.6-1.65-.91-2.47-.08-.22-.07-.32.15-.46,1.58-1.03,3.14-2.09,4.71-3.13.67-.45,1.34-.9,2.06-1.28.57-.3.76-.78.91-1.35.58-2.24,1.18-4.48,1.78-6.72.11-.43.22-.85.34-1.32.83.05,1.65.1,2.47.15.09,0,.19,0,.28,0,1.15.05,2.3.09,3.46.14.89.04,1.77.09,2.65.14.3.02.53-.09.78-.28.64-.51,1.32-.99,1.99-1.48,1.32-.98,2.63-1.96,3.94-2.94.2-.15.39-.33.6-.46.09-.05.28-.06.36,0,1.62,1.21,3.23,2.43,4.84,3.64.63.47,1.28.93,1.92,1.39.1.07.25.13.37.12,1.12-.04,2.23-.08,3.35-.14.79-.04,1.58-.1,2.37-.13.77-.03,1.55-.04,2.32-.08.3-.01.59-.06.93-.1.18.66.36,1.3.53,1.93.4,1.45.79,2.9,1.19,4.35.21.79.41,1.58.63,2.36.05.16.16.33.29.42,1.4.92,2.82,1.81,4.22,2.73.97.64,1.92,1.31,2.9,1.93.3.19.33.34.21.67-.73,1.88-1.44,3.77-2.14,5.66-.3.81-.64,1.62-.88,2.45-.07.25.09.58.19.86.8,2.1,1.61,4.19,2.42,6.29.16.41.28.83.46,1.22.12.26.04.38-.16.51-1.24.82-2.47,1.65-3.72,2.47-1.17.76-2.36,1.51-3.54,2.27-.11.07-.2.2-.24.32-.54,2-1.08,4-1.61,6.01-.22.83-.42,1.67-.65,2.49-.02.08-.17.2-.26.19-.99-.03-1.98-.08-2.97-.13-.08,0-.16,0-.24,0-1.2-.05-2.4-.08-3.6-.14-.5-.02-1.01-.07-1.51-.14-.47-.06-.84.1-1.19.4-1.73,1.42-3.46,2.84-5.2,4.25-.42.34-.84.67-1.28.99-.08.06-.27.06-.34,0-1.01-.81-2.01-1.64-3.01-2.46-.93-.76-1.88-1.51-2.81-2.27-.19-.15-.39-.29-.54-.48-.44-.53-1.01-.47-1.58-.4-.06,0-.11.04-.16.04-.68.03-1.36.04-2.04.07-1.08.04-2.16.09-3.24.14-.81.04-1.63.09-2.44.14-.21.01-.33-.04-.39-.27-.42-1.63-.85-3.26-1.29-4.89-.32-1.21-.65-2.42-.98-3.63-.03-.1-.13-.19-.22-.25-2.01-1.31-4.03-2.61-6.04-3.92-.5-.33-1-.67-1.48-1Zm28.53,6.1c.01-.09.04-.18.04-.27-.01-1.57-.02-3.15-.04-4.72,0-.18.04-.28.24-.34.91-.29,1.68-.79,2.35-1.48,1.37-1.41,1.86-3.11,1.51-4.99-.47-2.48-2-4.03-4.45-4.65-.92-.23-1.84-.44-2.75-.71-.82-.25-1.23-1.06-1.05-1.79.22-.93.98-1.37,1.89-1.16.47.11.95.2,1.42.3,1.02.2,2.04.39,3.07.59.53.1,1.06.21,1.56.3.29-1.44.56-2.79.83-4.15-1.52-.3-3.03-.6-4.58-.91v-5.36s-.02-.05-.03-.08c-.03,0-.07-.03-.1-.03-1.27,0-2.55,0-3.82,0-.09,0-.19.05-.28.08,0,.03,0,.06,0,.09,0,1.54,0,3.08.02,4.62,0,.29-.02.51-.37.57-.18.03-.36.14-.53.23-1.16.58-2.03,1.45-2.66,2.59-.45.8-.67,1.66-.66,2.54,0,.7.19,1.42.41,2.09.41,1.22,1.2,2.17,2.29,2.87.92.59,1.95.81,2.98,1.08.6.15,1.22.27,1.79.49.75.29,1.03,1.08.84,1.8-.27,1.03-1.2,1.23-1.89,1.13-.7-.11-1.4-.27-2.1-.41-1.18-.23-2.37-.44-3.55-.72-.36-.08-.41.04-.46.31-.15.78-.32,1.55-.47,2.33-.09.48-.16.96-.25,1.46,1.47.28,2.89.56,4.31.82.22.04.3.13.29.34-.01.3-.02.61-.02.91-.01,1.18-.03,2.37-.03,3.55,0,.22.04.45.07.67.02,0,.05,0,.07,0,1.35,0,2.69,0,4.04,0,.02,0,.05-.02.07-.02Z"/>
      <path class="cls-1" d="m35.47,71.49c-.44-1.2-.87-2.33-1.28-3.47-.46-1.25-.91-2.51-1.36-3.76-.38-1.05-.75-2.1-1.12-3.16-.39-1.11-.76-2.22-1.16-3.32-.09-.26-.04-.39.17-.55.75-.59,1.47-1.21,2.21-1.82.64-.53,1.27-1.05,1.92-1.57.07-.06.19-.09.29-.08.94.04,1.88.08,2.82.13,1.04.06,2.08.14,3.13.21.48.03.97.06,1.45.07,1.06.03,2.13.04,3.19.08.23,0,.29-.09.33-.29.07-.32.17-.63.27-.95.02-.06.08-.12.12-.17.05.05.11.09.14.16.34.9.67,1.79,1,2.69.6,1.63,1.19,3.27,1.78,4.9.54,1.5,1.05,3.01,1.58,4.51.04.13.12.24.14.41-1.98-1.15-3.86-2.43-5.77-3.67-1.91-1.25-3.83-2.5-5.81-3.8-1.34,4.49-2.67,8.94-4.02,13.45Z"/>
      <path class="cls-1" d="m6.46,52.68c.12.41.23.82.35,1.23.12.42.19.44.61.4.74-.06,1.49-.11,2.24-.14,1.13-.05,2.26-.09,3.38-.14.8-.04,1.6-.1,2.41-.14.6-.03,1.2-.01,1.79-.08.56-.06.95.16,1.36.5,1.08.9,2.18,1.79,3.27,2.68.13.11.29.2.39.33.07.1.12.28.09.39-.21.65-.46,1.29-.69,1.93-.29.82-.58,1.65-.88,2.47-.57,1.56-1.15,3.12-1.72,4.68-.39,1.07-.76,2.14-1.13,3.21-.17.48-.34.96-.54,1.55-1.36-4.56-2.69-9.02-4.03-13.53-3.88,2.54-7.72,5.06-11.55,7.57-.03-.02-.05-.03-.08-.05,1.55-4.29,3.11-8.58,4.66-12.88.02,0,.05,0,.07,0Z"/>
      <path class="cls-1" d="m28.56,12.71s-.02-.05-.03-.08c.01.03.02.05.03.08Z"/>
      <path class="cls-1" d="m24.33,12.69s0,.06,0,.09c0-.03,0-.06,0-.09Z"/>
      <path class="cls-1" d="m24.35,42.06s.05,0,.07,0c-.02,0-.05,0-.07,0Z"/>
      <path class="cls-1" d="m28.46,42.07s.05-.02.07-.02c-.02,0-.05.02-.07.02Z"/>
    </g>
  </g>
</svg>