<?xml version="1.0" encoding="UTF-8"?>
<svg xmlns="http://www.w3.org/2000/svg" xmlns:xlink="http://www.w3.org/1999/xlink" viewBox="0 0 830 631.48">
  <defs>
    <style>
      .cls-1, .cls-2, .cls-3 {
        fill: #82450f;
      }

      .cls-4, .cls-5 {
        opacity: .18;
      }

      .cls-6, .cls-7, .cls-8 {
        fill: #fff;
      }

      .cls-9 {
        filter: url(#drop-shadow-1);
      }

      .cls-9, .cls-10, .cls-11 {
        fill: #62cee7;
      }

      .cls-9, .cls-11 {
        opacity: .67;
      }

      .cls-12 {
        opacity: .31;
      }

      .cls-2, .cls-13 {
        opacity: .26;
      }

      .cls-14, .cls-5, .cls-15, .cls-16, .cls-17, .cls-18, .cls-19 {
        fill: #223147;
      }

      .cls-14, .cls-7 {
        opacity: .11;
      }

      .cls-20 {
        fill: #fc6c6b;
      }

      .cls-21 {
        clip-path: url(#clippath-2);
      }

      .cls-22 {
        isolation: isolate;
      }

      .cls-15, .cls-23 {
        opacity: .23;
      }

      .cls-24 {
        opacity: .35;
      }

      .cls-25 {
        opacity: .22;
      }

      .cls-26 {
        clip-path: url(#clippath-1);
      }

      .cls-27 {
        opacity: .44;
      }

      .cls-28 {
        clip-path: url(#clippath-4);
      }

      .cls-29 {
        opacity: .54;
      }

      .cls-30 {
        opacity: .48;
      }

      .cls-31 {
        opacity: .4;
      }

      .cls-13, .cls-32 {
        fill: #f39131;
      }

      .cls-16, .cls-33 {
        opacity: .37;
      }

      .cls-34 {
        clip-path: url(#clippath);
      }

      .cls-35, .cls-36 {
        fill: none;
      }

      .cls-37 {
        opacity: .41;
      }

      .cls-38 {
        clip-path: url(#clippath-3);
      }

      .cls-39 {
        fill: #feb847;
      }

      .cls-40 {
        fill: #1983a6;
      }

      .cls-17 {
        opacity: .38;
      }

      .cls-41 {
        fill: #06a38b;
      }

      .cls-36 {
        stroke: #223147;
        stroke-miterlimit: 10;
        stroke-width: 1.5px;
      }

      .cls-3, .cls-19 {
        opacity: .1;
      }

      .cls-42 {
        clip-path: url(#clippath-5);
      }

      .cls-8 {
        mix-blend-mode: overlay;
        opacity: .2;
      }

      .cls-43 {
        opacity: .27;
      }
    </style>
    <filter id="drop-shadow-1" filterUnits="userSpaceOnUse">
      <feOffset dx="0" dy="11"/>
      <feGaussianBlur result="blur" stdDeviation="30"/>
      <feFlood flood-color="#000" flood-opacity=".75"/>
      <feComposite in2="blur" operator="in"/>
      <feComposite in="SourceGraphic"/>
    </filter>
    <clipPath id="clippath">
      <path class="cls-35" d="M451.87,430.21s-19.63,39.39-6.17,76.49l161.13-52.1s-13.6-25.36-.9-56.64l-154.07,32.25Z"/>
    </clipPath>
    <clipPath id="clippath-1">
      <path class="cls-35" d="M614.23,344.04l-202.78,32.29s-11.77,37.3,0,57.83l208.47-35.32s-4.95-26.26-5.7-54.8Z"/>
    </clipPath>
    <clipPath id="clippath-2">
      <path class="cls-35" d="M590.64,253.01l-157.4,33.2s-24.03,45.06,6.76,72.85l152.46-42.06-1.82-63.99Z"/>
    </clipPath>
    <clipPath id="clippath-3">
      <path class="cls-35" d="M584.19,190.08l-179.49,23.28s-21.03,39.8,5.26,56.33l175.74-28.54s-1.5-53.32-1.5-51.07Z"/>
    </clipPath>
    <clipPath id="clippath-4">
      <polygon class="cls-35" points="549.45 86 480.37 104.97 480.37 141.02 480.37 145.52 548.49 123.94 549.45 86"/>
    </clipPath>
    <clipPath id="clippath-5">
      <path class="cls-35" d="M426.86,66.85s-12.18,16.98-2.58,34.32l122.53-20.3,1.85-35.43-121.79,21.41Z"/>
    </clipPath>
  </defs>
  <g class="cls-22">
    <g id="Layer_2" data-name="Layer 2">
      <g id="Layer_1-2" data-name="Layer 1">
        <g>
          <g>
            <ellipse class="cls-9" cx="414.91" cy="475.66" rx="324.37" ry="54.25"/>
            <g class="cls-24">
              <path class="cls-10" d="M414.91,421.41c-174.89,0-317.43,23.15-324.1,52.13-16.52-30.45-6.59-73.53,21.71-92.68,7.21-4.88,15.37-8.36,21.73-14.37,19.64-18.55,14.46-51.06,19.48-78.1,5.38-28.97,25.02-54.7,51-66.78,27.74-12.91,61.72-11.15,85.65-30.61,21.28-17.3,28.75-46.58,41.02-71.56,28.1-57.21,86.8-95.54,148.38-102.49,61.58-6.95,124.71,15.82,172.46,56.72,25.53,21.86,47.51,49.66,56.81,82.6,14.11,50-2.49,102.96-8.18,154.72-.78,7.06-1.32,14.39,.87,21.13,5.1,15.64,22.43,22.43,33.74,34.06,22.99,23.64,18.11,62.74,11.57,95.62l-7.79,13.54c-1.03-29.81-145.84-53.93-324.34-53.93Z"/>
            </g>
          </g>
          <ellipse class="cls-11" cx="674.13" cy="478.45" rx="54.78" ry="9.53"/>
          <g>
            <polygon class="cls-10" points="188.39 55.71 181.41 35.19 160.7 28.77 181.95 21.44 188.7 0 195.68 20.52 216.38 26.94 194.69 34.79 188.39 55.71"/>
            <polygon class="cls-10" points="598 127.7 591.02 107.18 570.32 100.76 591.56 93.43 598.31 71.99 605.29 92.52 626 98.94 604.31 106.79 598 127.7"/>
            <polygon class="cls-6" points="660.98 141.13 657.43 130.67 646.87 127.4 657.7 123.66 661.14 112.74 664.7 123.2 675.25 126.47 664.2 130.47 660.98 141.13"/>
            <polygon class="cls-6" points="180.17 307.98 176.61 297.52 166.05 294.25 176.88 290.51 180.32 279.59 183.88 290.05 194.44 293.32 183.38 297.32 180.17 307.98"/>
            <polygon class="cls-10" points="624.17 166.76 620.61 156.3 610.06 153.03 620.89 149.29 624.33 138.37 627.89 148.83 638.44 152.1 627.38 156.1 624.17 166.76"/>
            <polygon class="cls-10" points="244.47 119.83 240.91 109.37 230.36 106.1 241.19 102.36 244.63 91.44 248.19 101.9 258.74 105.17 247.68 109.17 244.47 119.83"/>
            <path class="cls-10" d="M219.64,71.39c0,1.72-1.39,3.11-3.11,3.11s-3.11-1.39-3.11-3.11,1.39-3.11,3.11-3.11,3.11,1.39,3.11,3.11Z"/>
            <path class="cls-10" d="M702.03,218.93c0,1.72-1.39,3.11-3.11,3.11s-3.11-1.39-3.11-3.11,1.39-3.11,3.11-3.11,3.11,1.39,3.11,3.11Z"/>
            <path class="cls-10" d="M696.54,260.15c0,1.72-1.39,3.11-3.11,3.11s-3.11-1.39-3.11-3.11,1.39-3.11,3.11-3.11,3.11,1.39,3.11,3.11Z"/>
            <path class="cls-10" d="M660.81,253c0,1.72-1.39,3.11-3.11,3.11s-3.11-1.39-3.11-3.11,1.39-3.11,3.11-3.11,3.11,1.39,3.11,3.11Z"/>
            <path class="cls-10" d="M168.85,188.54c0,1.72-1.39,3.11-3.11,3.11s-3.11-1.39-3.11-3.11,1.39-3.11,3.11-3.11,3.11,1.39,3.11,3.11Z"/>
            <path class="cls-10" d="M150.19,165.73c0,1.72-1.39,3.11-3.11,3.11s-3.11-1.39-3.11-3.11,1.39-3.11,3.11-3.11,3.11,1.39,3.11,3.11Z"/>
            <path class="cls-10" d="M579.5,50.09c0,1.72-1.39,3.11-3.11,3.11s-3.11-1.39-3.11-3.11,1.39-3.11,3.11-3.11,3.11,1.39,3.11,3.11Z"/>
          </g>
          <g>
            <g>
              <g class="cls-30">
                <path class="cls-40" d="M249.29,300.98c-15.88-23-30.6-46.84-43.17-71.83-10.08-20.04-18.72-40.85-25.29-62.31,.5-14.81,1-29.62,1.5-44.43,.59-17.6,.38-37.37-12.04-49.85-3.04-3.05-7.33-5.61-11.48-4.46-4.86,1.35-7.04,6.94-8.02,11.89-6.06,30.66,7.3,61.66,25.23,87.59,2.06,6.77,4.32,13.48,6.78,20.11,9.66,26.06,22.18,50.99,36.35,74.87,8.02,13.52,16.58,26.71,25.51,39.64,.81,1.18,5.05-.63,4.63-1.24Z"/>
              </g>
              <g class="cls-30">
                <path class="cls-40" d="M234.62,289.25c-7.58-19.19-14.2-38.79-19.07-58.86-3.91-16.09-6.66-32.5-7.8-49.03,2.83-10.57,5.66-21.14,8.48-31.7,3.36-12.56,6.5-26.81-.35-37.86-1.68-2.7-4.34-5.26-7.51-5.12-3.72,.16-6.22,3.82-7.75,7.21-9.47,21.04-5.03,45.56,3.54,67.2,.35,5.21,.86,10.41,1.52,15.6,2.6,20.35,7.45,40.37,13.66,59.91,3.51,11.06,7.47,21.97,11.74,32.76,.39,.98,3.74,.39,3.54-.12Z"/>
              </g>
              <g class="cls-30">
                <path class="cls-40" d="M292.32,292.34c-19.82-5.74-39.38-12.49-58.23-20.91-15.12-6.75-29.78-14.61-43.56-23.81-6.63-8.7-13.26-17.4-19.89-26.1-7.88-10.34-17.23-21.54-30.17-22.88-3.16-.33-6.81,.21-8.65,2.81-2.15,3.04-.79,7.26,.97,10.54,10.85,20.36,32.97,31.85,55.34,38.3,4.34,2.91,8.77,5.69,13.27,8.33,17.69,10.39,36.5,18.79,55.75,25.83,10.9,3.99,21.95,7.53,33.1,10.75,1.01,.29,2.59-2.72,2.07-2.87Z"/>
              </g>
            </g>
            <g>
              <g class="cls-30">
                <path class="cls-40" d="M552.95,335.52c18.5-15.74,36.23-32.44,52.39-50.58,12.97-14.56,24.9-30.08,35.24-46.61,2.91-12.54,5.82-25.09,8.74-37.63,3.46-14.91,8.08-31.45,21.32-39.13,3.24-1.88,7.41-3.06,10.64-1.16,3.78,2.23,4.35,7.41,4.06,11.78-1.81,27.1-19.99,50.11-40.88,67.85-3.25,5.22-6.66,10.34-10.22,15.36-13.97,19.7-30.09,37.81-47.35,54.67-9.77,9.54-19.92,18.69-30.33,27.54-.95,.81-4.1-1.67-3.61-2.08Z"/>
              </g>
              <g class="cls-30">
                <path class="cls-40" d="M567.9,328.97c10.68-14.4,20.65-29.37,29.25-45.11,6.9-12.63,12.9-25.78,17.58-39.4,0-9.51,0-19.01,.01-28.52,0-11.3,.57-23.97,8.81-31.7,2.02-1.89,4.82-3.44,7.46-2.61,3.09,.97,4.36,4.6,4.88,7.8,3.21,19.79-6.03,39.37-18.09,55.61-1.47,4.3-3.06,8.55-4.79,12.75-6.76,16.5-15.34,32.21-24.94,47.21-5.44,8.49-11.21,16.76-17.22,24.86-.55,.74-3.23-.52-2.94-.9Z"/>
              </g>
              <g class="cls-30">
                <path class="cls-40" d="M518.77,318.59c17.93-.36,35.86-1.63,53.58-4.45,14.21-2.27,28.29-5.57,41.92-10.19,7.52-5.81,15.05-11.62,22.57-17.43,8.94-6.91,19.31-14.21,30.47-12.42,2.73,.44,5.67,1.71,6.63,4.31,1.12,3.04-.97,6.27-3.18,8.63-13.69,14.65-34.84,19.32-55.06,19.7-4.3,1.47-8.64,2.8-13.01,4.01-17.19,4.74-34.86,7.57-52.61,9.14-10.04,.89-20.12,1.38-30.2,1.58-.92,.02-1.57-2.87-1.09-2.88Z"/>
              </g>
            </g>
          </g>
          <g>
            <path class="cls-32" d="M727.6,427.94c0-3.84-.47-7.57-1.32-11.14h-.79c-1.54-6.67-21.58-11.94-46.1-11.94s-46.2,5.72-46.2,12.77c0,.21,.02,.42,.06,.63-.65,3.13-1.02,6.36-1.02,9.69,0,19.43,11.63,36.14,28.3,43.57-4.05,1.1-6.53,2.54-6.53,4.12,0,3.44,11.6,6.22,25.92,6.22s25.92-2.78,25.92-6.22c0-1.58-2.48-3.02-6.53-4.12,16.67-7.43,28.3-24.14,28.3-43.57Z"/>
            <path class="cls-14" d="M727.6,427.94c0-3.84-.47-7.57-1.32-11.14h-.79c-.51-2.19-3.02-4.22-7.01-5.98,2.45,3.74,4.03,8.05,4.41,12.95,.98,12.46-6.36,25.53-16.7,32.23-10.4,6.75-23.82,7.17-35.52,4.14-17.15-4.44-32.16-16.5-38.43-32.21h0c0,19.44,11.63,36.14,28.3,43.57-4.05,1.1-6.53,2.54-6.53,4.12,0,3.44,11.6,6.22,25.92,6.22s25.92-2.78,25.92-6.22c0-1.58-2.48-3.02-6.53-4.12,16.67-7.43,28.3-24.14,28.3-43.57Z"/>
            <ellipse class="cls-1" cx="679.39" cy="417.63" rx="37.4" ry="10.33"/>
            <g>
              <path class="cls-41" d="M679.68,422.66c-7.24-4.45-14.58-9.03-20.07-15.52-5.49-6.48-8.92-15.28-6.98-23.54,.95-4.05,3.13-7.88,3.05-12.04-.18-8.77-9.66-13.89-14.88-20.94-6.28-8.48-6.26-19.91-5.97-30.46,3.85,11.52,17.06,16.4,26.36,24.21,10.29,8.65,16.15,21.66,18.66,34.86s1.96,26.78,1.41,40.21l-1.57,3.21Z"/>
              <g class="cls-4">
                <path class="cls-18" d="M668.9,366.18c-7.01-17.8-24.38-27.8-34.12-43.2-.17,9.73,.31,19.91,6.04,27.64,5.22,7.05,14.7,12.17,14.88,20.94,.08,4.16-2.1,7.99-3.05,12.04-1.94,8.27,1.49,17.06,6.98,23.54,4.31,5.09,9.77,9.01,15.42,12.61,1.13-18.28,.5-36.73-6.14-53.58Z"/>
              </g>
              <path class="cls-41" d="M679.64,422.61c-9.47-11.41-11.93-28.19-6.15-41.84,3.98-9.4,11.56-17.54,12.55-27.7,.49-5.05-.73-10.11-.86-15.18-.18-7.05,1.79-14.14,5.6-20.07-1.98,20.86,12.86,40.16,12.8,61.12-.05,16.13-23.93,43.68-23.93,43.68Z"/>
              <g class="cls-4">
                <path class="cls-18" d="M690.96,343.88c.42,16.44-1.95,31.84-5.75,47.76-2.04,8.56-2.74,16.05-1.39,23.67,11.92-7.97,19.7-22,19.74-36.38,.05-17.69-10.51-34.2-12.62-51.46-.44,5.45-.13,11.02,0,16.41Z"/>
              </g>
              <g>
                <path class="cls-41" d="M679.51,422.56c.08-13.44,.68-28.26,9.88-38.06,7.73-8.23,20.24-11.28,26.56-20.63,5.5-8.14,4.81-18.8,7.09-28.36,2.31-9.74,7.95-18.65,15.76-24.91,.87,9.78,1.74,19.55,2.61,29.33,1.04,11.67,2.04,23.71-1.57,34.85-3.82,11.82-12.56,21.55-22.67,28.77-10.11,7.22-21.61,12.19-33.02,17.11l-4.64,1.9Z"/>
                <g class="cls-4">
                  <path class="cls-18" d="M739.54,318.92c-3.68,9.79-5.24,20.4-8.52,30.31-4.98,15.05-13.27,27.47-24.07,39-9.6,10.25-17.13,18.33-20.31,31.35,10.58-4.58,21.16-9.34,30.54-16.03,10.11-7.22,18.85-16.95,22.67-28.77,3.6-11.15,2.6-23.19,1.57-34.85-.62-7-1.25-14.01-1.87-21.01Z"/>
                </g>
              </g>
            </g>
          </g>
          <path class="cls-10" d="M199.73,432.13l-32.65,10.68s254.84,73.83,266.74,78.59c11.91,4.76,197.68-59.54,197.68-59.54l-52.4-16.67-379.38-13.06"/>
          <g>
            <path class="cls-18" d="M297.95,496.93l-158.74-37.32c-4.57-1.07-9.19,1.79-10.26,6.35h0c-1.07,4.57,1.79,9.19,6.35,10.26l158.74,37.32,3.91-16.62Z"/>
            <path class="cls-8" d="M128.87,469.46c.6,3.23,3.05,5.97,6.43,6.77l158.74,37.32,1.17-4.98-166.35-39.11Z"/>
            <rect class="cls-39" x="145.35" y="469.72" width="17.53" height="4.52" transform="translate(-340.61 513.99) rotate(-76.77)"/>
            <rect class="cls-39" x="217.48" y="486.67" width="17.53" height="4.52" transform="translate(-301.49 597.28) rotate(-76.77)"/>
            <rect class="cls-39" x="173.52" y="447.59" width="2.26" height="52.04" transform="translate(-326.36 535.25) rotate(-76.77)"/>
            <polygon class="cls-39" points="294.04 513.55 309.35 511.09 310.64 505.58 297.95 496.93 294.04 513.55"/>
          </g>
          <g>
            <path class="cls-20" d="M613.85,458.09l-12.88-6.02c-16.52-9.01-6.01-63.09-6.01-63.09l-147.75,42.75-250.29-62.28c-8.26,31.29-1.5,72.5-1.5,72.5l231.39,63.17-.07,.26,20.28,5.26c172.73-50.32,166.84-52.56,166.84-52.56Z"/>
            <polygon class="cls-20" points="450.49 432.82 616.47 383.25 366.38 329.93 196.93 369.45 450.49 432.82"/>
            <path class="cls-16" d="M200.48,439.78c-1.24-4.99-1.98-10.09-2.5-15.21-.53-5.12-.69-10.28-.59-15.44,.15-5.16,.65-10.31,1.56-15.39,.96-5.07,2.4-10.06,4.44-14.78-.61,2.5-1.45,4.92-1.87,7.45-.61,2.48-.96,5.01-1.35,7.52-.62,5.06-1.06,10.13-1.17,15.23-.13,5.1-.02,10.2,.22,15.3,.12,2.55,.29,5.1,.53,7.65,.17,2.56,.47,5.1,.75,7.65Z"/>
            <path class="cls-16" d="M434.17,502.58c-1.24-4.99-1.98-10.09-2.5-15.21-.53-5.12-.68-10.28-.59-15.44,.15-5.16,.65-10.31,1.56-15.39,.96-5.07,2.4-10.06,4.44-14.78-.61,2.5-1.45,4.92-1.87,7.45-.61,2.48-.96,5.01-1.35,7.52-.61,5.06-1.06,10.13-1.17,15.23-.13,5.1-.02,10.2,.22,15.3,.12,2.55,.29,5.1,.53,7.65,.17,2.56,.47,5.1,.75,7.65Z"/>
            <path class="cls-16" d="M210.84,377.64c18.06,4.45,36.07,9.07,54.08,13.71l53.97,14.12,53.88,14.48,26.9,7.37,26.86,7.53-27.06-6.77-27.02-6.94-53.97-14.13-53.88-14.48c-17.94-4.89-35.88-9.81-53.77-14.89Z"/>
            <g class="cls-37">
              <path class="cls-6" d="M257.3,454.44l-49.6-14.52,2.83-56.74,48.79,12.9-2.03,58.36Zm-47.91-15.05l46.24,13.51,1.98-56.27-45.51-12.06-2.71,54.82Z"/>
              <path class="cls-6" d="M233.42,419.27l-23.1-20.96,24.33-7.94,23.66,20.99-24.89,7.91Zm-20.81-20.34l20.87,18.92,22.44-7.14-21.33-18.94-21.98,7.16Z"/>
              <path class="cls-6" d="M231.96,434.31l-23.17-21.29,24.42-7.87,23.74,21.32-24.98,7.84Zm-20.88-20.65l20.94,19.22,22.52-7.07-21.4-19.24-22.06,7.1Z"/>
              <path class="cls-6" d="M231.43,446.72l-23.25-21.57,24.5-7.81,23.82,21.6-25.08,7.78Zm-20.95-20.91l21.01,19.47,22.61-7.02-21.48-19.49-22.14,7.05Z"/>
            </g>
            <g class="cls-37">
              <path class="cls-6" d="M312.01,470.24l-49.6-14.52,2.83-56.74,48.79,12.9-2.03,58.36Zm-47.91-15.05l46.24,13.51,1.98-56.27-45.51-12.06-2.71,54.82Z"/>
              <path class="cls-6" d="M288.13,435.07l-23.1-20.96,24.33-7.94,23.66,20.99-24.89,7.91Zm-20.81-20.34l20.87,18.92,22.44-7.14-21.33-18.94-21.98,7.16Z"/>
              <path class="cls-6" d="M286.67,450.11l-23.17-21.29,24.42-7.87,23.74,21.32-24.99,7.84Zm-20.88-20.65l20.94,19.22,22.52-7.08-21.4-19.24-22.06,7.1Z"/>
              <path class="cls-6" d="M286.14,462.52l-23.25-21.57,24.5-7.81,23.82,21.6-25.08,7.78Zm-20.95-20.91l21.01,19.47,22.61-7.02-21.48-19.49-22.14,7.05Z"/>
            </g>
            <g class="cls-37">
              <path class="cls-6" d="M368.28,486.05l-49.6-14.52,2.83-56.74,48.79,12.9-2.03,58.36Zm-47.91-15.05l46.24,13.51,1.98-56.27-45.51-12.06-2.71,54.82Z"/>
              <path class="cls-6" d="M344.41,450.88l-23.1-20.96,24.33-7.94,23.66,20.99-24.89,7.91Zm-20.81-20.34l20.87,18.92,22.44-7.14-21.33-18.94-21.98,7.16Z"/>
              <path class="cls-6" d="M342.95,465.92l-23.17-21.29,24.42-7.87,23.74,21.32-24.99,7.84Zm-20.88-20.65l20.94,19.22,22.52-7.08-21.4-19.24-22.06,7.1Z"/>
              <path class="cls-6" d="M342.42,478.33l-23.25-21.57,24.5-7.81,23.82,21.6-25.08,7.78Zm-20.95-20.91l21.01,19.47,22.61-7.02-21.48-19.49-22.14,7.05Z"/>
            </g>
            <g class="cls-37">
              <path class="cls-6" d="M424.61,501.05l-49.6-14.52,2.83-56.74,48.79,12.9-2.03,58.36Zm-47.91-15.05l46.24,13.51,1.98-56.27-45.51-12.06-2.71,54.82Z"/>
              <path class="cls-6" d="M400.74,465.88l-23.1-20.96,24.33-7.94,23.66,20.99-24.89,7.91Zm-20.81-20.34l20.87,18.92,22.44-7.14-21.33-18.94-21.98,7.16Z"/>
              <path class="cls-6" d="M399.28,480.92l-23.17-21.29,24.42-7.87,23.74,21.32-24.98,7.84Zm-20.88-20.65l20.94,19.22,22.52-7.07-21.4-19.24-22.06,7.1Z"/>
              <path class="cls-6" d="M398.75,493.33l-23.25-21.57,24.5-7.81,23.82,21.6-25.08,7.78Zm-20.95-20.91l21.01,19.47,22.61-7.02-21.48-19.49-22.14,7.05Z"/>
            </g>
            <g class="cls-34">
              <path class="cls-6" d="M451.87,430.21s-19.63,39.39-6.17,76.49l161.13-52.1s-10.5-35.53,2.2-66.81l-157.17,42.42Z"/>
              <path class="cls-3" d="M574.82,458.84c-22.23,8.51-44.41,15.26-68.27,17.04-23.63,1.76-47.8-4.09-62.32-23.44-3.54,14.71-5.59,34.79,1.48,54.26l161.13-52.1s-.8-2.73-1.7-7.33c-10.19,3.62-20.24,7.71-30.32,11.56Z"/>
              <g class="cls-25">
                <rect class="cls-1" x="434.93" y="425.42" width="179.08" height="1.2" transform="translate(-79.61 123.29) rotate(-12.47)"/>
                <rect class="cls-1" x="435.18" y="436.49" width="179.08" height="1.2" transform="translate(-87.06 133.6) rotate(-13.41)"/>
                <rect class="cls-1" x="433.77" y="449.37" width="179.08" height="1.2" transform="translate(-90.07 133.61) rotate(-13.41)"/>
                <rect class="cls-1" x="433.03" y="459.31" width="179.08" height="1.2" transform="translate(-97.52 143.55) rotate(-14.32)"/>
                <rect class="cls-1" x="434.36" y="471.58" width="179.08" height="1.2" transform="translate(-110.94 164.93) rotate(-16.2)"/>
              </g>
            </g>
            <path class="cls-7" d="M442.18,437.52l-246.04-64.08s-3.96,16.61-1.58,26.11l246.04,65.66,7.12-26.9-5.54-.79Z"/>
            <path class="cls-19" d="M195.42,441.96l251.59,68.69s-5.63-23.29-5.63-25.66l-246.83-62.5s-1.44,15.21,.86,19.47Z"/>
          </g>
          <g>
            <path class="cls-39" d="M241.73,307.99s-4.51,27.79-.75,45.81c0,0,156.21,84.87,167.48,87.87,11.27,3,226.81-38.3,226.81-38.3l-28.54-6.76-1.35-50.81,26.14-4.76-181.75-72.85-208.03,39.8Z"/>
            <path class="cls-6" d="M614.23,344.04l-202.78,32.29s-11.77,37.3,0,57.83l208.47-35.32s-4.95-26.26-5.7-54.8Z"/>
            <path class="cls-3" d="M511.69,411.27c-35.06,1.32-73.41,.1-104.39-15.66-1.71,12.23-2.05,27.72,4.16,38.55l208.47-35.32s-.08-.4-.21-1.16c-35.66,7.09-71.72,12.23-108.03,13.6Z"/>
            <g class="cls-24">
              <g>
                <polygon class="cls-36" points="258.32 317.93 249.43 314.44 245.02 332.81 249.03 354.49 257.66 358.99 262.55 340.83 258.32 317.93"/>
                <polygon class="cls-18" points="255.64 328.48 251.72 326.8 249.7 334.95 251.51 344.74 255.38 346.62 257.49 338.51 255.64 328.48"/>
                <polygon class="cls-36" points="262.62 361.57 244.84 352.31 245.13 312.38 263.43 319.55 262.62 361.57"/>
              </g>
              <g>
                <polygon class="cls-36" points="313.1 339.45 301 334.7 294.31 355.37 298.97 380.52 310.63 386.59 318.07 366.25 313.1 339.45"/>
                <polygon class="cls-18" points="308.99 351.38 303.67 349.09 300.6 358.25 302.71 369.63 307.95 372.18 311.17 363.09 308.99 351.38"/>
                <polygon class="cls-36" points="317.36 390.1 293.35 377.59 295.19 331.99 320.12 341.76 317.36 390.1"/>
              </g>
              <g>
                <polygon class="cls-36" points="390.25 369.76 372.82 362.91 362.25 386.47 367.82 416.39 384.41 425.03 396.28 402.05 390.25 369.76"/>
                <polygon class="cls-18" points="383.68 383.42 376.03 380.14 371.18 390.56 373.71 404.14 381.19 407.78 386.3 397.48 383.68 383.42"/>
                <polygon class="cls-36" points="394.08 430.07 359.89 412.26 364.55 359.16 400.49 373.24 394.08 430.07"/>
              </g>
              <polygon class="cls-18" points="279.07 370.32 275.17 368.29 276.38 324.63 280.42 326.21 279.07 370.32"/>
              <polygon class="cls-18" points="338.6 401.37 333.48 398.7 336.94 348.35 342.28 350.44 338.6 401.37"/>
            </g>
            <path class="cls-7" d="M241.73,307.99l169.73,68.34s-5.44,20.69-5.04,25.55l-166.57-77.41s.91-14.74,1.87-16.49Z"/>
            <path class="cls-13" d="M240.98,353.8l167.48,87.87s-6.89-10.2-6.49-28.44l-162.11-74.16s.22,12.85,1.12,14.73Z"/>
            <g class="cls-26">
              <g>
                <g class="cls-27">
                  <rect class="cls-1" x="401.13" y="368.44" width="219.95" height=".8" transform="translate(-53.48 88.64) rotate(-9.42)"/>
                </g>
                <g class="cls-27">
                  <rect class="cls-1" x="401.86" y="377.47" width="219.95" height=".8" transform="translate(-54.95 88.88) rotate(-9.42)"/>
                </g>
                <g class="cls-27">
                  <rect class="cls-1" x="401.02" y="387.44" width="219.95" height=".8" transform="translate(-56.6 88.88) rotate(-9.42)"/>
                </g>
                <g class="cls-27">
                  <rect class="cls-1" x="401.44" y="397.4" width="219.95" height=".8" transform="translate(-58.28 89.19) rotate(-9.43)"/>
                </g>
                <g class="cls-27">
                  <rect class="cls-1" x="401.88" y="408.3" width="219.95" height=".8" transform="translate(-60.07 89.43) rotate(-9.43)"/>
                </g>
              </g>
            </g>
          </g>
          <g>
            <path class="cls-41" d="M215.44,226.88s-16.52,33.04-.75,70.6l222.3,69.09,168.23-46.15-14.19-3.55-3.15-63.07,15.84-4.39-210.29-63.09-177.99,40.55Z"/>
            <path class="cls-6" d="M590.64,253.01l-157.4,33.2s-24.03,45.06,6.76,72.85l152.46-42.06-1.82-63.99Z"/>
            <path class="cls-3" d="M525.13,267.3c5.74-.01,11.47-.2,17.19-.66,2.57-.21,5.13-.49,7.69-.78,.46-.05,.8-.09,1.04-.12,.58-.09,1.16-.18,1.74-.27,9.66-1.66,19.22-3.68,28.71-6.17,3.09-.81,6.16-1.67,9.23-2.55l-.11-3.75-67.63,14.27c.71,0,1.42,.03,2.13,.02Z"/>
            <path class="cls-3" d="M522,323.24c-22.53-.21-45.06-2.58-67.53-4.13-10.02-.69-20.05-1.71-29.79-3.75-1.46,14.12,1,30.78,15.31,43.7l152.46-42.06-.09-3.17c-22.92,5.73-46.19,9.63-70.37,9.41Z"/>
            <path class="cls-17" d="M217.66,294.06c-2.34-4.93-3.7-10.28-4.64-15.66-.93-5.39-1.29-10.88-1.2-16.35,.03-1.37,.14-2.73,.21-4.1l.12-2.05,.24-2.04,.51-4.07,.77-4.03c.45-2.7,1.27-5.31,1.92-7.96,.79-2.61,1.72-5.18,2.63-7.73-1.28,5.29-2.58,10.55-3.34,15.91l-.59,4.01-.39,4.03-.21,2.01-.1,2.02c-.06,1.35-.16,2.69-.17,4.04-.13,5.39,.18,10.78,.81,16.14,.29,2.69,.78,5.34,1.34,7.99,.54,2.65,1.23,5.27,2.09,7.85Z"/>
            <path class="cls-17" d="M420.3,355.81c-2.34-4.93-3.7-10.28-4.64-15.66-.93-5.39-1.29-10.88-1.2-16.35,.03-1.37,.14-2.73,.21-4.1l.12-2.05,.24-2.04,.51-4.07,.77-4.03c.45-2.7,1.27-5.31,1.92-7.96,.79-2.61,1.72-5.18,2.63-7.73-1.28,5.29-2.58,10.55-3.34,15.91l-.59,4.01-.39,4.03-.21,2.01-.1,2.02c-.06,1.35-.16,2.69-.17,4.04-.13,5.39,.18,10.78,.81,16.14,.29,2.69,.78,5.34,1.34,7.99,.54,2.65,1.23,5.27,2.09,7.85Z"/>
            <g class="cls-23">
              <polygon class="cls-18" points="236.24 278.88 267.7 284.19 240.19 262.63 225.14 264.63 236.24 278.88"/>
              <polygon class="cls-18" points="240.59 261.62 270.42 284.91 251.27 249.35 235.37 242.66 240.59 261.62"/>
              <polygon class="cls-18" points="236.12 280.54 269.71 285.64 239.98 296.82 225.8 290.32 236.12 280.54"/>
            </g>
            <path class="cls-15" d="M284.43,252.49s-13.84,32.49-4.81,63.77l34.89,12.03s-7.82-52.34,7.82-64.37l-37.9-11.43Z"/>
            <path class="cls-15" d="M362.04,275.95s-14.44,35.5-4.81,64.98l10.83,4.21s-3.01-49.33,7.82-65.58l-13.84-3.61Z"/>
            <g class="cls-21">
              <g class="cls-43">
                <rect class="cls-1" x="424.03" y="273.05" width="184.89" height=".8" transform="translate(-46.11 115.27) rotate(-12.2)"/>
                <rect class="cls-1" x="421.18" y="282.43" width="184.89" height=".8" transform="translate(-49.37 119.02) rotate(-12.62)"/>
                <rect class="cls-1" x="419.36" y="291.77" width="184.89" height=".8" transform="translate(-54.21 128.06) rotate(-13.55)"/>
                <rect class="cls-1" x="418.55" y="300.58" width="184.89" height=".8" transform="translate(-56.29 128.1) rotate(-13.55)"/>
                <rect class="cls-1" x="418.78" y="309.36" width="184.89" height=".8" transform="translate(-58.34 128.4) rotate(-13.55)"/>
                <rect class="cls-1" x="420.03" y="317.59" width="184.89" height=".8" transform="translate(-60.24 128.92) rotate(-13.55)"/>
                <polygon class="cls-1" points="430.62 355.57 430.43 354.8 609.55 308.95 609.74 309.72 430.62 355.57"/>
                <rect class="cls-1" x="423.83" y="324.73" width="184.89" height=".8" transform="translate(-61.8 129.98) rotate(-13.55)"/>
              </g>
            </g>
            <path class="cls-7" d="M215.44,226.88l217.8,59.33s-8.63,21.03-9.83,31.26l-215.39-66.18s3.41-20.54,7.42-24.41Z"/>
            <path class="cls-19" d="M212.84,297.01l224.16,69.56s-12.53-4.88-16.59-26.84l-212.38-64.37s3.01,18.05,4.81,21.66Z"/>
          </g>
          <g>
            <path class="cls-18" d="M232.72,153.28s-5.26,45.06-.75,57.08l167.48,68.34,202.02-35.3-20.28-4.51-2.38-48.56,17.74-1.97-201.61-59.11-162.22,24.03Z"/>
            <path class="cls-6" d="M584.19,190.08l-179.49,23.28s-21.03,39.8,5.26,56.33l175.74-28.54s-1.5-53.32-1.5-51.07Z"/>
            <path class="cls-3" d="M513.64,250.49c-22.02-.09-44.35-2-66.29-3.9-13.06-1.13-26.55-2.63-38.39-8.69-3.84-1.96-7.29-4.44-10.56-7.15-3.03,12.82-3.29,29.6,11.56,38.94l119.92-19.47c-5.42,.19-10.84,.3-16.24,.28Z"/>
            <g class="cls-29">
              <path class="cls-39" d="M246.3,188c-.02,.49-.65,.65-1.4,.36-.75-.29-1.33-.92-1.31-1.41,.02-.49,.64-.65,1.39-.37,.75,.29,1.34,.92,1.32,1.41Z"/>
              <path class="cls-39" d="M267.9,182.06c-.03,.51-.71,.69-1.51,.39-.8-.29-1.43-.94-1.4-1.45,.03-.51,.7-.69,1.5-.4,.81,.29,1.44,.94,1.41,1.45Z"/>
              <path class="cls-39" d="M266.36,210.02c-.03,.5-.7,.64-1.49,.32-.79-.32-1.41-.99-1.39-1.49,.03-.5,.69-.64,1.48-.32,.8,.32,1.42,.99,1.39,1.49Z"/>
              <path class="cls-39" d="M289.28,204.75c-.03,.52-.76,.67-1.61,.34-.85-.33-1.52-1.02-1.49-1.54,.03-.52,.75-.67,1.61-.35,.86,.33,1.53,1.02,1.49,1.54Z"/>
              <path class="cls-39" d="M239.14,162.39l-.98,22.59-.21,.08,.19,.24-.93,21.44,57.63,24.33,3.21-48.19-58.91-20.49Zm29.56,12.18l11.13,14.53-13.09,5.21,.46-8.47-1.7-.63-.44,8.22-10.7-13.23,14.34-5.63Zm-15.33,4.4l-11.87-14.69,26.02,9.1-14.15,5.59Zm16.62-4.73l25.12,8.78-14.08,5.61-11.04-14.39Zm-2.52,21.48l13.37-5.29,13.05,17.03-13.87,4.49-12.1-14.97,14.73,5.69,.07-1.09-15.25-5.87Zm-2.98-1.15l-15.2-5.85-.05,1.04,14.68,5.67-12.19,4.86-11.77-14.44,13.29-5.21,11.24,13.93Zm.39,2.17l-.52,9.54,1.68,.68,.54-9.8,12.24,15.18-13.67,4.43-12.41-15.24,12.14-4.8Zm-1.04,20.18l-24.23-10.19,12.07-4.77,12.16,14.96Zm16.05-3.26l12.21,15.14-25.71-10.81,13.49-4.33Zm1.2-.39l13.31-4.28-1.26,19.19-12.05-14.91Zm.96-23.32l13.98-5.52-1.44,21.86-12.54-16.33Zm-41.44-24.99l11.65,14.44-12.5,4.94,.86-19.38Zm10.05,35.75l-11.84,4.71,.81-18.28,11.03,13.57Z"/>
            </g>
            <g class="cls-29">
              <path class="cls-39" d="M332.55,219.38c-.02,.49-.65,.65-1.4,.36-.75-.29-1.33-.92-1.31-1.41,.02-.49,.64-.65,1.39-.37,.75,.29,1.34,.92,1.32,1.41Z"/>
              <path class="cls-39" d="M354.16,213.43c-.03,.51-.71,.69-1.51,.39-.8-.29-1.43-.94-1.4-1.45,.03-.51,.7-.69,1.5-.4,.81,.29,1.44,.94,1.41,1.45Z"/>
              <path class="cls-39" d="M352.62,241.4c-.03,.5-.7,.64-1.49,.32-.79-.32-1.41-.99-1.39-1.49,.03-.5,.69-.64,1.48-.32,.8,.32,1.42,.99,1.39,1.49Z"/>
              <path class="cls-39" d="M375.53,236.12c-.03,.52-.76,.67-1.61,.34-.85-.33-1.52-1.02-1.49-1.54,.03-.52,.75-.67,1.61-.35,.86,.33,1.53,1.02,1.49,1.54Z"/>
              <path class="cls-39" d="M325.4,193.76l-.98,22.59-.21,.08,.19,.24-.93,21.44,57.63,24.33,3.21-48.19-58.91-20.49Zm29.56,12.18l11.13,14.53-13.09,5.21,.46-8.47-1.7-.63-.44,8.22-10.7-13.23,14.34-5.63Zm-15.33,4.4l-11.87-14.69,26.02,9.1-14.15,5.59Zm16.62-4.73l25.12,8.78-14.08,5.61-11.04-14.39Zm-2.52,21.48l13.37-5.29,13.05,17.03-13.86,4.49-12.1-14.97,14.73,5.69,.07-1.09-15.25-5.87Zm-2.98-1.15l-15.2-5.85-.05,1.04,14.68,5.67-12.19,4.86-11.77-14.44,13.29-5.21,11.24,13.93Zm.39,2.17l-.52,9.54,1.68,.68,.54-9.8,12.24,15.18-13.67,4.43-12.41-15.24,12.14-4.8Zm-1.04,20.18l-24.23-10.19,12.07-4.77,12.16,14.96Zm16.05-3.26l12.21,15.14-25.71-10.81,13.49-4.33Zm1.2-.39l13.31-4.28-1.26,19.19-12.05-14.91Zm.96-23.32l13.98-5.52-1.44,21.86-12.54-16.33Zm-41.44-24.99l11.65,14.44-12.5,4.94,.86-19.38Zm10.05,35.75l-11.84,4.71,.81-18.28,11.03,13.57Z"/>
            </g>
            <g class="cls-38">
              <g>
                <g class="cls-12">
                  <rect class="cls-1" x="393.05" y="222.75" width="205.29" height=".8" transform="translate(-25.24 67.79) rotate(-7.63)"/>
                </g>
                <g class="cls-12">
                  <rect class="cls-1" x="393.05" y="235.47" width="205.29" height=".8" transform="translate(-26.93 67.91) rotate(-7.63)"/>
                </g>
                <g class="cls-12">
                  <polygon class="cls-1" points="394.17 263.67 394.05 262.88 597.24 233.51 597.35 234.3 394.17 263.67"/>
                </g>
                <g class="cls-12">
                  <rect class="cls-1" x="393.05" y="210.03" width="205.3" height=".8" transform="translate(-21.25 59.55) rotate(-6.73)"/>
                </g>
              </g>
            </g>
            <path class="cls-39" d="M443.13,216.37s22.89,33.92,17.81,76.31l11.02-9.33,8.48,8.48s.85-57.66-14.41-77.16l-22.89,1.7Z"/>
            <path class="cls-7" d="M232.72,153.28s168.02,53.76,168.02,56.31-11.02,20.35-8.48,37.31l-161.1-63.59,1.56-30.02Z"/>
          </g>
          <g>
            <rect class="cls-32" x="273.09" y="150.03" width="305.66" height="48.82"/>
            <rect class="cls-14" x="273.09" y="188.39" width="305.66" height="10.46"/>
            <rect class="cls-7" x="273.09" y="150.03" width="305.66" height="18.01"/>
            <rect class="cls-2" x="289.66" y="150.03" width="26.87" height="48.82"/>
            <rect class="cls-2" x="335.71" y="150.03" width="4.56" height="48.82"/>
            <rect class="cls-2" x="359.45" y="150.03" width="152.94" height="48.82"/>
            <rect class="cls-2" x="531.58" y="150.03" width="18.97" height="48.82"/>
            <polygon class="cls-32" points="273.09 150.03 270.84 111.73 551.72 109.48 578.76 150.03 273.09 150.03"/>
          </g>
          <g>
            <g>
              <polygon class="cls-20" points="287.36 85.44 287.36 129 481.12 150.03 554.72 126.75 544.96 122.99 545.71 87.7 553.22 84.69 372.23 68.17 287.36 85.44"/>
              <polygon class="cls-6" points="549.45 86 480.37 104.97 480.37 141.02 480.37 145.52 548.49 123.94 549.45 86"/>
              <g>
                <rect class="cls-39" x="379.59" y="17.83" width="1.6" height="172.38" transform="translate(234 470.2) rotate(-83.5)"/>
                <rect class="cls-39" x="378.74" y="28.01" width="1.6" height="172.38" transform="translate(223.14 478.38) rotate(-83.5)"/>
                <rect class="cls-39" x="378.74" y="38.18" width="1.6" height="172.38" transform="translate(213.03 487.4) rotate(-83.5)"/>
                <rect class="cls-39" x="378.74" y="47.51" width="1.6" height="172.38" transform="translate(203.76 495.68) rotate(-83.5)"/>
              </g>
              <g class="cls-28">
                <g class="cls-33">
                  <polygon class="cls-1" points="476.44 111.3 476.23 110.52 559.05 88.27 559.26 89.04 476.44 111.3"/>
                </g>
                <g class="cls-33">
                  <polygon class="cls-1" points="477.29 121.47 477.08 120.7 559.9 98.45 560.11 99.22 477.29 121.47"/>
                </g>
                <g class="cls-33">
                  <polygon class="cls-1" points="477.43 130.48 477.22 129.71 560.04 107.45 560.24 108.22 477.43 130.48"/>
                </g>
                <g class="cls-33">
                  <polygon class="cls-1" points="478.27 139.8 478.07 139.03 560.88 116.78 561.09 117.55 478.27 139.8"/>
                </g>
              </g>
              <polygon class="cls-19" points="287.36 129 481.12 150.03 480.44 132.43 287.97 112.93 287.36 129"/>
              <polygon class="cls-7" points="287.36 85.44 480.37 104.97 480.44 115.47 287.97 98.51 287.36 85.44"/>
            </g>
            <path class="cls-3" d="M480.37,104.97v40.55l61.11-19.88s-60.33,18-61.11-20.67Z"/>
          </g>
          <g>
            <path class="cls-40" d="M259.46,38.44s-8.86,18.08-1.11,35.43l160.91,30.63,136.18-21.77-10.33-1.85,1.85-35.43,8.12-1.85-160.17-26.57s-129.91,14.02-135.44,21.41Z"/>
            <g class="cls-42">
              <path class="cls-6" d="M426.86,66.85s-12.18,16.98-2.58,34.32l122.53-20.3,1.85-35.43-121.79,21.41Z"/>
              <path class="cls-3" d="M489.29,90.34c-13.92-.26-28.99-.65-42.5-4.28-8.8-2.37-16.27-7.04-23.66-11.99-2.56,6.56-4.58,16.77,1.14,27.11l65.37-10.83c-.12,0-.24,0-.36,0Z"/>
              <g class="cls-31">
                <rect class="cls-1" x="412.5" y="61.65" width="148.59" height=".8" transform="translate(-3.65 78.76) rotate(-9.22)"/>
              </g>
              <g class="cls-31">
                <rect class="cls-1" x="412.5" y="70.13" width="148.59" height=".8" transform="translate(-5.01 78.87) rotate(-9.22)"/>
              </g>
              <g class="cls-31">
                <rect class="cls-1" x="412.5" y="78.61" width="148.59" height=".8" transform="translate(-6.37 78.98) rotate(-9.22)"/>
              </g>
              <g class="cls-31">
                <rect class="cls-1" x="412.5" y="85.39" width="148.59" height=".8" transform="translate(-7.46 79.07) rotate(-9.22)"/>
              </g>
            </g>
            <g>
              <path class="cls-39" d="M424.08,37.2c7.8,1.32,8.83,3.24,2.3,4.29-6.53,1.06-18.17,.85-25.98-.47-7.82-1.32-8.85-3.24-2.31-4.3,6.54-1.06,18.18-.85,25.99,.47Z"/>
              <path class="cls-39" d="M390.79,36.39c-3.35,.15-7.22,.1-10.85-.14-1.82-.12-3.61-.29-5.06-.52-3.8-.62-4.46-1.52-6.1-2.31-3.36-1.64-12.23-3.1-22.15-3.65,8.45-.16,17.86-.28,25.88,.59,8.67,.94,12.51,2.68,16.63,4.22,1.55,.58,3.25,1.15,4.77,1.73l-3.12,.09Z"/>
              <path class="cls-39" d="M431.24,42.26c3.34-.15,7.19-.1,10.81,.14,1.81,.12,3.59,.29,5.03,.52,3.78,.62,4.44,1.51,6.07,2.31,3.34,1.63,12.15,3.08,21.99,3.63-8.38,.16-17.72,.29-25.69-.57-8.63-.93-12.46-2.67-16.55-4.2-1.55-.58-3.24-1.15-4.76-1.73l3.11-.09Z"/>
              <path class="cls-39" d="M406.62,35.25c-3.49-.32-6.55-.8-8.59-1.37-1.02-.28-1.81-.59-2.01-.9-.54-.8,2.8-1.39,4.87-2.04,4.26-1.33,3.09-3.21-2.93-4.7,7.85,.92,16.34,1.97,19.36,3.41,3.27,1.56-1.01,3.01-4.19,4.37-1.2,.51-2.25,1.04-3.47,1.55l-3.04-.32Z"/>
              <path class="cls-39" d="M415.44,43.41c3.48,.31,6.54,.8,8.58,1.37,1.02,.28,1.8,.59,2.01,.9,.54,.8-2.79,1.39-4.86,2.04-4.26,1.33-3.09,3.21,2.92,4.7-7.84-.91-16.33-1.95-19.35-3.4-3.27-1.56,1.01-3.01,4.19-4.37,1.2-.51,2.25-1.04,3.47-1.55l3.04,.32Z"/>
              <path class="cls-39" d="M422.7,36.18c-1.95-.57-2.84-1.22-2.51-1.81,.16-.29,.64-.58,1.63-.8,2.59-.58,7.86-.62,12.22-.82,8.94-.42,15.09-1.78,15.36-3.39,3.59,1.43,7.25,3.01,4.44,4.27-3.03,1.37-12.43,1.86-20.52,2.42-3.05,.21-6.02,.45-9.09,.65l-1.53-.53Z"/>
              <path class="cls-39" d="M399.35,42.47c1.95,.57,2.85,1.22,2.52,1.81-.16,.29-.64,.58-1.63,.8-2.59,.59-7.87,.62-12.24,.83-8.98,.43-15.15,1.79-15.42,3.4-3.61-1.43-7.29-3.01-4.47-4.28,3.05-1.38,12.49-1.87,20.61-2.43,3.06-.21,6.04-.45,9.11-.65l1.53,.53Z"/>
              <path class="cls-39" d="M434.95,39.16c1.04-.54,3.25-.99,6.21-1.25,1.48-.13,3.17-.22,5-.21,4.78,.02,9.23,.67,13.72,1.11,9.22,.91,20.43,.97,28,.17-3.58,1.19-7.82,2.47-15.89,2.78-8.74,.33-18.66-.59-27.81-1.32-3.45-.27-6.95-.53-10.4-.8l1.18-.47Z"/>
              <path class="cls-39" d="M387.07,39.49c-1.04,.54-3.26,.99-6.23,1.26-1.49,.13-3.19,.22-5.02,.21-4.81-.02-9.28-.67-13.8-1.11-9.29-.91-20.6-.98-28.25-.17,3.61-1.2,7.9-2.48,16.05-2.79,8.81-.33,18.8,.6,28,1.33,3.47,.28,6.98,.53,10.44,.81l-1.18,.47Z"/>
            </g>
            <path class="cls-39" d="M278.76,41.92s-10.83,21.26,.8,36.1l13.64,2.41s-7.22-25.27,3.21-36.1l-17.65-2.41Z"/>
            <path class="cls-39" d="M374.63,60.53s-10.83,21.26,.8,36.1l13.64,2.41s-7.22-25.27,3.21-36.1l-17.65-2.41Z"/>
            <path class="cls-7" d="M259.46,38.44l167.4,28.42s-6.6,10.14-7.21,18.07l-164.71-29.89s1.1-13.68,4.52-16.6Z"/>
            <g class="cls-31">
              <rect class="cls-18" x="342.7" y="-23.04" width="1.6" height="150.69" transform="translate(232.09 381.42) rotate(-79.95)"/>
            </g>
            <path class="cls-5" d="M418.51,98.66c-.39-1.44-.72-2.89-.99-4.33l-161.97-27.1,2.8,6.63,160.91,30.63c-.99-1.88-1.02-4.03-.75-5.84Z"/>
            <path class="cls-7" d="M281.17,32.46s62.14-10.73,113.73-15.43l94.9,15.43h-208.63Z"/>
          </g>
        </g>
      </g>
    </g>
  </g>
</svg>