<?xml version="1.0" encoding="UTF-8"?>
<svg id="Layer_2" data-name="Layer 2" xmlns="http://www.w3.org/2000/svg" viewBox="0 0 202.82 28.28">
  <defs>
    <style>
      .cls-1 {
        fill: #f47878;
      }
    </style>
  </defs>
  <g id="Layer_1-2" data-name="Layer 1">
    <g>
      <path class="cls-1" d="m21.36,13.73c-.17-.07-.36-.12-.53-.18,1.09-.58,1.97-1.31,2.61-2.22.74-1.05,1.11-2.27,1.11-3.67,0-2.12-.88-3.84-2.64-5.15-1.76-1.31-4.43-1.96-8-1.96H0v27.19h14.68c3.65,0,6.43-.65,8.33-1.96,1.9-1.31,2.85-3.14,2.85-5.5,0-1.58-.4-2.92-1.18-4.02-.79-1.1-1.9-1.94-3.32-2.52Zm-8.47-7.63c1.29,0,2.27.21,2.91.64.65.43.97,1.08.97,1.96s-.32,1.54-.97,1.98c-.65.44-1.62.66-2.91.66h-5.28v-5.24h5.28Zm4.18,15.4c-.69.45-1.69.68-3.01.68h-6.45v-5.52h6.45c1.32,0,2.32.23,3.01.68s1.03,1.15,1.03,2.08-.34,1.63-1.03,2.08Z"/>
      <path class="cls-1" d="m54.38,4.02c-1.35-1.28-2.93-2.27-4.76-2.97-1.83-.7-3.84-1.05-6.04-1.05s-4.18.35-6.02,1.05c-1.84.7-3.44,1.69-4.8,2.97s-2.41,2.78-3.17,4.49-1.13,3.59-1.13,5.63.38,3.92,1.13,5.63,1.81,3.2,3.17,4.49,2.96,2.27,4.8,2.97c1.84.7,3.85,1.05,6.02,1.05s4.21-.35,6.04-1.05,3.41-1.68,4.76-2.95c1.35-1.27,2.4-2.76,3.17-4.49.76-1.72,1.15-3.61,1.15-5.65s-.38-3.92-1.15-5.63c-.76-1.71-1.82-3.2-3.17-4.49Zm-4.02,13.3c-.38.96-.89,1.78-1.55,2.47-.66.69-1.44,1.21-2.33,1.57-.89.36-1.86.54-2.89.54s-2-.18-2.89-.54c-.89-.36-1.67-.89-2.33-1.57-.66-.69-1.18-1.51-1.55-2.47-.38-.96-.56-2.02-.56-3.19s.19-2.26.56-3.2c.38-.95.89-1.76,1.55-2.45.66-.69,1.44-1.21,2.33-1.57.89-.36,1.86-.54,2.89-.54s2,.18,2.89.54c.89.36,1.67.89,2.33,1.57.66.69,1.18,1.5,1.55,2.45.38.95.56,2.01.56,3.2s-.19,2.23-.56,3.19Z"/>
      <path class="cls-1" d="m87.24,4.02c-1.35-1.28-2.93-2.27-4.76-2.97-1.83-.7-3.84-1.05-6.04-1.05s-4.18.35-6.02,1.05c-1.84.7-3.44,1.69-4.8,2.97s-2.41,2.78-3.17,4.49-1.13,3.59-1.13,5.63.38,3.92,1.13,5.63,1.81,3.2,3.17,4.49,2.96,2.27,4.8,2.97c1.84.7,3.85,1.05,6.02,1.05s4.21-.35,6.04-1.05,3.41-1.68,4.76-2.95c1.35-1.27,2.4-2.76,3.17-4.49.76-1.72,1.15-3.61,1.15-5.65s-.38-3.92-1.15-5.63c-.76-1.71-1.82-3.2-3.17-4.49Zm-4.02,13.3c-.38.96-.89,1.78-1.55,2.47-.66.69-1.44,1.21-2.33,1.57-.89.36-1.86.54-2.89.54s-2-.18-2.89-.54c-.89-.36-1.67-.89-2.33-1.57-.66-.69-1.18-1.51-1.55-2.47-.38-.96-.56-2.02-.56-3.19s.19-2.26.56-3.2c.38-.95.89-1.76,1.55-2.45.66-.69,1.44-1.21,2.33-1.57.89-.36,1.86-.54,2.89-.54s2,.18,2.89.54c.89.36,1.67.89,2.33,1.57.66.69,1.18,1.5,1.55,2.45.38.95.56,2.01.56,3.2s-.19,2.23-.56,3.19Z"/>
      <polygon class="cls-1" points="122.19 .54 113.72 .54 103.2 11.84 103.2 .54 95.59 .54 95.59 27.73 103.2 27.73 103.2 20.92 106.05 17.86 113.84 27.73 122.77 27.73 111.09 12.57 122.19 .54"/>
      <polygon class="cls-1" points="130.04 15.57 143.67 15.57 143.67 12.27 130.04 12.27 130.04 3.92 145.34 3.92 145.34 .54 126.15 .54 126.15 27.73 145.88 27.73 145.88 24.35 130.04 24.35 130.04 15.57"/>
      <path class="cls-1" d="m168.88,18.33c1.68-.75,2.98-1.83,3.88-3.24.91-1.41,1.36-3.1,1.36-5.07s-.45-3.66-1.36-5.09c-.91-1.42-2.2-2.51-3.88-3.26-1.68-.75-3.72-1.13-6.1-1.13h-10.6v27.19h3.88v-8.27h6.72c.6,0,1.17-.02,1.73-.07l5.85,8.34h4.23l-6.46-9.12c.25-.09.51-.17.75-.28Zm-6.21-2.17h-6.6V3.92h6.6c2.49,0,4.37.53,5.65,1.59,1.28,1.06,1.92,2.56,1.92,4.51s-.64,3.45-1.92,4.52c-1.28,1.08-3.17,1.61-5.65,1.61Z"/>
      <path class="cls-1" d="m202.82,27.73l-6.46-9.12c.25-.09.51-.17.75-.28,1.68-.75,2.98-1.83,3.88-3.24.91-1.41,1.36-3.1,1.36-5.07s-.45-3.66-1.36-5.09c-.91-1.42-2.2-2.51-3.88-3.26-1.68-.75-3.72-1.13-6.1-1.13h-10.6v27.19h3.88v-8.27h6.72c.6,0,1.17-.02,1.73-.07l5.85,8.34h4.23Zm-11.92-11.57h-6.6V3.92h6.6c2.49,0,4.37.53,5.65,1.59,1.28,1.06,1.92,2.56,1.92,4.51s-.64,3.45-1.92,4.52c-1.28,1.08-3.17,1.61-5.65,1.61Z"/>
    </g>
  </g>
</svg>