<?xml version="1.0" encoding="UTF-8"?>
<svg id="Layer_2" data-name="Layer 2" xmlns="http://www.w3.org/2000/svg" viewBox="0 0 47.41 41.7">
  <defs>
    <style>
      .cls-1 {
        fill: #f47878;
      }
    </style>
  </defs>
  <g id="Layer_1-2" data-name="Layer 1">
    <g>
      <path class="cls-1" d="m34.17,33.41c-.19-.02-.39-.05-.58-.05-3.71,0-7.42,0-11.13,0-.07,0-.14,0-.21,0-.03,0-.06,0-.1,0-.03,0-.06,0-.09,0-.11,0-.22-.01-.33-.02-.05-.07-.08-.21-.14-.21-.47-.07-.95-.1-1.41.04-.07.02-.11.11-.16.17-1.02,0-2.04.01-3.06,0-1.82-.03-3.39-1.31-3.88-3.03-.31-1.11-.18-2.18.39-3.19.13-.23.24-.47.35-.7.12-.26-.01-.5-.08-.73-.36-1.3-.74-2.6-1.11-3.9-.29-1.02-.59-2.04-.88-3.06-.42-1.45-.83-2.9-1.24-4.34-.52-1.8-1.03-3.6-1.54-5.4-.43-1.52-.86-3.05-1.29-4.57-.15-.54-.31-1.08-.48-1.65-.24,0-.51,0-.78,0-1.69,0-3.38.01-5.07.01-.53,0-1.04-.36-1.25-.91C-.1,1.36,0,.86.38.45.66.13,1.03,0,1.45,0c2.2,0,4.4,0,6.6,0,.51,0,1.02.1,1.3.58.16.27.24.6.33.91.27.95.53,1.9.8,2.84.1.36.21.72.31,1.08.03.12.08.16.21.16.41,0,.82,0,1.23,0,10.9,0,21.81,0,32.71,0,.46,0,.92,0,1.38.04.64.06,1.14.67,1.07,1.25-.06.47-.18.94-.3,1.4-.35,1.27-.71,2.54-1.07,3.81-.26.92-.53,1.85-.79,2.77-.42,1.46-.83,2.92-1.25,4.38-.33,1.14-.66,2.28-.98,3.42-.37,1.3-.74,2.61-1.11,3.92-.15.54-.38,1-.97,1.17-.19.06-.4.07-.61.07-7.15,0-14.3,0-21.45,0-.81,0-1.62,0-2.43,0-.14,0-.23.04-.29.17-.11.25-.24.5-.36.75-.25.53-.06.99.27,1.4.26.32.62.49,1.04.48.27,0,.54,0,.81,0,7.32,0,14.64,0,21.96,0,.36,0,.72.02,1.06.09.51.11.78.5.9.98.18.71-.31,1.45-.92,1.63-.12.04-.25.07-.38.07-1.39,0-2.78,0-4.17,0-.01-.2-.2-.17-.29-.16-.12,0-.23.1-.34.16,0,.02.01.04.02.05-.06-.01-.12-.03-.18-.04,0-.03,0-.06,0-.09.05-.23-.15-.17-.24-.18-.22-.03-.44-.02-.66,0-.21,0-.44-.02-.46.3,0,.01-.04.02-.06.03Z"/>
      <path class="cls-1" d="m35.59,33.36c.06.01.12.03.18.04,0-.02-.01-.04-.02-.05.11-.06.23-.15.34-.16.1,0,.28-.04.29.16h-.45s-.02.06-.03.08c.15.07.3.14.46.19.93.3,1.6.9,2.1,1.71.44.72.68,1.5.64,2.34-.08,1.86-1.33,3.46-3.18,3.89-1.62.37-2.98-.09-4.09-1.26-.6-.63-.91-1.42-1.02-2.3-.07-.59-.06-1.16.15-1.71.16-.42.37-.83.61-1.21.46-.71,1.13-1.17,1.91-1.47.22-.08.45-.15.67-.22.02,0,.06-.02.06-.03.02-.31.26-.29.46-.3.22-.01.44-.02.66,0,.08.01.29-.05.24.18-.39,0-.77-.01-1.16.05.15.03.3,0,.45,0,.24,0,.47.03.71.04Z"/>
      <path class="cls-1" d="m20.03,33.35c.05-.06.1-.15.16-.17.47-.15.94-.12,1.41-.04.06,0,.09.14.14.21-.01.03-.02.05-.04.08.12.02.24.04.36.06.53.18,1.05.4,1.48.77.81.7,1.34,1.57,1.49,2.65.16,1.12-.05,2.16-.72,3.07-.6.82-1.42,1.35-2.42,1.58-.29.06-.58.13-.87.13-1.21,0-2.26-.41-3.08-1.32-.84-.93-1.28-2.01-1.15-3.26.11-1.03.57-1.91,1.34-2.64.52-.5,1.15-.78,1.83-.97.1-.03.2-.06.3-.09.02.01.04.04.05.04.32-.06.64-.12.97-.17,0-.01,0-.03,0-.04-.34.05-.68.09-1.02.14h-.23Z"/>
      <path class="cls-1" d="m20.26,33.37c.34-.05.68-.09,1.02-.14,0,.01,0,.03,0,.04-.32.06-.64.12-.97.17-.01,0-.03-.03-.05-.04,0-.01,0-.03,0-.04Z"/>
      <path class="cls-1" d="m22.07,33.5c-.12-.02-.24-.04-.36-.06.01-.03.02-.05.04-.08.11,0,.22.01.33.02,0,.04,0,.09,0,.13Z"/>
      <path class="cls-1" d="m22.16,33.37s.06,0,.1,0c-.02.02-.03.04-.05.06-.02-.02-.03-.04-.05-.06Z"/>
      <path class="cls-1" d="m35.59,33.36c-.24-.02-.47-.04-.71-.04-.15,0-.3.03-.45,0,.38-.06.77-.06,1.16-.05,0,.03,0,.06,0,.09Z"/>
    </g>
  </g>
</svg>