<?xml version="1.0" encoding="UTF-8"?>
<svg id="Layer_2" data-name="Layer 2" xmlns="http://www.w3.org/2000/svg" viewBox="0 0 80.64 66.43">
  <defs>
    <style>
      .cls-1 {
        fill: #f47878;
      }
    </style>
  </defs>
  <g id="Layer_1-2" data-name="Layer 1">
    <g>
      <path class="cls-1" d="m40.3,53.5c-2.93.04-5.72-.57-8.42-1.68-.31-.13-.57-.16-.9.03-1.68.97-3.37,1.91-5.08,2.83-.44.23-.94.4-1.43.45-.81.07-1.55-.69-1.51-1.52.04-.7.16-1.41.3-2.1.32-1.52.68-3.03,1.02-4.54.02-.11,0-.28-.08-.36-1.35-1.54-2.55-3.18-3.49-4.99-.75-1.46-1.35-2.99-1.67-4.59-.29-1.43-.43-2.89-.65-4.34-.2-1.32-.04-2.63.19-3.92.27-1.47.53-2.96.98-4.38.86-2.72,2.39-5.09,4.24-7.27,1.31-1.54,2.86-2.79,4.53-3.89,1.9-1.26,4-2.1,6.21-2.67,1.53-.4,3.05-.74,4.65-.7,1.07.02,2.15-.06,3.21.03,1.11.09,2.22.29,3.3.53,1.56.36,3.06.88,4.5,1.6,1.91.95,3.68,2.12,5.22,3.61,2.63,2.55,4.64,5.5,5.71,9.02.4,1.33.68,2.7.97,4.06.1.48.07.99.1,1.48.03.61.12,1.24.08,1.84-.1,1.24-.27,2.48-.43,3.72-.19,1.52-.69,2.97-1.23,4.39-.63,1.68-1.55,3.22-2.61,4.66-1.33,1.8-2.95,3.32-4.77,4.63-1.78,1.28-3.73,2.26-5.83,2.91-1.64.51-3.29.92-5.01,1.03-.69.04-1.38.09-2.07.13Zm-11.16-25.98c-2.3-.12-4.05,1.95-4.15,3.87-.13,2.32,1.89,4.46,4.19,4.41,1.89-.04,4.28-1.8,4.12-4.31-.13-2.02-1.85-4.13-4.16-3.97Zm26.44,4.08c.14-2.35-1.91-3.99-3.92-4.09-2.37-.12-4.38,1.93-4.37,4.04,0,2.3,2.03,4.25,4.21,4.24,2.34-.01,4.19-1.9,4.09-4.19Zm-11.15.02c.09-2.28-1.89-4.06-4.03-4.09-2.39-.03-4.26,1.73-4.26,4.1,0,2.13,1.79,4.24,4.35,4.16,2.14-.07,3.95-1.73,3.93-4.16Z"/>
      <path class="cls-1" d="m47.86,62.39c-.04.51-.06,1.02-.13,1.52-.21,1.42-1.47,2.47-2.82,2.49-3.09.04-6.18.03-9.27,0-1.4-.01-2.8-1.5-2.8-2.75,0-.64-.09-1.29-.08-1.93.02-1.21.5-2.22,1.57-2.84.42-.24.94-.42,1.42-.43,1.93-.05,3.86.02,5.79-.03,1.16-.03,2.32-.22,3.48-.33,2.06-.21,3.97-.92,5.85-1.72,2.21-.94,4.3-2.11,6.19-3.62,1.54-1.23,2.96-2.58,4.18-4.11.94-1.17,1.77-2.45,2.52-3.75.7-1.23,1.3-2.53,1.8-3.85.29-.77.32-1.64.45-2.46.11-.69.19-1.38.29-2.06.11-.71.22-1.43.34-2.14.16-1,.38-1.98.48-2.99.08-.78.1-1.57.03-2.35-.09-1.06-.24-2.13-.45-3.18-.17-.89-.39-1.78-.72-2.62-.61-1.57-1.23-3.14-2.02-4.62-.73-1.35-1.63-2.62-2.57-3.85-1.41-1.84-3.1-3.42-4.99-4.77-2.23-1.59-4.62-2.89-7.2-3.8-1.58-.56-3.2-.94-4.87-1.17-1.93-.26-3.86-.29-5.79-.24-.93.02-1.85.22-2.78.31-1.8.18-3.51.75-5.17,1.4-2.05.79-4.02,1.79-5.82,3.07-1.69,1.2-3.27,2.54-4.62,4.1-1.05,1.21-2.02,2.5-2.88,3.85-1.22,1.94-2.19,4.02-2.81,6.23-.36,1.3-.61,2.63-.87,3.95-.14.71-.3,1.44-.25,2.15.07,1.12.3,2.23.46,3.35.11.73.21,1.46.32,2.19.15,1.01.32,2.02.48,3.03.14.96.27,1.92.42,2.88.14.96.32,1.91.42,2.87.1,1.02.44,2.03.13,3.09-.25.86-.82,1.41-1.59,1.7-1.6.6-3.24,1.01-4.97.94-1.27-.05-2.38-.51-3.37-1.25-1.45-1.09-2.53-2.51-3.46-4.07-1.07-1.81-1.66-3.77-1.93-5.81-.22-1.64-.31-3.33-.17-4.97.16-2.03.69-4.01,1.69-5.82.68-1.22,1.57-2.28,2.63-3.21,1.1-.97,2.36-1.57,3.76-1.92.46-.11.96-.08,1.44-.15.12-.02.29-.12.33-.23.43-1.14.79-2.3,1.25-3.43.79-1.93,1.8-3.75,3.03-5.43.89-1.21,1.88-2.36,2.87-3.49,1.6-1.84,3.43-3.41,5.48-4.73,2.55-1.63,5.18-3.1,8.12-3.92,1.65-.46,3.34-.82,5.02-1.13,1-.19,2.04-.2,3.06-.28.54-.04,1.09-.09,1.64-.08,1.6.03,3.18.17,4.76.41,2.15.33,4.25.86,6.29,1.58,1.95.68,3.8,1.61,5.56,2.71,2.4,1.5,4.6,3.24,6.53,5.31,1.52,1.63,2.79,3.45,3.99,5.33,1.31,2.05,2.2,4.29,3.02,6.56.02.05.02.12.04.17.23.73.33.77,1.12.84.7.06,1.41.18,2.1.34,1.42.34,2.54,1.19,3.47,2.27,1.55,1.79,2.42,3.92,2.9,6.2.19.92.27,1.87.36,2.8.06.63.12,1.26.08,1.89-.13,1.95-.43,3.86-1.07,5.73-.61,1.78-1.5,3.4-2.72,4.82-1.08,1.26-2.34,2.3-3.99,2.77-1.27.36-2.52.34-3.77-.03-.69-.2-1.37-.41-2.07-.59-.1-.03-.29.1-.37.2-.91,1.14-1.75,2.33-2.72,3.42-1.81,2.04-3.88,3.81-6.17,5.29-2.13,1.38-4.36,2.56-6.8,3.34-1.04.33-2.06.69-3.08,1.03Z"/>
    </g>
  </g>
</svg>