<?xml version="1.0" encoding="UTF-8"?>
<svg id="Layer_2" data-name="Layer 2" xmlns="http://www.w3.org/2000/svg" viewBox="0 0 64.57 64.61">
  <defs>
    <style>
      .cls-1 {
        fill: #f47878;
      }
    </style>
  </defs>
  <g id="Layer_1-2" data-name="Layer 1">
    <g>
      <path class="cls-1" d="m33.74,64.58c-8.69.35-16.73-2.51-23.47-8.78C4.72,50.65,1.36,44.27.33,36.75c-1.39-10.19,1.57-19.08,8.5-26.59C13.72,4.87,19.83,1.61,26.95.46c9.06-1.46,17.41.5,24.73,6.05,7.13,5.41,11.45,12.62,12.59,21.54,1.18,9.21-1.16,17.5-7.07,24.68-5.94,7.22-13.68,11.03-23.47,11.83Zm-1.52-17.6h0c5.44,0,10.87,0,16.31,0,.42,0,.84.01,1.25-.07,1.47-.3,2.52-1.15,3.07-2.56.25-.65.29-1.35.29-2.05,0-4.68,0-9.36,0-14.03,0-2.21.02-4.42-.02-6.62,0-.55-.12-1.15-.35-1.64-.73-1.57-2.02-2.37-3.74-2.41-1.74-.03-3.49,0-5.24,0-9.42,0-18.84,0-28.26.02-.51,0-1.06.11-1.52.32-1.67.76-2.54,2.07-2.54,3.95.01,5.3,0,10.6,0,15.89,0,1.76,0,3.51.02,5.27,0,1.09.46,2.01,1.23,2.77.67.66,1.45,1.16,2.41,1.17,5.7.02,11.4.01,17.1.01Z"/>
      <path class="cls-1" d="m14.89,22.75c.56.44,1.12.87,1.68,1.31,3.04,2.41,6.09,4.82,9.13,7.23,1.78,1.41,3.57,2.82,5.33,4.25.85.69,1.73.67,2.57-.01,2.05-1.66,4.11-3.3,6.17-4.94,2.32-1.85,4.64-3.69,6.96-5.54.95-.76,1.91-1.51,2.86-2.26.02-.02.05-.02.14-.04,0,.43,0,.83,0,1.23,0,6.08,0,12.17,0,18.25,0,.27-.01.54-.02.82,0,.27-.22.49-.55.56-.12.03-.25.02-.38.02-10.98,0-21.97,0-32.95,0-.57,0-.86-.15-.98-.57-.06-.25-.04-.52-.03-.78,0-.68.03-1.36.03-2.05,0-5.41,0-10.82,0-16.24,0-.39,0-.78-.01-1.17.01-.03.03-.06.04-.09Z"/>
      <path class="cls-1" d="m18.23,20.95h28.14s.03.04.05.06c-4.7,3.74-9.4,7.47-14.13,11.23-4.71-3.74-9.41-7.48-14.11-11.21.01-.03.02-.05.03-.08Z"/>
      <path class="cls-1" d="m14.89,22.75s-.03.06-.04.09c.01-.03.03-.06.04-.09Z"/>
    </g>
  </g>
</svg>