<?xml version="1.0" encoding="UTF-8"?>
<svg id="Layer_2" data-name="Layer 2" xmlns="http://www.w3.org/2000/svg" xmlns:xlink="http://www.w3.org/1999/xlink" viewBox="0 0 1925.58 1087.76">
  <defs>
    <style>
      .cls-1 {
        letter-spacing: 0em;
      }

      .cls-2 {
        letter-spacing: 0em;
      }

      .cls-3 {
        letter-spacing: -.02em;
      }

      .cls-4 {
        fill: #fff;
      }

      .cls-5 {
        letter-spacing: 0em;
      }

      .cls-6 {
        letter-spacing: 0em;
      }

      .cls-7 {
        letter-spacing: 0em;
      }

      .cls-8 {
        letter-spacing: -.05em;
      }

      .cls-9 {
        letter-spacing: 0em;
      }

      .cls-10 {
        letter-spacing: -.04em;
      }

      .cls-11 {
        fill: #f47878;
      }

      .cls-12 {
        fill: #fdd659;
      }

      .cls-13 {
        letter-spacing: 0em;
      }

      .cls-14 {
        letter-spacing: -.02em;
      }

      .cls-15 {
        letter-spacing: 0em;
      }

      .cls-16 {
        clip-path: url(#clippath);
      }

      .cls-17 {
        fill: none;
      }

      .cls-18 {
        letter-spacing: -.02em;
      }

      .cls-19 {
        letter-spacing: 0em;
      }

      .cls-20 {
        letter-spacing: -.01em;
      }

      .cls-21 {
        font-family: Montserrat-Medium, Montserrat;
        font-size: 26px;
      }

      .cls-22 {
        letter-spacing: 0em;
      }

      .cls-23 {
        letter-spacing: -.01em;
      }

      .cls-24 {
        font-family: Montserrat-Bold, Montserrat;
        font-size: 32.71px;
      }
    </style>
    <clipPath id="clippath">
      <path class="cls-17" d="M1363.66,250.12c-6.64-6.2-14.47-10.99-23.49-14.37-9.02-3.38-18.92-5.07-29.69-5.07s-20.51,1.69-29.6,5.07c-9.08,3.38-16.94,8.17-23.58,14.37-6.64,6.2-11.81,13.47-15.5,21.8-3.7,8.33-5.54,17.51-5.54,27.53s1.85,19.04,5.54,27.43c3.69,8.39,8.86,15.69,15.5,21.89,6.64,6.2,14.5,10.99,23.58,14.37,9.08,3.38,19.01,5.07,29.78,5.07s20.48-1.69,29.5-5.07c9.02-3.38,16.85-8.17,23.49-14.37,6.64-6.2,11.81-13.5,15.5-21.89,3.69-8.39,5.54-17.54,5.54-27.43s-1.85-19.2-5.54-27.53c-3.7-8.33-8.86-15.6-15.5-21.8Zm-25.93,63.14c-1.5,4.07-3.6,7.52-6.29,10.33-2.7,2.82-5.83,4.98-9.4,6.48s-7.42,2.25-11.56,2.25-7.99-.75-11.56-2.25c-3.57-1.5-6.7-3.66-9.4-6.48-2.69-2.82-4.79-6.26-6.29-10.33-1.5-4.07-2.25-8.67-2.25-13.81s.75-9.74,2.25-13.81c1.5-4.07,3.6-7.52,6.29-10.33,2.69-2.82,5.83-4.98,9.4-6.48,3.57-1.5,7.42-2.25,11.56-2.25s7.99,.75,11.56,2.25,6.7,3.66,9.4,6.48c2.69,2.82,4.79,6.27,6.29,10.33,1.5,4.07,2.26,8.68,2.26,13.81s-.75,9.74-2.26,13.81Zm155.21-46.22c-7.52-4.32-15.78-6.48-24.8-6.48s-16.98,1.88-22.74,5.64c-2.02,1.31-3.82,2.89-5.45,4.71v-8.46h-40.4v139.24h42.47v-43.51c1.25,1.19,2.6,2.26,4.04,3.2,5.82,3.82,13.18,5.73,22.08,5.73s17.29-2.13,24.8-6.39c7.52-4.26,13.53-10.36,18.04-18.32,4.51-7.95,6.76-17.44,6.76-28.47s-2.25-20.51-6.76-28.47c-4.51-7.95-10.52-14.09-18.04-18.41Zm-20.48,57.97c-1.5,3.01-3.51,5.26-6.01,6.76-2.51,1.5-5.33,2.25-8.46,2.25s-5.95-.75-8.46-2.25c-2.51-1.5-4.51-3.76-6.01-6.76-1.5-3.01-2.25-6.7-2.25-11.09s.75-8.27,2.25-11.27c1.5-3.01,3.51-5.26,6.01-6.76,2.5-1.5,5.32-2.26,8.46-2.26s5.95,.75,8.46,2.26c2.5,1.5,4.51,3.76,6.01,6.76,1.5,3.01,2.25,6.76,2.25,11.27s-.75,8.08-2.25,11.09Zm152.02-57.97c-7.52-4.32-15.78-6.48-24.8-6.48s-16.98,1.88-22.74,5.64c-2.02,1.31-3.82,2.89-5.45,4.71v-8.46h-40.4v139.24h42.47v-43.51c1.25,1.19,2.6,2.26,4.04,3.2,5.82,3.82,13.18,5.73,22.08,5.73s17.29-2.13,24.8-6.39c7.52-4.26,13.53-10.36,18.04-18.32,4.51-7.95,6.76-17.44,6.76-28.47s-2.25-20.51-6.76-28.47c-4.51-7.95-10.52-14.09-18.04-18.41Zm-20.48,57.97c-1.5,3.01-3.51,5.26-6.01,6.76-2.51,1.5-5.33,2.25-8.46,2.25s-5.95-.75-8.46-2.25c-2.51-1.5-4.51-3.76-6.01-6.76-1.5-3.01-2.25-6.7-2.25-11.09s.75-8.27,2.25-11.27c1.5-3.01,3.51-5.26,6.01-6.76,2.5-1.5,5.32-2.26,8.46-2.26s5.95,.75,8.46,2.26c2.5,1.5,4.51,3.76,6.01,6.76,1.5,3.01,2.25,6.76,2.25,11.27s-.75,8.08-2.25,11.09Zm148.82-7.23c2.13,3.82,3.2,8.68,3.2,14.56s-1.94,11.87-5.83,17.19c-3.88,5.33-9.77,9.58-17.66,12.78-7.89,3.19-17.79,4.79-29.69,4.79-8.77,0-17.41-.94-25.93-2.82-8.52-1.88-15.41-4.32-20.67-7.33l11.65-28c4.89,2.88,10.55,5.14,17.01,6.76,6.45,1.63,12.74,2.44,18.88,2.44,5.14,0,8.61-.44,10.43-1.32,1.81-.87,2.72-2.07,2.72-3.57s-1.07-2.6-3.19-3.29c-2.13-.69-4.95-1.22-8.46-1.6-3.51-.38-7.36-.85-11.56-1.41-4.2-.56-8.43-1.41-12.68-2.54-4.26-1.13-8.15-2.82-11.65-5.07-3.51-2.26-6.33-5.29-8.46-9.11-2.13-3.82-3.2-8.67-3.2-14.56,0-6.51,1.97-12.4,5.92-17.66,3.95-5.26,9.83-9.49,17.66-12.68,7.83-3.19,17.5-4.79,29.03-4.79,7.52,0,15.03,.69,22.55,2.07,7.52,1.38,13.97,3.51,19.35,6.39l-11.65,28c-5.26-2.88-10.43-4.85-15.5-5.92-5.07-1.06-9.8-1.6-14.19-1.6-5.39,0-9.05,.5-10.99,1.5-1.94,1-2.91,2.13-2.91,3.38,0,1.5,1.06,2.63,3.19,3.38,2.13,.75,4.95,1.32,8.46,1.69,3.5,.38,7.36,.85,11.56,1.41,4.2,.56,8.39,1.44,12.59,2.63,4.2,1.19,8.05,2.91,11.56,5.17,3.5,2.26,6.32,5.29,8.46,9.11Zm54.02,10.99c4.57,4.26,6.86,9.52,6.86,15.78s-2.29,11.43-6.86,15.88c-4.57,4.45-10.56,6.67-17.94,6.67s-13.22-2.22-17.85-6.67c-4.64-4.45-6.95-9.74-6.95-15.88s2.32-11.52,6.95-15.78c4.63-4.26,10.58-6.39,17.85-6.39s13.37,2.13,17.94,6.39Zm-34.86-13.91l-8.46-81.18h50.73l-8.46,81.18h-33.82Z"/>
    </clipPath>
  </defs>
  <g id="Layer_1-2" data-name="Layer 1">
    <g>
      <rect class="cls-11" x="5.58" y="7.76" width="1198.56" height="1080"/>
      <g>
        <g>
          <path class="cls-12" d="M663.67,642.17h-251.21c-19.6,0-37.16-10.14-46.96-27.11-9.8-16.98-9.8-37.25,0-54.22l125.61-217.55c9.8-16.98,27.36-27.11,46.96-27.11s37.16,10.14,46.96,27.11l125.61,217.55c9.8,16.98,9.8,37.25,0,54.22-9.8,16.98-27.36,27.11-46.96,27.11Zm-125.6-316.25c-16.08,0-30.48,8.31-38.52,22.24l-125.61,217.55c-8.04,13.92-8.04,30.55,0,44.47,8.04,13.92,22.44,22.24,38.52,22.24h251.21c16.08,0,30.48-8.31,38.52-22.24,8.04-13.92,8.04-30.55,0-44.47l-125.61-217.55c-8.04-13.92-22.44-22.24-38.51-22.24Z"/>
          <g>
            <g>
              <path class="cls-4" d="M624.47,548.89v-75.03h-19.03l-31.72,75.03v15.86h33.63v20.14h17.13v-20.14h8.25v-15.86h-8.25Zm-17.13,0h-17.61l17.61-41.72v41.72Z"/>
              <path class="cls-4" d="M513.6,558.42s0,0,0,0c.03,8.8,2.3,15.62,6.81,20.45,4.49,4.81,10.96,7.23,19.37,7.29,0,0,0,0,0,0,.1,0,.19,0,.29,0,8.57,0,15.12-2.43,19.67-7.3,4.55-4.86,6.82-11.74,6.82-20.62v-57.74c0-8.88-2.27-15.76-6.82-20.62-4.55-4.86-11.1-7.3-19.67-7.3s-15.12,2.43-19.67,7.3c-4.55,4.87-6.82,11.74-6.82,20.62v57.74c0,.06,0,.11,0,.17h0Zm17.45-59.01c0-7.3,3.01-10.94,9.04-10.94s9.04,3.65,9.04,10.94v59.96c0,7.3-3.01,10.94-9.04,10.94s-9.04-3.65-9.04-10.94v-59.96Z"/>
              <path class="cls-4" d="M494.17,584.9v-20.14h8.25v-15.86h-8.25v-75.03h-19.03l-7.6,17.98h0s-24.12,57.04-24.12,57.04v15.86h33.63v20.14h17.13Zm-34.74-36.01l17.46-41.36,.15,.24v41.12h-17.61Z"/>
            </g>
            <g>
              <path class="cls-4" d="M559.06,412.8c-3.03,0-5.34,.86-6.94,2.58-.35,.37-.65,.77-.93,1.21,0,0,.01,0,.02,.01-.99,1.59-1.5,3.6-1.5,6.06v20.38c0,3.14,.8,5.56,2.41,7.28,1.6,1.72,3.92,2.58,6.94,2.58s5.34-.86,6.94-2.58c1.6-1.72,2.41-4.14,2.41-7.28v-20.38c0-3.14-.8-5.56-2.41-7.28-1.61-1.72-3.92-2.58-6.94-2.58Zm3.19,30.63c0,2.57-1.06,3.86-3.19,3.86s-3.19-1.29-3.19-3.86v-21.17c0-.74,.1-1.36,.27-1.89h-.01c.44-1.32,1.41-1.98,2.93-1.98,2.13,0,3.19,1.29,3.19,3.86v21.17Z"/>
              <polygon class="cls-4" points="484.58 452.45 501.38 452.45 501.38 446.85 490.74 446.85 490.74 435.37 499.2 435.37 499.2 429.77 490.74 429.77 490.74 418.85 501.38 418.85 501.38 413.25 484.58 413.25 484.58 452.45"/>
              <path class="cls-4" d="M523.67,447.69v-6.05c0-2.16-.32-3.95-.95-5.35-.16-.35-.34-.67-.55-.97-.63-.9-1.49-1.57-2.58-2.02,1.85-.87,3.06-2.4,3.64-4.58,.26-.99,.39-2.12,.39-3.38v-3.08c0-3.06-.73-5.33-2.18-6.8-1.46-1.47-3.77-2.21-6.94-2.21h-9.3v39.2h6.16v-15.96h2.13c.27,0,.52,.01,.76,.04,.16,.02,.31,.04,.46,.07,.07,.02,.14,.03,.22,.05,.7,.18,1.25,.51,1.65,.99,.36,.43,.61,1.02,.77,1.78,.12,.59,.18,1.27,.18,2.06v6.16c0,1.46,.04,2.47,.11,3.02,.07,.56,.22,1.16,.45,1.79h6.27c-.3-.67-.49-1.35-.56-2.04-.07-.69-.11-1.6-.11-2.72Zm-6.22-20.94c0,.19,0,.37-.01,.54-.07,1.21-.37,2.1-.91,2.65-.62,.64-1.54,.95-2.77,.95h-2.41v-12.04h2.97c1.08,0,1.87,.32,2.38,.95,.51,.64,.76,1.66,.76,3.08v3.86Z"/>
              <path class="cls-4" d="M546.18,447.69v-6.05c0-2.16-.32-3.95-.95-5.35-.16-.35-.34-.67-.55-.97-.63-.9-1.49-1.57-2.58-2.02,1.85-.87,3.06-2.4,3.64-4.58,.26-.99,.39-2.12,.39-3.38v-3.08c0-3.06-.73-5.33-2.18-6.8-1.46-1.47-3.77-2.21-6.94-2.21h-9.3v39.2h6.16v-15.96h2.13c.27,0,.52,.01,.76,.04,.16,.02,.31,.04,.46,.07,.07,.02,.15,.03,.22,.05,.7,.18,1.25,.51,1.65,.99,.36,.43,.61,1.02,.77,1.78,.12,.59,.18,1.27,.18,2.06v6.16c0,1.46,.04,2.47,.11,3.02,.07,.56,.22,1.16,.45,1.79h6.27c-.3-.67-.49-1.35-.56-2.04-.08-.69-.11-1.6-.11-2.72Zm-6.22-20.94c0,1.49-.31,2.56-.93,3.19-.62,.64-1.54,.95-2.77,.95h-2.41v-12.04h2.97c1.08,0,1.88,.32,2.38,.95,.5,.64,.76,1.66,.76,3.08v3.86Z"/>
              <path class="cls-4" d="M590.87,447.69v-6.05c0-2.16-.32-3.95-.95-5.35-.64-1.4-1.68-2.4-3.14-3,2.69-1.27,4.03-3.92,4.03-7.95v-3.08c0-3.06-.73-5.33-2.18-6.8-1.46-1.47-3.77-2.21-6.94-2.21h-9.3v39.2h6.16v-15.96h2.13c1.42,0,2.44,.38,3.08,1.15,.19,.23,.35,.5,.48,.81,.13,.32,.24,.68,.31,1.08,0,0-.01,0-.02-.01,.11,.57,.18,1.21,.18,1.95v6.16c0,1.46,.04,2.47,.11,3.02,.08,.56,.22,1.16,.45,1.79h6.27c-.3-.67-.49-1.35-.56-2.04-.08-.69-.11-1.6-.11-2.72Zm-7.14-17.75c-.62,.64-1.54,.95-2.77,.95h-2.41v-12.04h2.97c1.08,0,1.88,.32,2.38,.95,.5,.64,.76,1.66,.76,3.08v3.86c0,1.49-.31,2.56-.92,3.19Z"/>
            </g>
          </g>
        </g>
        <g>
          <path class="cls-4" d="M447.16,0c-1.64,5.45-4,10.78-6.31,16.04l-.24,.5c-5.31,11.99-11.07,24.85-17.14,37.56-12.26,25.54-23.82,45.91-36.37,64.04-11.85,17.21-26.25,32.72-40.2,47.67-2.57,2.81-5.16,5.59-7.76,8.43-17.09,18.59-31.32,38.27-43.48,60.09-6.95,12.52-13.28,25.42-19.3,38.32-2.71,5.83-5.38,11.66-7.97,17.49-.76-1.74-2.12-3.21-4-4.09-1.93-.9-3.97-.98-5.88-.33,9.52-21.28,19.61-42.86,31.51-63.24,11.99-20.49,26.08-39.34,43.12-57.71l3.81-4.12c14.9-16.02,30.37-32.61,43.05-51.17,11.83-17.33,22.75-37.01,35.46-63.83l2.48-5.28c4.52-9.71,8.83-19.3,12.52-27.68l1.19-2.69c1.48-3.28,2.97-6.62,4.19-10h-2.9c-1.09,3-2.43,5.97-3.74,8.9l-1.24,2.71c-4.36,9.85-9.52,21.44-14.97,32.89-12.61,26.66-23.49,46.24-35.22,63.43-12.59,18.44-27.96,34.89-42.79,50.88l-3.81,4.12c-17.18,18.49-31.42,37.51-43.48,58.19-8.64,14.76-16.33,30.13-23.54,45.6-3.88,8.33-7.59,16.64-11.28,24.89l-6.95,14.97c-14.59-2.81-29.82,4.52-36.37,18.56l-10.59,22.75-22.7-10.57-19.44,41.72,14.28,6.66-8.23,17.66,13.38,6.24-18.42,39.58c-1.36,2.88-.1,6.35,2.81,7.71,2.9,1.33,6.35,.07,7.71-2.81l18.44-39.58,26.44,12.33-18.44,39.55c-1.33,2.9-.07,6.38,2.81,7.71,2.9,1.36,6.38,.1,7.71-2.81l18.44-39.55,16.18,7.54,8.23-17.68,14.26,6.66,19.44-41.74-22.7-10.59,10.59-22.75c6.54-14.04,2.38-30.39-9.14-39.77l4.43-9.5c.26-.36,.48-.74,.67-1.17l.1-.21c9.9-22.16,20.13-45.1,32.25-66.88,12.07-21.68,26.16-41.17,43.08-59.57,2.62-2.83,5.19-5.64,7.78-8.42,13.97-15.07,28.44-30.63,40.46-48,12.59-18.28,24.2-38.72,36.53-64.4,6.12-12.71,11.88-25.61,17.18-37.63l.21-.5c2.48-5.59,5-11.28,6.71-17.14h-2.86ZM166.46,453.21c-.86,1.88-3.09,2.69-4.95,1.81-1.88-.88-2.69-3.09-1.81-4.97l18.42-39.53,6.76,3.17-18.42,39.53Zm36.98,17.23c-.88,1.86-3.09,2.67-4.97,1.81-1.88-.88-2.69-3.09-1.81-4.97l18.42-39.53,6.78,3.14-18.42,39.55Zm35.49-33.91l-73.33-34.15,7.38-15.78,73.3,34.15-7.35,15.78Zm40.2-49l-17.71,37.98-12.4-5.76,.05-.07-77.06-35.91-.05,.07-12.4-5.78,17.71-37.98,101.86,47.46Zm-11.21-35.2l-10.42,22.37-56.48-26.32,10.42-22.37c6.07-13.02,20.06-19.87,33.58-17.49,.71,.1,1.36,.24,2.07,.4,1.9,.5,3.83,1.14,5.71,2.02,1.88,.88,3.62,1.93,5.24,3.09,.57,.43,1.14,.83,1.67,1.33,10.52,8.81,14.28,23.94,8.21,36.96Zm-1.45-56.36l-7.54,16.18c-1.59-1.19-3.38-2.21-5.24-3.09-1.88-.86-3.76-1.55-5.71-2l7.54-16.18c.38-.83,.95-1.52,1.59-2.07,1.74-1.48,4.26-1.9,6.43-.88,2.14,1,3.4,3.07,3.47,5.31,.02,.88-.14,1.86-.55,2.74Z"/>
          <path class="cls-4" d="M449.01,917.07l-34.27,.17-.12-22.92,34.27-.14c2.52-.02,4.57-2.07,4.55-4.59,0-2.5-2.07-4.55-4.57-4.52l-34.27,.14-.07-14.02-15.3,.07-.05-12.35-36.15,.17,.1,19.68-19.73,.09c-12.16,.05-22.37,8.47-25.18,19.8l-8.23,.02c-.33-.05-.67-.07-1.05-.07h-.17c-19.06,.4-38.77,.81-58.29-.5-19.44-1.31-38.01-4.78-56.76-10.64-2.88-.9-5.74-1.81-8.57-2.71-15.4-4.88-31.27-9.92-47.65-12.66-17.18-2.81-35.6-4.21-57.98-4.36-11.07-.1-22.16,.12-32.46,.36l-.43,.05c-3.28,.07-43.35,1.03-46.63,1.31v2.14c3.28-.31,43.37-1.29,46.68-1.36h.4c10.33-.24,21.37-.45,32.44-.4,22.25,.17,40.58,1.55,57.64,4.38,16.21,2.67,32.03,7.69,47.31,12.57,2.86,.9,5.71,1.81,8.59,2.71,18.92,5.93,37.65,9.42,57.24,10.76,11.23,.74,22.51,.93,33.68,.86,5.05-.02,10.09-.07,15.09-.17-.98,1.12-1.57,2.57-1.57,4.19s.64,3.17,1.74,4.28c-18.3,.38-37.01,.43-55.45-1.19-18.59-1.64-36.7-5.35-55.43-11.3l-4.19-1.33c-16.4-5.21-33.34-10.64-50.79-13.42-16.26-2.62-33.89-3.78-57.19-3.81h-4.59c-8.4,.05-16.66,.19-23.85,.38l-2.28,.07c-2.9,.05-42.59,.98-45.47,1.26v2.14c2.88-.31,42.56-1.26,45.49-1.31l2.33-.02c8.47-.21,18.44-.43,28.37-.4,23.18,.05,40.72,1.21,56.86,3.78,17.3,2.78,34.15,8.16,50.45,13.35l4.21,1.33c18.87,6,37.15,9.73,55.88,11.4,13.38,1.19,26.87,1.5,40.27,1.43,7.21-.02,14.35-.19,21.44-.33l12.97-.05c2.9,11.28,13.18,19.66,25.35,19.59l19.73-.1,.07,19.66,36.15-.17-.05-12.35,15.3-.07-.05-11.59,34.27-.17c2.5,0,4.55-2.07,4.52-4.57,0-2.52-2.07-4.55-4.57-4.55Zm-.14-30.39c1.62-.02,2.95,1.29,2.95,2.93s-1.31,2.93-2.93,2.93l-34.25,.17-.02-5.88,34.25-.14Zm-144.96,23.13c-.71,.02-1.4-.17-2-.43-1.62-.74-2.76-2.38-2.78-4.26,0-1.86,1.05-3.45,2.62-4.26,.62-.33,1.36-.52,2.12-.52l14.02-.07c-.31,1.55-.43,3.14-.43,4.76s.17,3.19,.48,4.74l-14.02,.05Zm39.72,19.54c-11.28,.05-20.82-7.59-23.68-17.99-.17-.52-.29-1.05-.4-1.62-.29-1.5-.45-3.09-.48-4.71,0-1.64,.17-3.24,.43-4.76,.12-.55,.24-1.09,.4-1.64,2.74-10.4,12.21-18.14,23.49-18.18l19.37-.09,.24,48.91-19.37,.09Zm21.42,19.56l-.4-88.22,32.91-.17,.05,10.76h-.07l.31,66.73h.07l.05,10.73-32.91,.17Zm34.49-12.52l-.31-63.52,13.68-.05,.29,63.5-13.66,.07Zm49.5-11.83l-34.25,.14-.02-5.85,34.25-.17c1.62,0,2.95,1.31,2.95,2.93s-1.29,2.93-2.93,2.95Z"/>
          <g>
            <path class="cls-4" d="M907.68,380.29c1.88-1.12,3.12-2.86,3.67-4.78,12.38,20.02,24.73,40.65,34.99,62.12,10.21,21.42,17.9,43.7,23.51,68.11l1.24,5.43c4.88,21.35,9.95,43.43,18.18,64.38,7.71,19.54,17.85,39.63,32.89,65.16,.98,1.71,1.98,3.4,2.97,5.05,5.47,9.19,11.04,18.14,15.87,25.89l1.55,2.5c1.95,3.14,3.93,6.35,6.14,9.35v-4.71c-1.33-2-2.59-4.05-3.83-6.07l-1.55-2.55c-5.71-9.09-12.42-19.92-18.83-30.8-14.99-25.44-25.06-45.43-32.7-64.83-8.19-20.73-13.18-42.72-18.06-63.97l-1.26-5.47c-5.64-24.61-13.42-47.05-23.7-68.64-7.38-15.45-15.83-30.44-24.56-45.08-5.5-9.19-11.09-18.23-16.59-27.16-.07-.12-.17-.29-.29-.38l-8.09-13.57c5.02-6.74,5.83-16.14,1.24-23.8l-7.78-13.02,27.23-16.28-9.54-15.99,4.4-2.64-23.61-39.53-13.52,8.07-10-16.73-72.97,43.6,10,16.73-13.52,8.07,23.61,39.53,4.38-2.62,9.57,15.99,27.25-16.28,7.78,13.02c4.57,7.66,13.23,11.47,21.56,10.21l7.78,13.02c.12,.26,.26,.52,.43,.81l.12,.17c.38,.67,.81,1.31,1.19,1.95l1.76,2.93c.19,.31,.38,.57,.57,.83,11.69,18.85,23.54,38.32,33.72,58.52,11.16,22.16,19.35,44.77,25.13,69.14,.86,3.71,1.69,7.45,2.55,11.14,4.62,20.04,9.38,40.74,17.02,60.43,8.02,20.71,18.42,41.79,32.75,66.4,7.12,12.21,14.54,24.2,21.51,35.39l.26,.45c5.26,8.43,10.69,17.09,18.59,23.13v-3.45c-6.69-5.71-11.54-13.52-16.28-21.13l-.29-.48c-6.97-11.11-14.37-23.09-21.44-35.27-14.26-24.49-24.63-45.48-32.58-66-7.57-19.54-12.3-40.15-16.9-60.07-.86-3.71-1.69-7.45-2.57-11.19-5.81-24.56-14.07-47.38-25.32-69.69-6.47-12.8-13.57-25.25-20.85-37.46-3.4-5.69-6.85-11.3-10.26-16.87,1.83,.31,3.78-.02,5.47-1.02Zm-110.17-105.62l69.42-41.48,8.95,14.95-69.45,41.48-8.92-14.95Zm20.59,59.21l-2.62,1.57-21.49-35.98,11.73-7.02,.05,.07,72.97-43.6-.02-.07,11.73-7,21.49,35.96-2.64,1.59-.1-.17-91.2,54.48,.1,.17Zm11.42,14.68l-8.4-14.09,87.3-52.14,8.43,14.09-87.32,52.14Zm54.62,8.07c-7.24,.79-14.64-2.62-18.61-9.28l-7.78-13.02,33.18-19.82,7.78,13.02c3.97,6.66,3.5,14.78-.64,20.8-.4,.62-.83,1.21-1.36,1.78-1.31,1.5-2.86,2.83-4.69,3.95-1.81,1.07-3.74,1.83-5.69,2.24-.74,.19-1.48,.29-2.19,.33Zm16.3,21.87c-.83-.48-1.55-1.19-2.09-2.09l-10.92-18.28c1.95-.43,3.83-1.24,5.64-2.31,1.81-1.07,3.4-2.36,4.74-3.88l10.92,18.28c.45,.76,.71,1.57,.81,2.36,.29,2.31-.79,4.69-2.9,5.95-1.95,1.19-4.33,1.12-6.19-.02Z"/>
            <path class="cls-4" d="M891.02,258.25c-1.07-1.78-3.43-2.38-5.24-1.31l-77.16,46.1c-1.81,1.07-2.4,3.43-1.33,5.24,1.09,1.81,3.43,2.38,5.24,1.31l77.16-46.1c1.81-1.07,2.4-3.43,1.33-5.24Zm-2.26,3.69l-77.16,46.1c-.95,.55-2.19,.24-2.74-.69-.57-.95-.26-2.19,.69-2.76l77.16-46.1c.95-.55,2.19-.24,2.74,.71,.57,.93,.26,2.17-.69,2.74Z"/>
            <path class="cls-4" d="M898.35,270.53c-1.07-1.81-3.43-2.4-5.24-1.31l-77.16,46.08c-1.81,1.09-2.4,3.45-1.33,5.24,1.09,1.81,3.43,2.4,5.24,1.33l77.18-46.1c1.78-1.07,2.38-3.43,1.31-5.24Zm-2.26,3.69l-77.16,46.08c-.95,.57-2.17,.26-2.74-.69-.57-.95-.26-2.17,.69-2.74l77.16-46.1c.95-.57,2.19-.24,2.76,.69,.55,.95,.24,2.19-.71,2.76Z"/>
          </g>
          <g>
            <path class="cls-4" d="M900.99,915.07l4.09,1.45c16.18,5.64,32.91,11.45,50.22,14.71,16.14,3.02,33.65,4.64,56.83,5.28,1.52,.07,3.07,.1,4.57,.14,8.38,.17,16.59,.21,23.75,.24h2.31c1.95,.02,3.95,.05,5.93-.02v-2.12c-1.98,.07-3.97,.05-5.93,.02l-2.31-.02c-8.4,0-18.37-.05-28.25-.33-23.09-.64-40.51-2.26-56.52-5.28-17.14-3.19-33.77-9-49.88-14.61l-4.14-1.45c-18.66-6.47-36.75-10.64-55.33-12.8-13.3-1.55-26.75-2.19-40.08-2.47-8.35-.17-16.68-.21-24.87-.29-.12,0-.26,0-.38,.02l-12.33-.26c-2.4-6.14-8.28-10.57-15.28-10.73l-11.85-.26,.55-24.78-14.59-.33,.1-4.02-36.01-.79-.26,12.3-15.23-.33-1.45,66.47,15.23,.33-.26,12.3,35.98,.79,.1-4,14.59,.33,.52-24.82,11.88,.26c6.97,.14,13.09-4.02,15.71-10.04l11.85,.24c.24,.05,.45,.05,.71,.05h.17c.6,.02,1.19,0,1.78,.02l2.67,.05c.29,.02,.55,0,.81-.02,17.33,.09,35.15,.33,52.76,1.98,19.32,1.81,37.72,5.78,56.26,12.09,2.81,.98,5.62,1.98,8.45,2.93,15.18,5.28,30.87,10.73,47.08,13.83,17.04,3.31,35.34,5.19,57.62,5.93,11.02,.36,22.06,.43,32.37,.45h.43c2.43,0,4.9,0,7.35-.07v-2.12c-2.45,.1-4.93,.07-7.38,.07l-.43-.02c-10.26,0-21.28-.07-32.27-.45-22.16-.74-40.36-2.57-57.26-5.83-16.09-3.12-31.72-8.54-46.81-13.78-2.83-.95-5.64-1.95-8.47-2.93-18.68-6.38-37.25-10.38-56.71-12.19-11.16-1.05-22.35-1.52-33.46-1.76-5.16-.12-10.33-.17-15.45-.21,.95-1.09,1.57-2.52,1.59-4.07,.05-1.69-.57-3.24-1.64-4.4,18.4,.12,37.2,.5,55.69,2.64,18.42,2.12,36.39,6.31,54.91,12.71Zm-224.72,18.16l1.38-63.24,13.64,.29-1.38,63.24-13.64-.29Zm47.65,10.97h.14l-.05,2.38-32.77-.71,.24-10.69h.05l1.45-66.47h-.05l.24-10.71,32.75,.71-.05,2.43h-.14l-1.81,83.06Zm14.61-1.48l-12.8-.29,1.74-79.51,12.8,.29-1.74,79.51Zm28.75-34.41c-.19,.55-.43,1.09-.69,1.59-2.5,5.12-7.83,8.59-13.9,8.47l-11.85-.26,.67-30.23,11.85,.26c6.07,.14,11.23,3.83,13.52,9.07,.24,.52,.45,1.07,.6,1.64,.45,1.48,.71,3.07,.67,4.74-.02,1.64-.31,3.24-.86,4.71Zm23.16-4.21c-.02,1.78-1.07,3.33-2.57,4.09-.67,.33-1.45,.52-2.26,.5l-16.66-.36c.52-1.45,.79-3.05,.81-4.69,.05-1.64-.14-3.24-.6-4.76l16.66,.36c.67,.02,1.31,.19,1.88,.45,1.67,.76,2.78,2.48,2.74,4.4Z"/>
            <path class="cls-4" d="M704.26,864.45c-1.64-.02-3,1.28-3.05,2.93l-1.52,70.28c-.05,1.64,1.26,3,2.93,3.05,1.64,.02,3-1.28,3.05-2.93l1.52-70.26c.05-1.67-1.26-3.02-2.93-3.07Zm-.02,73.3c-.02,.86-.74,1.55-1.59,1.52-.86,0-1.55-.74-1.52-1.6l1.52-70.28c.02-.86,.74-1.55,1.59-1.52,.86,.02,1.55,.74,1.55,1.59l-1.55,70.28Z"/>
            <path class="cls-4" d="M715.45,864.71c-1.64-.05-3,1.26-3.05,2.9l-1.52,70.28c-.05,1.64,1.26,3.02,2.9,3.05,1.64,.05,3.02-1.26,3.05-2.9l1.55-70.28c.02-1.64-1.29-3.02-2.93-3.05Zm-.02,73.28c-.02,.88-.74,1.55-1.59,1.55-.88-.02-1.57-.74-1.55-1.62l1.55-70.26c0-.88,.74-1.57,1.59-1.55,.86,.02,1.55,.74,1.52,1.59l-1.52,70.28Z"/>
          </g>
          <g>
            <path class="cls-4" d="M728.23,189.78l-15.52-26.87c-1.19-2.09-3.38-3.36-5.78-3.36s-4.59,1.26-5.81,3.36l-15.52,26.87c-1.21,2.09-1.21,4.59,0,6.69,1.21,2.12,3.38,3.36,5.81,3.36h31.03c2.4,0,4.57-1.24,5.78-3.36,1.21-2.09,1.21-4.59,0-6.69Zm-1.02,6.09c-1,1.71-2.78,2.76-4.76,2.76h-31.03c-2,0-3.76-1.05-4.76-2.76s-1-3.76,0-5.5l15.52-26.87c1-1.71,2.76-2.74,4.76-2.74s3.76,1.02,4.76,2.74l15.52,26.87c.98,1.74,.98,3.78,0,5.5Z"/>
            <g>
              <path class="cls-4" d="M709.45,188.75c0,1.4-1.13,2.53-2.53,2.53s-2.53-1.13-2.53-2.53,1.13-2.53,2.53-2.53,2.53,1.13,2.53,2.53Z"/>
              <path class="cls-4" d="M707.47,171.35h-1.11c-1.03,0-1.86,.87-1.8,1.9l.55,10.19c.05,.96,.84,1.7,1.8,1.7h0c.96,0,1.75-.75,1.8-1.7l.55-10.19c.06-1.03-.77-1.9-1.8-1.9Z"/>
            </g>
          </g>
          <g>
            <path class="cls-4" d="M969.63,814.13l-15.52-26.87c-1.21-2.09-3.38-3.33-5.81-3.33s-4.57,1.24-5.78,3.33l-15.52,26.87c-1.21,2.12-1.21,4.62,0,6.71,1.21,2.09,3.38,3.36,5.81,3.36h31.01c2.43,0,4.59-1.26,5.81-3.36,1.21-2.09,1.21-4.59,0-6.71Zm-1.05,6.12c-1,1.71-2.76,2.74-4.76,2.74h-31.01c-2,0-3.78-1.02-4.76-2.74-1-1.74-1-3.78,0-5.5l15.52-26.87c.98-1.74,2.76-2.76,4.74-2.76s3.78,1.02,4.76,2.76l15.52,26.87c1,1.71,1,3.76,0,5.5Z"/>
            <g>
              <path class="cls-4" d="M950.84,813.11c0,1.4-1.13,2.53-2.53,2.53s-2.53-1.13-2.53-2.53,1.13-2.53,2.53-2.53,2.53,1.13,2.53,2.53Z"/>
              <path class="cls-4" d="M948.87,795.72h-1.11c-1.03,0-1.86,.87-1.8,1.9l.55,10.19c.05,.96,.84,1.7,1.8,1.7h0c.96,0,1.75-.75,1.8-1.7l.55-10.19c.06-1.03-.77-1.9-1.8-1.9Z"/>
            </g>
          </g>
          <g>
            <path class="cls-4" d="M222.54,154.15l-15.49-26.87c-1.21-2.09-3.38-3.33-5.81-3.33s-4.59,1.24-5.81,3.33l-15.52,26.87c-1.21,2.09-1.21,4.62,0,6.71,1.21,2.09,3.38,3.33,5.81,3.33h31.03c2.4,0,4.59-1.24,5.78-3.33,1.21-2.09,1.21-4.62,0-6.71Zm-1.02,6.09c-1,1.74-2.78,2.76-4.76,2.76h-31.03c-1.98,0-3.76-1.02-4.76-2.76-1-1.71-1-3.76,0-5.47l15.52-26.87c1-1.74,2.76-2.76,4.76-2.76s3.76,1.02,4.76,2.76l15.52,26.87c.98,1.71,.98,3.76,0,5.47Z"/>
            <g>
              <path class="cls-4" d="M203.76,153.12c0,1.4-1.13,2.53-2.53,2.53s-2.53-1.13-2.53-2.53,1.13-2.53,2.53-2.53,2.53,1.13,2.53,2.53Z"/>
              <path class="cls-4" d="M201.78,135.73h-1.11c-1.03,0-1.86,.87-1.8,1.9l.55,10.19c.05,.96,.84,1.7,1.8,1.7h0c.96,0,1.75-.75,1.8-1.7l.55-10.19c.06-1.03-.77-1.9-1.8-1.9Z"/>
            </g>
          </g>
          <g>
            <path class="cls-4" d="M299.1,826.01l-15.52-26.87c-1.21-2.09-3.38-3.36-5.81-3.36s-4.57,1.26-5.78,3.36l-15.52,26.87c-1.21,2.09-1.21,4.59,0,6.69,1.21,2.12,3.38,3.36,5.81,3.36h31.01c2.43,0,4.59-1.24,5.81-3.36,1.21-2.09,1.21-4.59,0-6.69Zm-1.05,6.09c-1,1.71-2.76,2.76-4.76,2.76h-31.01c-2,0-3.78-1.05-4.76-2.76-1-1.71-1-3.76,0-5.5l15.52-26.87c.98-1.71,2.76-2.74,4.74-2.74s3.78,1.02,4.76,2.74l15.52,26.87c1,1.74,1,3.78,0,5.5Z"/>
            <g>
              <path class="cls-4" d="M280.31,824.98c0,1.4-1.13,2.53-2.53,2.53s-2.53-1.13-2.53-2.53,1.13-2.53,2.53-2.53,2.53,1.13,2.53,2.53Z"/>
              <path class="cls-4" d="M278.34,807.59h-1.11c-1.03,0-1.86,.87-1.8,1.9l.55,10.19c.05,.96,.84,1.7,1.8,1.7h0c.96,0,1.75-.75,1.8-1.7l.55-10.19c.06-1.03-.77-1.9-1.8-1.9Z"/>
            </g>
          </g>
          <polygon class="cls-4" points="197.25 955.41 180.41 955.41 180.41 938.57 179.1 938.57 179.1 955.41 162.26 955.41 162.26 956.72 179.1 956.72 179.1 973.56 180.41 973.56 180.41 956.72 197.25 956.72 197.25 955.41"/>
          <polygon class="cls-4" points="877.77 950.32 860.93 950.32 860.93 933.48 859.62 933.48 859.62 950.32 842.77 950.32 842.77 951.63 859.62 951.63 859.62 968.47 860.93 968.47 860.93 951.63 877.77 951.63 877.77 950.32"/>
          <polygon class="cls-4" points="171.24 586.68 154.4 586.68 154.4 569.84 153.08 569.84 153.08 586.68 136.24 586.68 136.24 587.99 153.08 587.99 153.08 604.83 154.4 604.83 154.4 587.99 171.24 587.99 171.24 586.68"/>
          <polygon class="cls-4" points="596.52 75.25 579.68 75.25 579.68 58.41 578.36 58.41 578.36 75.25 561.52 75.25 561.52 76.57 578.36 76.57 578.36 93.41 579.68 93.41 579.68 76.57 596.52 76.57 596.52 75.25"/>
          <polygon class="cls-4" points="911.7 543.13 894.86 543.13 894.86 526.29 893.55 526.29 893.55 543.13 876.71 543.13 876.71 544.44 893.55 544.44 893.55 561.28 894.86 561.28 894.86 544.44 911.7 544.44 911.7 543.13"/>
          <path class="cls-4" d="M861.89,94.67c-4.69,0-8.5,3.78-8.5,8.47s3.81,8.47,8.5,8.47,8.47-3.78,8.47-8.47-3.81-8.47-8.47-8.47Zm0,16.42c-4.4,0-7.95-3.57-7.95-7.95s3.55-7.95,7.95-7.95,7.95,3.57,7.95,7.95-3.57,7.95-7.95,7.95Z"/>
          <path class="cls-4" d="M108.58,233.78c-4.66,0-8.47,3.81-8.47,8.5s3.81,8.47,8.47,8.47,8.5-3.81,8.5-8.47-3.81-8.5-8.5-8.5Zm0,16.45c-4.38,0-7.95-3.57-7.95-7.95s3.57-7.97,7.95-7.97,7.95,3.57,7.95,7.97-3.57,7.95-7.95,7.95Z"/>
          <path class="cls-4" d="M128.91,756.9c-4.66,0-8.47,3.81-8.47,8.5s3.81,8.47,8.47,8.47,8.5-3.81,8.5-8.47-3.81-8.5-8.5-8.5Zm0,16.45c-4.38,0-7.95-3.57-7.95-7.95s3.57-7.95,7.95-7.95,7.95,3.57,7.95,7.95-3.57,7.95-7.95,7.95Z"/>
          <path class="cls-4" d="M520.29,959.95c-4.66,0-8.47,3.81-8.47,8.5s3.81,8.47,8.47,8.47,8.5-3.81,8.5-8.47-3.81-8.5-8.5-8.5Zm0,16.45c-4.38,0-7.95-3.57-7.95-7.95s3.57-7.95,7.95-7.95,7.95,3.57,7.95,7.95-3.57,7.95-7.95,7.95Z"/>
          <path class="cls-4" d="M554.23,827.63c-4.69,0-8.5,3.81-8.5,8.47s3.81,8.5,8.5,8.5,8.47-3.81,8.47-8.5-3.81-8.47-8.47-8.47Zm0,16.45c-4.38,0-7.95-3.57-7.95-7.97s3.57-7.95,7.95-7.95,7.95,3.57,7.95,7.95-3.57,7.97-7.95,7.97Z"/>
          <path class="cls-4" d="M814.33,402.31c-4.66,0-8.47,3.81-8.47,8.5s3.81,8.47,8.47,8.47,8.5-3.81,8.5-8.47-3.81-8.5-8.5-8.5Zm0,16.45c-4.38,0-7.95-3.57-7.95-7.95s3.57-7.95,7.95-7.95,7.95,3.57,7.95,7.95-3.57,7.95-7.95,7.95Z"/>
          <path class="cls-4" d="M425.29,177.53c7.66,0,7.67-11.9,0-11.9s-7.67,11.9,0,11.9h0Z"/>
          <path class="cls-4" d="M919,686.51c7.66,0,7.67-11.9,0-11.9s-7.67,11.9,0,11.9h0Z"/>
          <path class="cls-4" d="M264.96,551.63c7.66,0,7.67-11.9,0-11.9s-7.67,11.9,0,11.9h0Z"/>
          <path class="cls-4" d="M600.88,910.46c7.66,0,7.67-11.9,0-11.9s-7.67,11.9,0,11.9h0Z"/>
          <path class="cls-4" d="M499.09,182.19c3.83,0,3.83-5.95,0-5.95s-3.83,5.95,0,5.95h0Z"/>
          <path class="cls-4" d="M338.76,403.59c3.83,0,3.83-5.95,0-5.95s-3.83,5.95,0,5.95h0Z"/>
          <path class="cls-4" d="M216.6,726.79c3.83,0,3.83-5.95,0-5.95s-3.83,5.95,0,5.95h0Z"/>
          <path class="cls-4" d="M511.81,892.21c3.83,0,3.83-5.95,0-5.95s-3.83,5.95,0,5.95h0Z"/>
          <path class="cls-4" d="M817.2,823.5c3.83,0,3.83-5.95,0-5.95s-3.83,5.95,0,5.95h0Z"/>
          <path class="cls-4" d="M842.65,490.12c3.83,0,3.83-5.95,0-5.95s-3.83,5.95,0,5.95h0Z"/>
          <path class="cls-4" d="M697.59,273.8c3.83,0,3.83-5.95,0-5.95s-3.83,5.95,0,5.95h0Z"/>
          <path class="cls-4" d="M364.21,281.44c3.83,0,3.83-5.95,0-5.95s-3.83,5.95,0,5.95h0Z"/>
          <path class="cls-4" d="M445.64,820.96c3.83,0,3.83-5.95,0-5.95s-3.83,5.95,0,5.95h0Z"/>
          <path class="cls-4" d="M728.13,823.5c3.83,0,3.83-5.95,0-5.95s-3.83,5.95,0,5.95h0Z"/>
        </g>
      </g>
      <polygon class="cls-4" points="1200.86 7.76 957.81 1087.76 1925.58 1087.76 1925.58 7.76 1200.86 7.76"/>
      <g>
        <path class="cls-11" d="M1376.71,940.18c-.32-.13-.66-.23-.99-.34,2.02-1.07,3.66-2.44,4.85-4.13,1.37-1.95,2.05-4.22,2.05-6.81,0-3.94-1.63-7.12-4.9-9.55-3.27-2.43-8.22-3.64-14.85-3.64h-25.8v50.46h27.24c6.78,0,11.93-1.21,15.46-3.64,3.53-2.43,5.3-5.83,5.3-10.2,0-2.93-.73-5.42-2.2-7.46-1.47-2.04-3.52-3.6-6.16-4.68m-15.71-14.16c2.4,0,4.2,.4,5.41,1.19,1.2,.79,1.8,2.01,1.8,3.64s-.6,2.86-1.8,3.68c-1.2,.82-3,1.22-5.41,1.22h-9.8v-9.73h9.8Zm7.75,28.58c-1.27,.84-3.13,1.26-5.59,1.26h-11.97v-10.23h11.97c2.45,0,4.31,.42,5.59,1.26,1.27,.84,1.91,2.13,1.91,3.86s-.64,3.02-1.91,3.86"/>
        <path class="cls-11" d="M1437.97,922.16c-2.5-2.38-5.44-4.22-8.83-5.51-3.39-1.3-7.12-1.95-11.21-1.95s-7.76,.65-11.17,1.95c-3.41,1.3-6.38,3.14-8.9,5.51-2.52,2.38-4.48,5.15-5.87,8.33-1.39,3.17-2.09,6.66-2.09,10.45s.7,7.28,2.09,10.45c1.39,3.17,3.35,5.95,5.87,8.33,2.52,2.38,5.49,4.22,8.9,5.51,3.41,1.3,7.14,1.95,11.17,1.95s7.82-.65,11.21-1.95c3.39-1.3,6.33-3.12,8.83-5.48,2.5-2.35,4.46-5.13,5.88-8.32,1.42-3.19,2.13-6.69,2.13-10.49s-.71-7.28-2.13-10.45c-1.42-3.17-3.38-5.95-5.88-8.33m-7.46,24.69c-.7,1.78-1.66,3.31-2.88,4.58-1.22,1.27-2.67,2.25-4.32,2.92-1.66,.67-3.45,1.01-5.37,1.01s-3.71-.34-5.37-1.01c-1.66-.67-3.1-1.65-4.32-2.92-1.23-1.27-2.19-2.8-2.88-4.58-.7-1.78-1.04-3.75-1.04-5.91s.35-4.19,1.04-5.95c.7-1.75,1.66-3.27,2.88-4.54,1.22-1.27,2.67-2.25,4.32-2.92,1.66-.67,3.45-1.01,5.37-1.01s3.71,.34,5.37,1.01c1.66,.67,3.1,1.65,4.32,2.92,1.23,1.27,2.19,2.79,2.88,4.54,.7,1.75,1.04,3.74,1.04,5.95s-.35,4.13-1.04,5.91"/>
        <path class="cls-11" d="M1498.95,922.16c-2.5-2.38-5.44-4.22-8.83-5.51-3.39-1.3-7.12-1.95-11.21-1.95s-7.76,.65-11.17,1.95c-3.41,1.3-6.38,3.14-8.9,5.51-2.52,2.38-4.48,5.15-5.87,8.33-1.39,3.17-2.09,6.66-2.09,10.45s.7,7.28,2.09,10.45,3.35,5.95,5.87,8.33c2.52,2.38,5.49,4.22,8.9,5.51,3.41,1.3,7.14,1.95,11.17,1.95s7.82-.65,11.21-1.95c3.39-1.3,6.33-3.12,8.83-5.48,2.5-2.35,4.46-5.13,5.88-8.32,1.42-3.19,2.13-6.69,2.13-10.49s-.71-7.28-2.13-10.45c-1.42-3.17-3.38-5.95-5.88-8.33m-7.46,24.69c-.7,1.78-1.66,3.31-2.88,4.58-1.22,1.27-2.67,2.25-4.32,2.92-1.66,.67-3.45,1.01-5.37,1.01s-3.71-.34-5.37-1.01c-1.66-.67-3.1-1.65-4.32-2.92-1.23-1.27-2.19-2.8-2.88-4.58-.7-1.78-1.04-3.75-1.04-5.91s.35-4.19,1.04-5.95c.7-1.75,1.66-3.27,2.88-4.54,1.22-1.27,2.67-2.25,4.32-2.92,1.66-.67,3.45-1.01,5.37-1.01s3.71,.34,5.37,1.01c1.66,.67,3.1,1.65,4.32,2.92,1.23,1.27,2.19,2.79,2.88,4.54,.7,1.75,1.04,3.74,1.04,5.95s-.35,4.13-1.04,5.91"/>
        <polygon class="cls-11" points="1563.82 915.71 1548.11 915.71 1528.58 936.67 1528.58 915.71 1514.45 915.71 1514.45 966.17 1528.58 966.17 1528.58 953.53 1533.87 947.85 1548.33 966.17 1564.9 966.17 1543.22 938.03 1563.82 915.71"/>
        <polygon class="cls-11" points="1578.38 943.61 1603.68 943.61 1603.68 937.48 1578.38 937.48 1578.38 921.98 1606.78 921.98 1606.78 915.71 1571.17 915.71 1571.17 966.17 1607.79 966.17 1607.79 959.9 1578.38 959.9 1578.38 943.61"/>
        <path class="cls-11" d="M1650.46,948.72c3.12-1.39,5.52-3.4,7.21-6.02,1.68-2.62,2.52-5.75,2.52-9.41s-.84-6.8-2.52-9.44c-1.68-2.64-4.09-4.66-7.21-6.06-3.13-1.39-6.9-2.09-11.32-2.09h-19.68v50.45h7.21v-15.35h12.47c1.11,0,2.17-.04,3.2-.13l10.85,15.48h7.86l-11.99-16.92c.47-.17,.96-.32,1.4-.52m-11.53-4.04h-12.25v-22.71h12.25c4.61,0,8.11,.99,10.49,2.95,2.38,1.97,3.57,4.76,3.57,8.36s-1.19,6.4-3.57,8.4c-2.38,1.99-5.87,2.99-10.49,2.99"/>
        <path class="cls-11" d="M1713.46,966.17l-11.99-16.92c.47-.17,.96-.32,1.4-.52,3.12-1.39,5.52-3.4,7.21-6.02,1.68-2.62,2.52-5.75,2.52-9.41s-.84-6.8-2.52-9.44c-1.68-2.64-4.09-4.66-7.21-6.06-3.13-1.39-6.9-2.09-11.32-2.09h-19.68v50.45h7.21v-15.35h12.47c1.11,0,2.17-.04,3.2-.13l10.85,15.48h7.86Zm-22.13-21.48h-12.25v-22.71h12.25c4.61,0,8.11,.99,10.49,2.95,2.38,1.97,3.57,4.76,3.57,8.36s-1.19,6.4-3.57,8.4c-2.38,1.99-5.87,2.99-10.49,2.99"/>
      </g>
      <g class="cls-16">
        <image width="5184" height="3296" transform="translate(1223.11 95.61) scale(.12)" xlink:href="../../../../../Downloads/vincentiu-solomon-ln5drpv_ImI-unsplash.jpg"/>
      </g>
      <text class="cls-21" transform="translate(1222 552.52)"><tspan x="0" y="0">The </tspan><tspan class="cls-5" x="55.87" y="0">p</tspan><tspan x="73.48" y="0">age </tspan><tspan class="cls-14" x="129.87" y="0">y</tspan><tspan x="144.01" y="0">ou a</tspan><tspan class="cls-23" x="200.67" y="0">r</tspan><tspan x="211.01" y="0">e looking </tspan><tspan class="cls-15" x="340.1" y="0">f</tspan><tspan class="cls-13" x="349.07" y="0">or might h</tspan><tspan class="cls-7" x="489.08" y="0">a</tspan><tspan class="cls-14" x="504.37" y="0">v</tspan><tspan x="518.51" y="0">e been</tspan><tspan class="cls-23" x="93.59" y="31.2">r</tspan><tspan x="103.93" y="31.2">em</tspan><tspan class="cls-20" x="147.33" y="31.2">ov</tspan><tspan x="177.59" y="31.2">ed had its name </tspan><tspan class="cls-1" x="397.89" y="31.2">c</tspan><tspan class="cls-9" x="412.55" y="31.2">hanged</tspan><tspan x="115.35" y="62.4">or is </tspan><tspan class="cls-18" x="176.79" y="62.4">t</tspan><tspan x="187.08" y="62.4">empo</tspan><tspan class="cls-8" x="264.72" y="62.4">r</tspan><tspan x="274.18" y="62.4">a</tspan><tspan class="cls-6" x="289.73" y="62.4">r</tspan><tspan x="300.21" y="62.4">ily un</tspan><tspan class="cls-7" x="371.55" y="62.4">a</tspan><tspan class="cls-3" x="386.84" y="62.4">v</tspan><tspan x="400.93" y="62.4">ailable.</tspan></text>
      <text class="cls-24" transform="translate(1319 499.12)"><tspan x="0" y="0">404 - </tspan><tspan class="cls-10" x="98.43" y="0">P</tspan><tspan class="cls-2" x="120.91" y="0">A</tspan><tspan class="cls-22" x="145.64" y="0">GE N</tspan><tspan class="cls-2" x="228.5" y="0">O</tspan><tspan class="cls-22" x="255.79" y="0">T </tspan><tspan class="cls-19" x="285.26" y="0">F</tspan><tspan x="305.94" y="0">OUND</tspan></text>
    </g>
  </g>
</svg>