<?xml version="1.0" encoding="UTF-8"?>
<svg id="Layer_2" data-name="Layer 2" xmlns="http://www.w3.org/2000/svg" viewBox="0 0 643.47 599.43">
  <defs>
    <style>
      .cls-1 {
        fill: #fff;
      }

      .cls-2 {
        fill: #fdd659;
      }
    </style>
  </defs>
  <g id="Layer_1-2" data-name="Layer 1">
    <g>
      <g>
        <path class="cls-2" d="M407.22,394.03H253.08c-12.03,0-22.8-6.22-28.81-16.64-6.01-10.42-6.01-22.86,0-33.27l77.07-133.49c6.01-10.42,16.79-16.64,28.82-16.64s22.8,6.22,28.81,16.64l77.07,133.49c6.01,10.42,6.01,22.86,0,33.27-6.01,10.42-16.79,16.64-28.81,16.64Zm-77.07-194.05c-9.87,0-18.7,5.1-23.63,13.64l-77.07,133.49c-4.93,8.54-4.93,18.75,0,27.29,4.93,8.54,13.77,13.65,23.63,13.65h154.14c9.87,0,18.7-5.1,23.63-13.65,4.93-8.54,4.93-18.75,0-27.29l-77.07-133.49c-4.93-8.54-13.77-13.64-23.63-13.64Z"/>
        <g>
          <g>
            <path class="cls-1" d="M383.17,336.8v-46.04h-11.68l-19.47,46.04v9.73h20.63v12.36h10.51v-12.36h5.06v-9.73h-5.06Zm-10.51,0h-10.8l10.8-25.6v25.6Z"/>
            <path class="cls-1" d="M315.14,342.64s0,0,0,0c.02,5.4,1.41,9.58,4.18,12.55,2.76,2.95,6.72,4.44,11.89,4.47,0,0,0,0,0,0,.06,0,.12,0,.18,0,5.26,0,9.28-1.49,12.07-4.48,2.79-2.98,4.18-7.2,4.18-12.65v-35.43c0-5.45-1.4-9.67-4.18-12.65-2.79-2.98-6.81-4.48-12.07-4.48s-9.28,1.49-12.07,4.48c-2.79,2.99-4.19,7.2-4.19,12.65v35.43s0,.07,0,.1h0Zm10.7-36.21c0-4.48,1.85-6.72,5.55-6.72s5.55,2.24,5.55,6.72v36.79c0,4.48-1.85,6.72-5.55,6.72s-5.55-2.24-5.55-6.72v-36.79Z"/>
            <path class="cls-1" d="M303.22,358.89v-12.36h5.06v-9.73h-5.06v-46.04h-11.68l-4.67,11.03h0s-14.8,35-14.8,35v9.73h20.63v12.36h10.51Zm-21.31-22.09l10.71-25.38,.09,.15v25.23h-10.8Z"/>
          </g>
          <g>
            <path class="cls-1" d="M343.04,253.29c-1.86,0-3.28,.53-4.26,1.58-.21,.23-.4,.47-.57,.74,0,0,0,0,.01,0-.61,.97-.92,2.21-.92,3.72v12.51c0,1.92,.49,3.41,1.48,4.47,.98,1.05,2.4,1.58,4.26,1.58s3.28-.53,4.26-1.58c.98-1.05,1.48-2.54,1.48-4.47v-12.51c0-1.92-.49-3.41-1.48-4.47-.99-1.05-2.41-1.58-4.26-1.58Zm1.96,18.8c0,1.58-.65,2.37-1.96,2.37s-1.96-.79-1.96-2.37v-12.99c0-.45,.06-.83,.17-1.16h0c.27-.81,.87-1.21,1.8-1.21,1.31,0,1.96,.79,1.96,2.37v12.99Z"/>
            <polygon class="cls-1" points="297.34 277.62 307.65 277.62 307.65 274.18 301.12 274.18 301.12 267.14 306.3 267.14 306.3 263.7 301.12 263.7 301.12 257 307.65 257 307.65 253.57 297.34 253.57 297.34 277.62"/>
            <path class="cls-1" d="M321.32,274.7v-3.71c0-1.33-.19-2.42-.58-3.28-.1-.21-.21-.41-.34-.6-.39-.55-.91-.97-1.59-1.24,1.13-.54,1.88-1.47,2.23-2.81,.16-.61,.24-1.3,.24-2.07v-1.89c0-1.88-.45-3.27-1.34-4.18-.89-.9-2.31-1.36-4.26-1.36h-5.7v24.05h3.78v-9.79h1.31c.16,0,.32,0,.46,.02,.1,.01,.19,.03,.28,.04,.04,0,.09,.02,.13,.03,.43,.11,.77,.31,1.01,.61,.22,.26,.38,.63,.47,1.09,.07,.36,.11,.78,.11,1.26v3.78c0,.89,.02,1.51,.07,1.86,.05,.34,.14,.71,.27,1.1h3.85c-.18-.41-.3-.83-.34-1.25-.05-.42-.07-.98-.07-1.67Zm-3.81-12.85c0,.11,0,.22,0,.33-.04,.74-.23,1.29-.56,1.63-.38,.39-.94,.58-1.7,.58h-1.48v-7.39h1.82c.66,0,1.15,.19,1.46,.58,.31,.39,.46,1.02,.46,1.89v2.37Z"/>
            <path class="cls-1" d="M335.13,274.7v-3.71c0-1.33-.2-2.42-.58-3.28-.1-.21-.21-.41-.34-.6-.39-.55-.91-.97-1.59-1.24,1.13-.54,1.88-1.47,2.23-2.81,.16-.61,.24-1.3,.24-2.07v-1.89c0-1.88-.45-3.27-1.34-4.18-.89-.9-2.31-1.36-4.26-1.36h-5.7v24.05h3.78v-9.79h1.31c.16,0,.32,0,.46,.02,.1,.01,.19,.03,.28,.04,.05,0,.09,.02,.13,.03,.43,.11,.77,.31,1.01,.61,.22,.26,.38,.63,.47,1.09,.07,.36,.11,.78,.11,1.26v3.78c0,.89,.02,1.51,.07,1.86,.05,.34,.14,.71,.27,1.1h3.85c-.18-.41-.3-.83-.34-1.25-.05-.42-.07-.98-.07-1.67Zm-3.81-12.85c0,.92-.19,1.57-.57,1.96-.38,.39-.94,.58-1.7,.58h-1.48v-7.39h1.82c.66,0,1.15,.19,1.46,.58,.31,.39,.46,1.02,.46,1.89v2.37Z"/>
            <path class="cls-1" d="M362.56,274.7v-3.71c0-1.33-.2-2.42-.58-3.28-.39-.86-1.03-1.47-1.92-1.84,1.65-.78,2.47-2.4,2.47-4.88v-1.89c0-1.88-.45-3.27-1.34-4.18-.89-.9-2.31-1.36-4.26-1.36h-5.7v24.05h3.78v-9.79h1.31c.87,0,1.5,.23,1.89,.7,.11,.14,.21,.31,.29,.5,.08,.19,.14,.42,.19,.66,0,0,0,0-.01,0,.07,.35,.11,.74,.11,1.2v3.78c0,.89,.02,1.51,.07,1.86,.05,.34,.14,.71,.28,1.1h3.85c-.18-.41-.3-.83-.34-1.25-.05-.42-.07-.98-.07-1.67Zm-4.38-10.89c-.38,.39-.94,.58-1.7,.58h-1.48v-7.39h1.82c.66,0,1.15,.19,1.46,.58,.31,.39,.46,1.02,.46,1.89v2.37c0,.92-.19,1.57-.57,1.96Z"/>
          </g>
        </g>
      </g>
      <g>
        <path class="cls-1" d="M274.37,0c-1.01,3.34-2.45,6.62-3.87,9.84l-.15,.31c-3.26,7.36-6.79,15.25-10.51,23.04-7.52,15.67-14.62,28.17-22.31,39.3-7.27,10.56-16.11,20.08-24.66,29.25-1.58,1.72-3.17,3.43-4.76,5.17-10.49,11.41-19.22,23.48-26.68,36.87-4.26,7.68-8.15,15.6-11.84,23.51-1.66,3.58-3.3,7.16-4.89,10.73-.47-1.07-1.3-1.97-2.45-2.51-1.18-.55-2.44-.6-3.61-.2,5.84-13.06,12.03-26.3,19.33-38.8,7.36-12.57,16.01-24.14,26.46-35.41l2.34-2.53c9.14-9.83,18.63-20.01,26.42-31.4,7.26-10.63,13.96-22.71,21.76-39.17l1.52-3.24c2.77-5.96,5.42-11.84,7.68-16.98l.73-1.65c.91-2.02,1.83-4.06,2.57-6.13h-1.78c-.67,1.84-1.49,3.67-2.29,5.46l-.76,1.66c-2.67,6.05-5.84,13.16-9.19,20.18-7.74,16.36-14.41,28.37-21.61,38.92-7.73,11.32-17.16,21.41-26.26,31.22l-2.34,2.53c-10.54,11.35-19.28,23.01-26.68,35.7-5.3,9.05-10.02,18.49-14.44,27.98-2.38,5.11-4.66,10.21-6.92,15.27l-4.26,9.19c-8.95-1.72-18.3,2.77-22.31,11.39l-6.5,13.96-13.93-6.48-11.93,25.6,8.76,4.09-5.05,10.84,8.21,3.83-11.3,24.29c-.83,1.77-.06,3.9,1.72,4.73,1.78,.82,3.9,.04,4.73-1.72l11.32-24.29,16.22,7.56-11.32,24.27c-.82,1.78-.04,3.91,1.72,4.73,1.78,.83,3.91,.06,4.73-1.72l11.32-24.27,9.93,4.63,5.05-10.85,8.75,4.09,11.93-25.61-13.93-6.5,6.5-13.96c4.02-8.62,1.46-18.65-5.61-24.4l2.72-5.83c.16-.22,.29-.45,.41-.72l.06-.13c6.07-13.6,12.35-27.67,19.79-41.04,7.4-13.3,16.05-25.26,26.43-36.55,1.61-1.74,3.18-3.46,4.78-5.17,8.57-9.24,17.45-18.79,24.83-29.45,7.73-11.22,14.85-23.76,22.42-39.52,3.75-7.8,7.29-15.71,10.54-23.09l.13-.31c1.52-3.43,3.07-6.92,4.12-10.51h-1.75ZM102.14,278.09c-.53,1.15-1.9,1.65-3.04,1.11-1.15-.54-1.65-1.9-1.11-3.05l11.3-24.26,4.15,1.94-11.3,24.26Zm22.69,10.57c-.54,1.14-1.9,1.64-3.05,1.11-1.15-.54-1.65-1.9-1.11-3.05l11.3-24.26,4.16,1.93-11.3,24.27Zm21.77-20.81l-44.99-20.96,4.53-9.68,44.98,20.96-4.51,9.68Zm24.66-30.07l-10.86,23.31-7.61-3.53,.03-.04-47.29-22.04-.03,.04-7.61-3.55,10.86-23.31,62.5,29.12Zm-6.88-21.6l-6.4,13.73-34.65-16.15,6.4-13.73c3.72-7.99,12.31-12.19,20.61-10.73,.44,.06,.83,.15,1.27,.25,1.17,.31,2.35,.7,3.5,1.24,1.15,.54,2.22,1.18,3.21,1.9,.35,.26,.7,.51,1.02,.82,6.45,5.4,8.76,14.69,5.04,22.68Zm-.89-34.58l-4.63,9.93c-.98-.73-2.07-1.36-3.21-1.9-1.15-.53-2.31-.95-3.5-1.23l4.63-9.93c.23-.51,.58-.93,.98-1.27,1.07-.91,2.61-1.17,3.94-.54,1.31,.61,2.09,1.88,2.13,3.26,.01,.54-.09,1.14-.34,1.68Z"/>
        <path class="cls-1" d="M275.51,562.71l-21.03,.1-.07-14.06,21.03-.09c1.55-.01,2.8-1.27,2.79-2.82,0-1.53-1.27-2.79-2.8-2.77l-21.03,.09-.04-8.6-9.39,.04-.03-7.58-22.18,.1,.06,12.08-12.11,.06c-7.46,.03-13.73,5.2-15.45,12.15h-5.05c-.2-.01-.41-.03-.64-.03h-.1c-11.7,.25-23.79,.5-35.76-.31-11.93-.8-23.32-2.94-34.83-6.53-1.77-.56-3.52-1.11-5.26-1.66-9.45-2.99-19.19-6.09-29.24-7.77-10.54-1.72-21.85-2.58-35.57-2.67-6.79-.06-13.6,.07-19.92,.22l-.26,.03c-2.02,.04-26.6,.63-28.61,.8v1.31c2.02-.19,26.61-.79,28.64-.83h.25c6.34-.15,13.11-.28,19.9-.25,13.65,.1,24.9,.95,35.37,2.69,9.94,1.64,19.66,4.72,29.03,7.71,1.75,.55,3.5,1.11,5.27,1.66,11.61,3.64,23.1,5.78,35.12,6.6,6.89,.45,13.81,.57,20.66,.53,3.1-.01,6.19-.04,9.26-.1-.6,.69-.96,1.58-.96,2.57s.39,1.94,1.07,2.63c-11.23,.23-22.71,.26-34.03-.73-11.41-1.01-22.52-3.29-34.01-6.94l-2.57-.82c-10.06-3.2-20.46-6.53-31.16-8.24-9.97-1.61-20.79-2.32-35.09-2.34h-2.82c-5.15,.03-10.22,.12-14.63,.23l-1.4,.04c-1.78,.03-26.13,.6-27.9,.78v1.31c1.77-.19,26.12-.77,27.91-.8h1.43c5.2-.15,11.32-.28,17.41-.26,14.22,.03,24.99,.74,34.89,2.32,10.62,1.71,20.96,5.01,30.96,8.19l2.58,.82c11.58,3.68,22.8,5.97,34.29,6.99,8.21,.73,16.49,.92,24.71,.88,4.42-.01,8.81-.12,13.16-.2l7.96-.03c1.78,6.92,8.09,12.06,15.55,12.02l12.11-.06,.04,12.06,22.18-.1-.03-7.58,9.39-.04-.03-7.11,21.03-.1c1.53,0,2.79-1.27,2.77-2.8,0-1.55-1.27-2.79-2.8-2.79Zm-.09-18.65c.99-.01,1.81,.79,1.81,1.8s-.8,1.8-1.8,1.8l-21.01,.1v-3.61s21-.09,21-.09Zm-88.95,14.19c-.44,.01-.86-.1-1.23-.26-.99-.45-1.69-1.46-1.71-2.61,0-1.14,.64-2.12,1.61-2.61,.38-.2,.83-.32,1.3-.32l8.6-.04c-.19,.95-.26,1.93-.26,2.92s.1,1.96,.29,2.91l-8.6,.03Zm24.37,11.99c-6.92,.03-12.78-4.66-14.53-11.04-.1-.32-.18-.64-.25-.99-.18-.92-.28-1.9-.29-2.89,0-1.01,.1-1.99,.26-2.92,.07-.34,.15-.67,.25-1.01,1.68-6.38,7.49-11.13,14.41-11.16l11.89-.06,.15,30.01-11.89,.06Zm13.14,12l-.25-54.13,20.2-.1,.03,6.6h-.04l.19,40.95h.04l.03,6.59-20.2,.1Zm21.16-7.68l-.19-38.98,8.4-.03,.18,38.96-8.38,.04Zm30.37-7.26l-21.01,.09v-3.59s21-.1,21-.1c.99,0,1.81,.8,1.81,1.8s-.79,1.8-1.8,1.81Z"/>
        <g>
          <path class="cls-1" d="M556.94,233.34c1.15-.69,1.91-1.75,2.25-2.94,7.59,12.28,15.17,24.94,21.47,38.11,6.26,13.14,10.98,26.81,14.43,41.79l.76,3.33c2.99,13.1,6.1,26.65,11.16,39.5,4.73,11.99,10.95,24.31,20.18,39.98,.6,1.05,1.21,2.09,1.83,3.1,3.36,5.64,6.78,11.13,9.74,15.89l.95,1.53c1.2,1.93,2.41,3.9,3.77,5.74v-2.89c-.82-1.23-1.59-2.48-2.35-3.72l-.95-1.56c-3.51-5.58-7.62-12.22-11.55-18.9-9.2-15.61-15.38-27.88-20.06-39.78-5.02-12.72-8.09-26.21-11.08-39.25l-.77-3.36c-3.46-15.1-8.24-28.87-14.54-42.12-4.53-9.48-9.71-18.68-15.07-27.66-3.37-5.64-6.81-11.19-10.18-16.66-.04-.07-.1-.18-.18-.23l-4.97-8.32c3.08-4.13,3.58-9.9,.76-14.6l-4.78-7.99,16.71-9.99-5.86-9.81,2.7-1.62-14.49-24.26-8.29,4.95-6.13-10.27-44.77,26.75,6.13,10.27-8.29,4.95,14.49,24.26,2.69-1.61,5.87,9.81,16.72-9.99,4.78,7.99c2.8,4.7,8.12,7.04,13.23,6.26l4.78,7.99c.07,.16,.16,.32,.26,.5l.07,.1c.23,.41,.5,.8,.73,1.2l1.08,1.8c.12,.19,.23,.35,.35,.51,7.17,11.57,14.44,23.51,20.69,35.91,6.85,13.6,11.87,27.47,15.42,42.42,.53,2.28,1.04,4.57,1.56,6.83,2.83,12.3,5.75,25,10.44,37.08,4.92,12.7,11.3,25.64,20.09,40.74,4.37,7.49,8.92,14.85,13.2,21.71l.16,.28c3.23,5.17,6.56,10.49,11.41,14.19v-2.12c-4.1-3.5-7.08-8.29-9.99-12.97l-.18-.29c-4.28-6.82-8.82-14.17-13.16-21.64-8.75-15.03-15.11-27.91-19.99-40.49-4.64-11.99-7.55-24.64-10.37-36.86-.53-2.28-1.04-4.57-1.58-6.86-3.56-15.07-8.63-29.07-15.54-42.76-3.97-7.86-8.32-15.49-12.79-22.99-2.09-3.49-4.21-6.94-6.29-10.35,1.12,.19,2.32-.01,3.36-.63Zm-67.6-64.81l42.6-25.45,5.49,9.17-42.61,25.45-5.48-9.17Zm12.63,36.33l-1.61,.96-13.19-22.08,7.2-4.31,.03,.04,44.77-26.75v-.04s7.18-4.29,7.18-4.29l13.19,22.07-1.62,.98-.06-.1-55.96,33.43,.06,.1Zm7.01,9.01l-5.15-8.65,53.56-32,5.17,8.65-53.58,32Zm33.51,4.95c-4.44,.48-8.98-1.61-11.42-5.7l-4.78-7.99,20.36-12.16,4.78,7.99c2.44,4.09,2.15,9.07-.39,12.76-.25,.38-.51,.74-.83,1.1-.8,.92-1.75,1.74-2.88,2.42-1.11,.66-2.29,1.12-3.49,1.37-.45,.12-.91,.18-1.34,.2Zm10,13.42c-.51-.29-.95-.73-1.29-1.29l-6.7-11.22c1.2-.26,2.35-.76,3.46-1.42,1.11-.66,2.09-1.45,2.91-2.38l6.7,11.22c.28,.47,.44,.96,.5,1.45,.18,1.42-.48,2.88-1.78,3.65-1.2,.73-2.66,.69-3.8-.01Z"/>
          <path class="cls-1" d="M546.72,158.46c-.66-1.1-2.1-1.46-3.21-.8l-47.34,28.29c-1.11,.66-1.47,2.1-.82,3.21,.67,1.11,2.1,1.46,3.21,.8l47.34-28.29c1.11-.66,1.47-2.1,.82-3.21Zm-1.39,2.26l-47.34,28.29c-.58,.34-1.34,.15-1.68-.42-.35-.58-.16-1.34,.42-1.69l47.34-28.29c.58-.34,1.34-.15,1.68,.44,.35,.57,.16,1.33-.42,1.68Z"/>
          <path class="cls-1" d="M551.22,165.99c-.66-1.11-2.1-1.47-3.21-.8l-47.34,28.27c-1.11,.67-1.48,2.12-.82,3.21,.67,1.11,2.1,1.47,3.21,.82l47.36-28.29c1.1-.66,1.46-2.1,.8-3.21Zm-1.39,2.26l-47.34,28.27c-.58,.35-1.33,.16-1.68-.42-.35-.58-.16-1.33,.42-1.68l47.34-28.29c.58-.35,1.34-.15,1.69,.42,.34,.58,.15,1.34-.44,1.69Z"/>
        </g>
        <g>
          <path class="cls-1" d="M552.84,561.48l2.51,.89c9.93,3.46,20.2,7.02,30.81,9.02,9.9,1.85,20.65,2.85,34.87,3.24,.93,.04,1.88,.06,2.8,.09,5.14,.1,10.18,.13,14.57,.15h1.42c1.2,.01,2.42,.03,3.64-.01v-1.3c-1.21,.04-2.44,.03-3.64,.01h-1.42c-5.15-.01-11.27-.04-17.33-.22-14.16-.39-24.85-1.39-34.68-3.24-10.51-1.96-20.72-5.52-30.61-8.97l-2.54-.89c-11.45-3.97-22.55-6.53-33.95-7.86-8.16-.95-16.41-1.34-24.59-1.52-5.13-.1-10.24-.13-15.26-.18-.07,0-.16,0-.23,.01l-7.56-.16c-1.47-3.77-5.08-6.48-9.38-6.59l-7.27-.16,.34-15.2-8.95-.2,.06-2.47-22.09-.48-.16,7.55-9.35-.2-.89,40.79,9.35,.2-.16,7.55,22.08,.48,.06-2.45,8.95,.2,.32-15.23,7.29,.16c4.28,.09,8.03-2.47,9.64-6.16l7.27,.15c.15,.03,.28,.03,.44,.03h.1c.37,.01,.73,0,1.1,.01l1.64,.03c.18,.01,.34,0,.5-.01,10.63,.06,21.57,.2,32.38,1.21,11.86,1.11,23.15,3.55,34.52,7.42,1.72,.6,3.45,1.21,5.18,1.8,9.32,3.24,18.94,6.59,28.89,8.48,10.46,2.03,21.69,3.18,35.35,3.64,6.76,.22,13.54,.26,19.86,.28h.26c1.49,0,3.01,0,4.51-.04v-1.3c-1.5,.06-3.02,.04-4.53,.04h-.26c-6.29-.01-13.06-.06-19.8-.29-13.6-.45-24.77-1.58-35.14-3.58-9.87-1.91-19.47-5.24-28.72-8.46-1.74-.58-3.46-1.2-5.2-1.8-11.46-3.91-22.85-6.37-34.8-7.48-6.85-.64-13.71-.93-20.53-1.08-3.17-.07-6.34-.1-9.48-.13,.58-.67,.96-1.55,.98-2.5,.03-1.04-.35-1.99-1.01-2.7,11.29,.07,22.82,.31,34.17,1.62,11.3,1.3,22.33,3.87,33.69,7.8Zm-137.88,11.14l.85-38.8,8.37,.18-.85,38.8-8.37-.18Zm29.24,6.73h.09l-.03,1.46-20.11-.44,.15-6.56h.03l.89-40.79h-.03l.15-6.57,20.09,.44-.03,1.49h-.09l-1.11,50.97Zm8.97-.91l-7.86-.18,1.07-48.79,7.86,.18-1.07,48.79Zm17.64-21.12c-.12,.34-.26,.67-.42,.98-1.53,3.14-4.8,5.27-8.53,5.2l-7.27-.16,.41-18.55,7.27,.16c3.72,.09,6.89,2.35,8.29,5.56,.15,.32,.28,.66,.37,1.01,.28,.91,.44,1.88,.41,2.91-.01,1.01-.19,1.99-.53,2.89Zm14.21-2.58c-.01,1.1-.66,2.04-1.58,2.51-.41,.2-.89,.32-1.39,.31l-10.22-.22c.32-.89,.48-1.87,.5-2.88,.03-1.01-.09-1.99-.37-2.92l10.22,.22c.41,.01,.8,.12,1.15,.28,1.02,.47,1.71,1.52,1.68,2.7Z"/>
          <path class="cls-1" d="M432.13,530.42c-1.01-.01-1.84,.79-1.87,1.8l-.93,43.12c-.03,1.01,.77,1.84,1.8,1.87,1.01,.01,1.84-.79,1.87-1.8l.93-43.11c.03-1.02-.77-1.85-1.8-1.88Zm-.01,44.98c-.01,.53-.45,.95-.98,.93-.53,0-.95-.45-.93-.98l.93-43.12c.01-.53,.45-.95,.98-.93,.53,.01,.95,.45,.95,.98l-.95,43.12Z"/>
          <path class="cls-1" d="M438.99,530.58c-1.01-.03-1.84,.77-1.87,1.78l-.93,43.12c-.03,1.01,.77,1.85,1.78,1.87,1.01,.03,1.85-.77,1.87-1.78l.95-43.12c.01-1.01-.79-1.85-1.8-1.87Zm-.01,44.96c-.01,.54-.45,.95-.98,.95-.54-.01-.96-.45-.95-.99l.95-43.11c0-.54,.45-.96,.98-.95,.53,.01,.95,.45,.93,.98l-.93,43.12Z"/>
        </g>
        <g>
          <path class="cls-1" d="M446.84,116.45l-9.52-16.49c-.73-1.29-2.07-2.06-3.55-2.06s-2.82,.77-3.56,2.06l-9.52,16.49c-.74,1.29-.74,2.82,0,4.1,.74,1.3,2.07,2.06,3.56,2.06h19.04c1.47,0,2.8-.76,3.55-2.06,.74-1.29,.74-2.82,0-4.1Zm-.63,3.74c-.61,1.05-1.71,1.69-2.92,1.69h-19.04c-1.23,0-2.31-.64-2.92-1.69s-.61-2.31,0-3.37l9.52-16.49c.61-1.05,1.69-1.68,2.92-1.68s2.31,.63,2.92,1.68l9.52,16.49c.6,1.07,.6,2.32,0,3.37Z"/>
          <g>
            <path class="cls-1" d="M435.31,115.81c0,.86-.69,1.55-1.55,1.55s-1.55-.69-1.55-1.55,.69-1.55,1.55-1.55,1.55,.69,1.55,1.55Z"/>
            <path class="cls-1" d="M434.1,105.14h-.68c-.63,0-1.14,.53-1.1,1.17l.34,6.25c.03,.59,.52,1.05,1.1,1.05h0c.59,0,1.07-.46,1.1-1.05l.34-6.25c.03-.63-.47-1.17-1.1-1.17Z"/>
          </g>
        </g>
        <g>
          <path class="cls-1" d="M594.96,499.55l-9.52-16.49c-.74-1.28-2.07-2.04-3.56-2.04s-2.8,.76-3.55,2.04l-9.52,16.49c-.74,1.3-.74,2.83,0,4.12,.74,1.28,2.07,2.06,3.56,2.06h19.03c1.49,0,2.82-.77,3.56-2.06,.74-1.29,.74-2.82,0-4.12Zm-.64,3.75c-.61,1.05-1.69,1.68-2.92,1.68h-19.03c-1.23,0-2.32-.63-2.92-1.68-.61-1.07-.61-2.32,0-3.37l9.52-16.49c.6-1.07,1.69-1.69,2.91-1.69s2.32,.63,2.92,1.69l9.52,16.49c.61,1.05,.61,2.31,0,3.37Z"/>
          <g>
            <path class="cls-1" d="M583.43,498.92c0,.86-.69,1.55-1.55,1.55s-1.55-.69-1.55-1.55,.69-1.55,1.55-1.55,1.55,.69,1.55,1.55Z"/>
            <path class="cls-1" d="M582.22,488.25h-.68c-.63,0-1.14,.53-1.1,1.17l.34,6.25c.03,.59,.52,1.05,1.1,1.05h0c.59,0,1.07-.46,1.1-1.05l.34-6.25c.03-.63-.47-1.17-1.1-1.17Z"/>
          </g>
        </g>
        <g>
          <path class="cls-1" d="M136.55,94.58l-9.51-16.49c-.74-1.29-2.07-2.04-3.56-2.04s-2.82,.76-3.56,2.04l-9.52,16.49c-.74,1.29-.74,2.83,0,4.12,.74,1.29,2.07,2.04,3.56,2.04h19.04c1.47,0,2.82-.76,3.55-2.04,.74-1.29,.74-2.83,0-4.12Zm-.63,3.74c-.61,1.07-1.71,1.69-2.92,1.69h-19.04c-1.21,0-2.31-.63-2.92-1.69-.61-1.05-.61-2.31,0-3.36l9.52-16.49c.61-1.07,1.69-1.69,2.92-1.69s2.31,.63,2.92,1.69l9.52,16.49c.6,1.05,.6,2.31,0,3.36Z"/>
          <g>
            <path class="cls-1" d="M125.02,93.96c0,.86-.69,1.55-1.55,1.55s-1.55-.69-1.55-1.55,.69-1.55,1.55-1.55,1.55,.69,1.55,1.55Z"/>
            <path class="cls-1" d="M123.81,83.29h-.68c-.63,0-1.14,.53-1.1,1.17l.34,6.25c.03,.59,.52,1.05,1.1,1.05h0c.59,0,1.07-.46,1.1-1.05l.34-6.25c.03-.63-.47-1.17-1.1-1.17Z"/>
          </g>
        </g>
        <g>
          <path class="cls-1" d="M183.52,506.83l-9.52-16.49c-.74-1.28-2.07-2.06-3.56-2.06s-2.8,.77-3.55,2.06l-9.52,16.49c-.74,1.29-.74,2.82,0,4.1,.74,1.3,2.07,2.06,3.56,2.06h19.03c1.49,0,2.82-.76,3.56-2.06,.74-1.29,.74-2.82,0-4.1Zm-.64,3.74c-.61,1.05-1.69,1.69-2.92,1.69h-19.03c-1.23,0-2.32-.64-2.92-1.69-.61-1.05-.61-2.31,0-3.37l9.52-16.49c.6-1.05,1.69-1.68,2.91-1.68s2.32,.63,2.92,1.68l9.52,16.49c.61,1.07,.61,2.32,0,3.37Z"/>
          <g>
            <path class="cls-1" d="M172,506.2c0,.86-.69,1.55-1.55,1.55s-1.55-.69-1.55-1.55,.69-1.55,1.55-1.55,1.55,.69,1.55,1.55Z"/>
            <path class="cls-1" d="M170.79,495.53h-.68c-.63,0-1.14,.53-1.1,1.17l.34,6.25c.03,.59,.52,1.05,1.1,1.05h0c.59,0,1.07-.46,1.1-1.05l.34-6.25c.03-.63-.47-1.17-1.1-1.17Z"/>
          </g>
        </g>
        <polygon class="cls-1" points="121.03 586.23 110.7 586.23 110.7 575.9 109.89 575.9 109.89 586.23 99.56 586.23 99.56 587.03 109.89 587.03 109.89 597.37 110.7 597.37 110.7 587.03 121.03 587.03 121.03 586.23"/>
        <polygon class="cls-1" points="538.59 583.11 528.26 583.11 528.26 572.77 527.45 572.77 527.45 583.11 517.12 583.11 517.12 583.91 527.45 583.91 527.45 594.24 528.26 594.24 528.26 583.91 538.59 583.91 538.59 583.11"/>
        <polygon class="cls-1" points="105.07 359.98 94.74 359.98 94.74 349.65 93.93 349.65 93.93 359.98 83.6 359.98 83.6 360.79 93.93 360.79 93.93 371.12 94.74 371.12 94.74 360.79 105.07 360.79 105.07 359.98"/>
        <polygon class="cls-1" points="366.02 46.18 355.69 46.18 355.69 35.84 354.88 35.84 354.88 46.18 344.55 46.18 344.55 46.98 354.88 46.98 354.88 57.31 355.69 57.31 355.69 46.98 366.02 46.98 366.02 46.18"/>
        <polygon class="cls-1" points="559.41 333.26 549.08 333.26 549.08 322.93 548.27 322.93 548.27 333.26 537.94 333.26 537.94 334.07 548.27 334.07 548.27 344.4 549.08 344.4 549.08 334.07 559.41 334.07 559.41 333.26"/>
        <path class="cls-1" d="M528.85,58.09c-2.88,0-5.21,2.32-5.21,5.2s2.34,5.2,5.21,5.2,5.2-2.32,5.2-5.2-2.34-5.2-5.2-5.2Zm0,10.08c-2.7,0-4.88-2.19-4.88-4.88s2.18-4.88,4.88-4.88,4.88,2.19,4.88,4.88-2.19,4.88-4.88,4.88Z"/>
        <path class="cls-1" d="M66.63,143.45c-2.86,0-5.2,2.34-5.2,5.21s2.34,5.2,5.2,5.2,5.21-2.34,5.21-5.2-2.34-5.21-5.21-5.21Zm0,10.09c-2.69,0-4.88-2.19-4.88-4.88s2.19-4.89,4.88-4.89,4.88,2.19,4.88,4.89-2.19,4.88-4.88,4.88Z"/>
        <path class="cls-1" d="M79.1,464.43c-2.86,0-5.2,2.34-5.2,5.21s2.34,5.2,5.2,5.2,5.21-2.34,5.21-5.2-2.34-5.21-5.21-5.21Zm0,10.09c-2.69,0-4.88-2.19-4.88-4.88s2.19-4.88,4.88-4.88,4.88,2.19,4.88,4.88-2.19,4.88-4.88,4.88Z"/>
        <path class="cls-1" d="M319.25,589.02c-2.86,0-5.2,2.34-5.2,5.21s2.34,5.2,5.2,5.2,5.21-2.34,5.21-5.2-2.34-5.21-5.21-5.21Zm0,10.09c-2.69,0-4.88-2.19-4.88-4.88s2.19-4.88,4.88-4.88,4.88,2.19,4.88,4.88-2.19,4.88-4.88,4.88Z"/>
        <path class="cls-1" d="M340.07,507.83c-2.88,0-5.21,2.34-5.21,5.2s2.34,5.21,5.21,5.21,5.2-2.34,5.2-5.21-2.34-5.2-5.2-5.2Zm0,10.09c-2.69,0-4.88-2.19-4.88-4.89s2.19-4.88,4.88-4.88,4.88,2.19,4.88,4.88-2.19,4.89-4.88,4.89Z"/>
        <path class="cls-1" d="M499.67,246.85c-2.86,0-5.2,2.34-5.2,5.21s2.34,5.2,5.2,5.2,5.21-2.34,5.21-5.2-2.34-5.21-5.21-5.21Zm0,10.09c-2.69,0-4.88-2.19-4.88-4.88s2.19-4.88,4.88-4.88,4.88,2.19,4.88,4.88-2.19,4.88-4.88,4.88Z"/>
        <path class="cls-1" d="M260.95,108.93c4.7,0,4.71-7.3,0-7.3s-4.71,7.3,0,7.3h0Z"/>
        <path class="cls-1" d="M563.89,421.24c4.7,0,4.71-7.3,0-7.3s-4.71,7.3,0,7.3h0Z"/>
        <path class="cls-1" d="M162.58,338.47c4.7,0,4.71-7.3,0-7.3s-4.71,7.3,0,7.3h0Z"/>
        <path class="cls-1" d="M368.7,558.65c4.7,0,4.71-7.3,0-7.3s-4.71,7.3,0,7.3h0Z"/>
        <path class="cls-1" d="M306.24,111.79c2.35,0,2.35-3.65,0-3.65s-2.35,3.65,0,3.65h0Z"/>
        <path class="cls-1" d="M207.86,247.64c2.35,0,2.35-3.65,0-3.65s-2.35,3.65,0,3.65h0Z"/>
        <path class="cls-1" d="M132.91,445.96c2.35,0,2.35-3.65,0-3.65s-2.35,3.65,0,3.65h0Z"/>
        <path class="cls-1" d="M314.04,547.46c2.35,0,2.35-3.65,0-3.65s-2.35,3.65,0,3.65h0Z"/>
        <path class="cls-1" d="M501.43,505.29c2.35,0,2.35-3.65,0-3.65s-2.35,3.65,0,3.65h0Z"/>
        <path class="cls-1" d="M517.04,300.73c2.35,0,2.35-3.65,0-3.65s-2.35,3.65,0,3.65h0Z"/>
        <path class="cls-1" d="M428.04,168c2.35,0,2.35-3.65,0-3.65s-2.35,3.65,0,3.65h0Z"/>
        <path class="cls-1" d="M223.48,172.69c2.35,0,2.35-3.65,0-3.65s-2.35,3.65,0,3.65h0Z"/>
        <path class="cls-1" d="M273.44,503.73c2.35,0,2.35-3.65,0-3.65s-2.35,3.65,0,3.65h0Z"/>
        <path class="cls-1" d="M446.77,505.29c2.35,0,2.35-3.65,0-3.65s-2.35,3.65,0,3.65h0Z"/>
      </g>
    </g>
  </g>
</svg>