<?xml version="1.0" encoding="UTF-8"?>
<svg id="Layer_2" data-name="Layer 2" xmlns="http://www.w3.org/2000/svg" viewBox="0 0 66.16 66.21">
  <defs>
    <style>
      .cls-1 {
        fill: #f47878;
      }
    </style>
  </defs>
  <g id="Layer_1-2" data-name="Layer 1">
    <g>
      <path class="cls-1" d="m32.42.01c5.27-.19,10.53,1.53,14.92,5.6,3.73,3.47,5.98,7.79,6.57,12.86.73,6.36-1.04,11.99-5.36,16.75-3.74,4.12-8.48,6.31-13.99,6.73-6.1.46-11.43-1.55-15.87-5.68-3.56-3.31-5.74-7.48-6.4-12.34-.82-6.02.72-11.45,4.55-16.14C20.67,3.1,25.69.54,32.42.01Zm.53,34.87c.48-.03.96-.07,1.44-.09,1.04-.04,2.03-.31,2.99-.69,1.42-.55,2.7-1.33,3.84-2.35,1.6-1.42,2.74-3.13,3.35-5.18.16-.56.14-1.1-.12-1.63-.43-.86-1.58-1.25-2.46-.84-.63.29-.99.77-1.18,1.4-.38,1.28-1.09,2.34-2.08,3.24-1.68,1.54-3.67,2.24-5.9,2.28-.82.02-1.62-.22-2.4-.49-1.43-.5-2.67-1.27-3.66-2.42-.68-.79-1.18-1.67-1.47-2.69-.39-1.38-1.57-1.69-2.63-1.32-.86.3-1.5,1.29-1.06,2.62.77,2.3,2.08,4.2,4.03,5.65,2.17,1.61,4.56,2.55,7.3,2.51Zm-6.51-22.28c-1.08,0-1.95.83-1.95,1.86,0,1.17.85,1.96,2.12,1.96.95,0,1.73-.85,1.77-1.86.03-.89-.81-2.13-1.94-1.95Zm13.26,0c-1.07-.08-1.96.85-1.94,1.91.02,1,.84,1.87,1.88,1.91.99.04,2.04-.67,2.03-1.94-.01-1.05-.81-1.95-1.97-1.89Z"/>
      <path class="cls-1" d="m19,55.27c.08.39-.14.71-.42.99-.88.85-1.78,1.69-2.65,2.54-.42.41-.88.83-.79,1.49.07.55.21,1.09.3,1.64.16,1.02.32,2.04.47,3.06.08.54-.5,1.04-.99,1.17-.52.14-.89-.12-1.3-.33-1.13-.59-2.25-1.17-3.38-1.77-.51-.27-1-.23-1.49.03-1.18.62-2.37,1.23-3.55,1.87-1.02.55-1.79.08-2.08-.87-.07-.23,0-.52.05-.78.18-1.06.38-2.11.57-3.17.05-.31.09-.62.13-.94.06-.48-.16-.84-.49-1.16-.95-.92-1.9-1.84-2.84-2.78-.2-.2-.38-.44-.48-.7-.28-.75.39-1.52,1-1.62.6-.1,1.21-.18,1.82-.27.88-.13,1.75-.25,2.63-.4.45-.08.76-.35.96-.77.59-1.22,1.19-2.45,1.82-3.66.15-.28.38-.54.63-.74.54-.41,1.47-.12,1.76.47.64,1.28,1.3,2.56,1.91,3.86.26.56.68.82,1.24.9,1.07.16,2.15.3,3.23.45.33.05.68.06,1,.14.69.19.95.56.95,1.33Z"/>
      <path class="cls-1" d="m42.6,55.23c.04.44-.22.75-.51,1.04-.88.87-1.73,1.77-2.66,2.58-.72.63-.8,1.34-.62,2.19.19.9.34,1.8.5,2.7.05.28.09.56.14.84.19.99-.51,1.6-1.33,1.62-.21,0-.43-.11-.63-.21-1.07-.56-2.16-1.09-3.2-1.71-.88-.53-1.65-.43-2.5.07-1.09.64-2.25,1.17-3.38,1.75-.51.26-.93.03-1.27-.28-.35-.32-.51-.76-.42-1.25.13-.72.25-1.45.38-2.17.12-.68.26-1.36.37-2.04.07-.45-.1-.85-.41-1.16-.74-.74-1.5-1.46-2.24-2.2-.32-.32-.64-.64-.94-.98-.31-.35-.37-.76-.23-1.19.17-.52.54-.81,1.07-.89,1.42-.22,2.84-.42,4.26-.64.52-.08.85-.38,1.08-.85.6-1.25,1.22-2.5,1.87-3.72.14-.27.4-.52.67-.66.58-.3,1.34-.05,1.68.61.5.98.98,1.96,1.46,2.94.18.35.33.72.52,1.06.24.42.64.59,1.1.66,1.19.17,2.37.35,3.56.52.24.03.49.03.72.08.59.14.95.63.95,1.28Z"/>
      <path class="cls-1" d="m56.68,47.98c.61-.04.95.31,1.19.8.6,1.2,1.19,2.39,1.77,3.6.29.6.73.9,1.4.97.87.09,1.73.25,2.6.37.4.06.8.09,1.2.14.54.06,1,.3,1.2.82.21.54.14,1.06-.3,1.49-.99.96-1.97,1.92-2.95,2.89-.32.32-.57.69-.53,1.16.04.45.13.89.21,1.34.14.8.3,1.59.43,2.39.06.34.11.69.12,1.03.02.53-.47,1.06-.99,1.18-.45.11-.8-.03-1.18-.24-1.15-.64-2.3-1.26-3.47-1.86-.52-.26-1.04-.24-1.58.06-1.2.66-2.4,1.32-3.64,1.9-1.02.48-1.87-.21-1.92-1.21-.03-.56.17-1.14.27-1.71.16-1,.33-2,.48-2.99.05-.35-.1-.66-.34-.9-.63-.62-1.27-1.22-1.9-1.84-.43-.42-.88-.82-1.27-1.27-.32-.36-.48-.79-.27-1.3.21-.51.55-.8,1.11-.88,1.16-.16,2.32-.34,3.47-.51.24-.04.47-.1.71-.13.57-.07.92-.41,1.16-.91.52-1.08,1.05-2.16,1.58-3.24.09-.17.18-.34.28-.51.31-.5.57-.65,1.16-.65Z"/>
    </g>
  </g>
</svg>