<?xml version="1.0" encoding="UTF-8"?>
<svg id="Layer_2" data-name="Layer 2" xmlns="http://www.w3.org/2000/svg" viewBox="0 0 39.75 26.7">
  <defs>
    <style>
      .cls-1 {
        fill: #808285;
      }
    </style>
  </defs>
  <g id="Layer_1-2" data-name="Layer 1">
    <g>
      <path class="cls-1" d="M8.37,0c8.26,8.26,16.54,16.55,24.77,24.78-.6,.6-1.22,1.23-1.9,1.91-1.2-1.22-2.47-2.44-3.65-3.73-.53-.58-.98-.67-1.72-.42-5.25,1.81-10.32,1.13-15.24-1.23-3.97-1.91-7.38-4.56-10.41-7.74-.07-.07-.12-.15-.22-.28,1.42-1.61,2.98-3.05,4.7-4.31,1.7-1.24,3.49-2.36,5.23-3.53-1.15-1.12-2.37-2.32-3.55-3.47,.75-.75,1.37-1.38,1.99-2Zm5.07,8.9c-2.28,2.93-1.73,7.63,1.13,10.17,2.8,2.48,7.43,2.78,9.64,.61-.82-.83-1.62-1.66-2.46-2.47-.1-.09-.35-.06-.52-.04-.7,.05-1.42,.27-2.09,.16-2.55-.43-3.96-2.88-3.18-5.36,.06-.18,.08-.47-.02-.57-.8-.84-1.64-1.64-2.5-2.49Z"/>
      <path class="cls-1" d="M16.07,3.39c.83-.11,1.66-.26,2.5-.32,4.61-.3,8.77,1.1,12.69,3.39,2.97,1.74,5.62,3.89,8.01,6.36,.14,.14,.26,.29,.48,.56-.63,.6-1.2,1.22-1.86,1.75-1.75,1.42-3.53,2.79-5.3,4.18-.33,.26-.57,.27-.9-.07-1.28-1.32-2.6-2.6-3.88-3.92-.17-.17-.28-.52-.25-.76,.7-5.48-3.6-9.74-9.07-8.98-.17,.02-.42,0-.53-.1-.66-.62-1.29-1.27-1.93-1.91l.02-.18Z"/>
    </g>
  </g>
</svg>