<?xml version="1.0" encoding="UTF-8"?>
<svg id="Layer_2" data-name="Layer 2" xmlns="http://www.w3.org/2000/svg" xmlns:xlink="http://www.w3.org/1999/xlink" viewBox="0 0 106.01 37.36">
  <defs>
    <style>
      .cls-1 {
        fill: #fff;
      }

      .cls-2 {
        fill: #131718;
      }

      .cls-3 {
        fill: #b9bbba;
      }

      .cls-4 {
        fill: #e62329;
      }

      .cls-5, .cls-6 {
        fill: none;
      }

      .cls-6 {
        clip-path: url(#clippath);
      }
    </style>
    <clipPath id="clippath">
      <path class="cls-5" d="m13.92,5.56v4.01s4-4,4-4h-4Zm-7.76,13.18l18.63,18.62,18.73-18.72L24.81,0,6.16,18.74Z"/>
    </clipPath>
  </defs>
  <g id="Layer_1-2" data-name="Layer 1">
    <g>
      <g>
        <path class="cls-1" d="m21.91,34.03l-.48.48h-5.59s-.48-.48-.48-.48h6.56Zm-1.06,1.06l-.58.58-.49.48h-2.31s-.48-.48-.48-.48h3.28s.58-.58.58-.58Zm16.43-16.42l-.59-.57H.59S.01,18.67.01,18.67l.58.58h36.09s-.48.5-.48.5H1.07s1.16,1.15,1.16,1.15h32.81s-.48.49-.48.49H2.71s1.16,1.15,1.16,1.15h29.53s-.48.49-.48.49H4.35s1.16,1.15,1.16,1.15h26.25s-.48.49-.48.49H5.99s1.16,1.15,1.16,1.15h22.97s-.48.49-.48.49H7.63s1.16,1.15,1.16,1.15h19.68s-.48.49-.48.49H9.27s1.16,1.15,1.16,1.15h16.4s-.48.49-.48.49h-15.44s1.16,1.15,1.16,1.15h13.12s-.48.49-.48.49h-12.16s1.16,1.15,1.16,1.15h9.84s-.48.49-.48.49h-8.88S0,18.68,0,18.68L17.49,1.21h2.32S18.65.05,18.65.05l18.63,18.62ZM2.23,16.45l-1.16,1.16h35.13s-1.16-1.15-1.16-1.15H2.23Zm1.64-1.64l-1.16,1.16h31.85s-1.16-1.15-1.16-1.15H3.88Zm1.64-1.64l-1.16,1.16h28.57s-1.16-1.15-1.16-1.15H5.52Zm1.64-1.64l-1.16,1.16h25.29s-1.16-1.15-1.16-1.15H7.16Zm1.64-1.64l-1.16,1.16h22.01s-1.16-1.15-1.16-1.15H8.8Zm1.64-1.64l-1.16,1.16h18.73s-1.16-1.15-1.16-1.15H10.44Zm1.64-1.64l-1.16,1.16h15.44s-1.16-1.15-1.16-1.15h-13.13Zm1.64-1.64l-1.16,1.16h12.16s-1.16-1.15-1.16-1.15h-9.84Zm1.64-1.64l-1.16,1.16h8.88s-1.16-1.16-1.16-1.16h-6.56Zm1.64-1.64l-1.16,1.16h5.6s-1.16-1.16-1.16-1.16h-3.28Z"/>
        <polygon class="cls-2" points="19.8 1.21 17.49 1.21 18.65 .05 19.8 1.21"/>
        <polygon class="cls-2" points="17.01 1.69 20.29 1.69 21.45 2.85 15.85 2.85 17.01 1.69"/>
        <polygon class="cls-2" points="15.37 3.33 21.93 3.33 23.09 4.49 14.21 4.49 15.37 3.33"/>
        <polygon class="cls-2" points="13.72 4.97 23.57 4.97 24.73 6.13 12.56 6.13 13.72 4.97"/>
        <polygon class="cls-2" points="12.08 6.61 25.21 6.62 26.37 7.78 10.92 7.77 12.08 6.61"/>
        <polygon class="cls-2" points="10.44 8.25 26.85 8.26 28.01 9.42 9.28 9.41 10.44 8.25"/>
        <polygon class="cls-2" points="8.8 9.89 28.49 9.9 29.65 11.06 7.64 11.05 8.8 9.89"/>
        <polygon class="cls-2" points="7.16 11.53 30.13 11.54 31.29 12.7 6 12.69 7.16 11.53"/>
        <polygon class="cls-2" points="5.52 13.17 31.77 13.18 32.93 14.34 4.36 14.33 5.52 13.17"/>
        <polygon class="cls-2" points="3.88 14.81 33.41 14.82 34.57 15.98 2.72 15.97 3.88 14.81"/>
        <polygon class="cls-2" points="2.23 16.45 35.05 16.46 36.21 17.62 1.07 17.61 2.23 16.45"/>
        <polygon class="cls-2" points="36.69 18.11 37.27 18.69 36.69 19.26 .59 19.25 .01 18.67 .59 18.09 36.69 18.11"/>
        <path class="cls-2" d="m1.07,19.73h35.13s-1.15,1.17-1.15,1.17H2.23s-1.16-1.17-1.16-1.17Zm33.97,1.17l1.16-1.16-1.17,1.16h0Z"/>
        <path class="cls-2" d="m36.2,19.75l-1.15,1.16,1.15-1.16Z"/>
        <path class="cls-2" d="m2.71,21.37h31.85s-1.15,1.17-1.15,1.17H3.87s-1.16-1.17-1.16-1.17Zm30.69,1.17l1.16-1.16-1.17,1.16h0Z"/>
        <path class="cls-2" d="m34.56,21.39l-1.15,1.16,1.15-1.16Z"/>
        <path class="cls-2" d="m4.35,23.02h28.57s-1.15,1.17-1.15,1.17H5.51s-1.16-1.17-1.16-1.17Zm27.41,1.17l1.16-1.16-1.17,1.16h0Z"/>
        <path class="cls-2" d="m32.92,23.03l-1.15,1.16,1.15-1.16Z"/>
        <path class="cls-2" d="m5.99,24.66h25.28s-1.15,1.17-1.15,1.17H7.15s-1.16-1.17-1.16-1.17Zm24.13,1.17l1.16-1.16-1.17,1.16h0Z"/>
        <path class="cls-2" d="m31.28,24.67l-1.15,1.16,1.15-1.16Z"/>
        <path class="cls-2" d="m7.63,26.3h22s-1.15,1.17-1.15,1.17H8.79s-1.16-1.17-1.16-1.17Zm20.85,1.17l1.16-1.16-1.17,1.16h0Z"/>
        <path class="cls-2" d="m29.64,26.31l-1.15,1.16,1.15-1.16Z"/>
        <path class="cls-2" d="m9.27,27.94h18.72s-1.15,1.17-1.15,1.17H10.43s-1.16-1.17-1.16-1.17Zm17.57,1.17l1.16-1.16-1.17,1.16h0Z"/>
        <path class="cls-2" d="m27.99,27.95l-1.15,1.16,1.15-1.16Z"/>
        <path class="cls-2" d="m10.91,29.58h15.44s-1.15,1.16-1.15,1.16h-13.13s-1.16-1.16-1.16-1.16Zm14.28,1.16l1.16-1.16-1.17,1.16h0Z"/>
        <path class="cls-2" d="m26.35,29.59l-1.15,1.16,1.15-1.16Z"/>
        <path class="cls-2" d="m12.55,31.22h12.16s-1.15,1.16-1.15,1.16h-9.84s-1.16-1.16-1.16-1.16Zm11,1.16l1.16-1.16-1.17,1.16h0Z"/>
        <path class="cls-2" d="m24.71,31.23l-1.15,1.16,1.15-1.16Z"/>
        <path class="cls-2" d="m14.19,32.86h8.88s-1.15,1.16-1.15,1.16h-6.56s-1.16-1.16-1.16-1.16Zm7.72,1.16l1.16-1.16-1.17,1.16h0Z"/>
        <path class="cls-2" d="m23.07,32.87l-1.15,1.16,1.15-1.16Z"/>
        <path class="cls-2" d="m15.84,34.51h5.59s-1.15,1.16-1.15,1.16h-3.28s-1.16-1.16-1.16-1.16Zm4.44,1.16l1.16-1.16-1.17,1.16h0Z"/>
        <path class="cls-2" d="m21.43,34.51l-1.15,1.16,1.15-1.16Z"/>
        <path class="cls-2" d="m17.47,36.15h2.31s-1.15,1.16-1.15,1.16l-1.16-1.16Zm2.32,0l-1.16,1.16,1.16-1.16Z"/>
        <path class="cls-4" d="m17.92,5.56l-4,4v-4.01s4,0,4,0Zm6.87,31.8L6.16,18.74,24.81,0l18.72,18.63-18.73,18.72Z"/>
        <g class="cls-6">
          <path class="cls-3" d="m24.9,11.53l-.09-11.53,1.58,1.57-.13,19.14c0,2.83,2.29,5.13,5.12,5.13,2.83,0,5.13-2.29,5.13-5.12v-9.07s7.02,6.99,7.02,6.99l-12.46,12.45-12.86-12.87,6.69-6.69Z"/>
        </g>
        <polyline class="cls-3" points="13.92 10.94 13.91 26.48 17.91 30.48 17.92 6.92"/>
      </g>
      <g>
        <path class="cls-2" d="m48.83,29.77h-1.12v-1.11h1.12v1.11Zm.86-1.11h1.11v1.11h-1.11v-1.11Zm-3.17,6.06v-4.29h1.35v3.87c0,1.26.46,1.89,1.39,1.89s1.39-.63,1.39-1.89v-3.87h1.34v4.29c0,1.69-.91,2.54-2.74,2.54s-2.74-.85-2.74-2.54"/>
        <polygon class="cls-2" points="53.44 37.14 53.44 30.43 55.09 30.43 57.65 35.44 57.67 35.44 57.67 30.43 58.96 30.43 58.96 37.14 57.31 37.14 54.75 32.12 54.73 32.12 54.73 37.14 53.44 37.14"/>
        <path class="cls-2" d="m61.56,29.79h-1.12v-1.11h1.12v1.11Zm-1.23.64h1.35v6.71h-1.35v-6.71Z"/>
        <polygon class="cls-2" points="64.74 37.14 62.43 30.43 63.87 30.43 65.59 35.69 65.61 35.69 67.31 30.43 68.65 30.43 66.39 37.14 64.74 37.14"/>
        <polygon class="cls-2" points="69.52 37.14 69.52 30.43 73.48 30.43 73.48 31.49 70.87 31.49 70.87 33.14 73.26 33.14 73.26 34.2 70.87 34.2 70.87 36.08 73.5 36.08 73.5 37.14 69.52 37.14"/>
        <g>
          <path class="cls-2" d="m74.75,37.14v-6.71h1.45c1.03,0,1.74.07,2.12.21.69.25,1.04.79,1.04,1.61,0,.4-.12.75-.38,1.04-.25.29-.59.46-1.01.52v.02c.29.03.53.26.71.69l1.08,2.62h-1.5l-.81-2.09c-.1-.26-.21-.44-.33-.53-.13-.11-.34-.16-.61-.16h-.43v2.79h-1.35Zm1.35-5.65v1.81h.44c.95,0,1.42-.31,1.42-.93,0-.36-.15-.61-.46-.74-.2-.09-.52-.13-.96-.13h-.44Z"/>
          <path class="cls-2" d="m84.46,30.55l-.12,1.11c-.44-.19-.9-.29-1.36-.29-.28,0-.52.06-.7.19-.24.16-.36.41-.36.74,0,.3.25.56.76.78.81.34,1.29.55,1.42.64.51.35.76.85.76,1.5,0,.69-.25,1.21-.75,1.57-.44.31-1.03.46-1.77.46-.44,0-1.02-.09-1.72-.26l.12-1.21c.51.28,1.01.41,1.52.41.29,0,.56-.07.79-.2.27-.17.4-.39.4-.66,0-.34-.25-.62-.76-.85-.88-.39-1.35-.61-1.42-.65-.51-.35-.76-.84-.76-1.47,0-.7.24-1.23.73-1.59.42-.31.95-.46,1.61-.46.59,0,1.12.08,1.6.24"/>
        </g>
        <path class="cls-2" d="m87.19,29.79h-1.12v-1.11h1.12v1.11Zm-1.23.64h1.35v6.71h-1.35v-6.71Z"/>
        <polygon class="cls-2" points="89.97 37.14 89.97 31.49 88.05 31.49 88.05 30.43 93.24 30.43 93.24 31.49 91.32 31.49 91.32 37.14 89.97 37.14"/>
        <polygon class="cls-2" points="94.09 37.14 94.09 30.43 98.05 30.43 98.05 31.49 95.44 31.49 95.44 33.14 97.83 33.14 97.83 34.2 95.44 34.2 95.44 36.08 98.07 36.08 98.07 37.14 94.09 37.14"/>
        <path class="cls-2" d="m103.16,30.55l-.12,1.11c-.44-.19-.9-.29-1.36-.29-.28,0-.52.06-.7.19-.24.16-.35.41-.35.74,0,.3.25.56.76.78.81.34,1.29.55,1.42.64.51.35.76.85.76,1.5,0,.69-.25,1.21-.75,1.57-.44.31-1.03.46-1.77.46-.44,0-1.02-.09-1.72-.26l.12-1.21c.51.28,1.01.41,1.52.41.29,0,.56-.07.79-.2.27-.17.4-.39.4-.66,0-.34-.25-.62-.76-.85-.88-.39-1.35-.61-1.42-.65-.51-.35-.76-.84-.76-1.47,0-.7.24-1.23.73-1.59.42-.31.95-.46,1.61-.46.59,0,1.12.08,1.6.24"/>
        <path class="cls-2" d="m105.89,29.79h-1.11v-1.11h1.11v1.11Zm-1.23.64h1.35v6.71h-1.35v-6.71Z"/>
        <polygon class="cls-2" points="46.57 27.24 46.57 20.54 47.92 20.54 47.92 23.42 50.34 20.54 51.99 20.54 49.23 23.7 52.1 27.24 50.35 27.24 47.93 24.13 47.92 24.13 47.92 27.24 46.57 27.24"/>
        <path class="cls-2" d="m55.24,19.88h-1.11v-1.11h1.11v1.11Zm.86-1.11h1.12v1.11h-1.12v-1.11Zm-3.17,6.06v-4.29h1.35v3.87c0,1.26.46,1.89,1.39,1.89s1.39-.63,1.39-1.89v-3.87h1.35v4.29c0,1.69-.91,2.54-2.74,2.54s-2.74-.85-2.74-2.54"/>
        <polygon class="cls-2" points="59.92 27.24 59.92 20.54 61.26 20.54 61.26 26.19 63.86 26.19 63.86 27.24 59.92 27.24"/>
        <polygon class="cls-2" points="65.94 27.24 65.94 21.6 64.02 21.6 64.02 20.54 69.21 20.54 69.21 21.6 67.29 21.6 67.29 27.24 65.94 27.24"/>
        <g>
          <path class="cls-2" d="m72.32,19.88h-1.11v-1.11h1.11v1.11Zm.86-1.11h1.11v1.11h-1.11v-1.11Zm-3.17,6.06v-4.29h1.35v3.87c0,1.26.46,1.89,1.39,1.89s1.39-.63,1.39-1.89v-3.87h1.35v4.29c0,1.69-.91,2.54-2.74,2.54s-2.74-.85-2.74-2.54"/>
          <path class="cls-2" d="m76.88,27.24v-6.71h1.45c1.03,0,1.74.07,2.12.21.69.25,1.04.78,1.04,1.6,0,.4-.13.75-.38,1.04-.25.29-.59.46-1.01.52v.02c.29.03.53.26.71.69l1.08,2.62h-1.5l-.81-2.09c-.1-.26-.21-.44-.33-.53-.13-.11-.34-.16-.61-.16h-.43v2.79h-1.35Zm1.35-5.65v1.81h.44c.95,0,1.42-.31,1.42-.93,0-.36-.15-.61-.46-.74-.2-.09-.53-.13-.96-.13h-.44Z"/>
        </g>
        <path class="cls-2" d="m47.68,10h-1.11v-1.11h1.11v1.11Zm-1.23.64h1.35v6.71h-1.35v-6.71Z"/>
        <path class="cls-2" d="m52.97,10.77l-.12,1.11c-.44-.19-.9-.29-1.36-.29-.28,0-.52.06-.7.19-.24.16-.36.41-.36.74,0,.3.25.56.76.78.81.34,1.29.55,1.42.64.51.35.76.85.76,1.5,0,.69-.25,1.21-.75,1.57-.44.31-1.03.46-1.77.46-.44,0-1.02-.09-1.72-.26l.12-1.21c.51.28,1.01.41,1.52.41.29,0,.56-.07.79-.2.27-.17.4-.39.4-.66,0-.34-.25-.62-.76-.85-.88-.39-1.35-.61-1.42-.65-.51-.35-.76-.84-.76-1.47,0-.7.24-1.23.73-1.59.42-.31.95-.46,1.61-.46.59,0,1.12.08,1.6.24"/>
        <polygon class="cls-2" points="55.8 17.35 55.8 11.7 53.88 11.7 53.88 10.65 59.07 10.65 59.07 11.7 57.15 11.7 57.15 17.35 55.8 17.35"/>
        <path class="cls-2" d="m59.23,17.35l2.61-6.71h1.52l2.63,6.71h-1.49l-.58-1.54h-2.72l-.59,1.54h-1.39Zm4.32-2.59l-.97-2.77h-.02l-.97,2.77h1.96Z"/>
        <polygon class="cls-2" points="66.8 17.35 66.8 10.65 68.45 10.65 71 15.66 71.02 15.66 71.02 10.65 72.31 10.65 72.31 17.35 70.67 17.35 68.1 12.34 68.08 12.34 68.08 17.35 66.8 17.35"/>
        <g>
          <path class="cls-2" d="m73.8,17.35v-6.71h2.34c.58,0,1.04.1,1.4.31.51.29.76.76.76,1.41,0,.39-.12.72-.36.99-.24.27-.57.44-.97.51v.02c.46.05.82.21,1.1.49.29.28.43.63.43,1.04,0,.74-.29,1.28-.86,1.6-.4.22-.9.34-1.5.34h-2.34Zm1.35-5.65v1.65h.55c.85,0,1.27-.27,1.27-.82,0-.35-.14-.58-.41-.71-.19-.08-.49-.12-.88-.12h-.52Zm0,2.65v1.94h.63c.92,0,1.38-.31,1.38-.93,0-.67-.46-1.01-1.38-1.01h-.63Z"/>
          <path class="cls-2" d="m79.62,14.93v-4.29h1.35v3.87c0,1.26.46,1.89,1.39,1.89s1.39-.63,1.39-1.89v-3.87h1.34v4.29c0,1.69-.91,2.54-2.74,2.54s-2.74-.85-2.74-2.54"/>
        </g>
        <polygon class="cls-2" points="86.61 17.35 86.61 10.65 87.95 10.65 87.95 16.3 90.56 16.3 90.56 17.35 86.61 17.35"/>
        <polygon class="cls-2" points="47.79 7.46 47.79 1.81 45.87 1.81 45.87 .76 51.06 .76 51.06 1.81 49.14 1.81 49.14 7.46 47.79 7.46"/>
        <rect class="cls-2" x="51.21" y="6.12" width="1.35" height="1.35"/>
        <path class="cls-2" d="m58.82,6.24l.06,1.12c-.6.14-1.1.21-1.53.21-1.13,0-2.01-.28-2.65-.83-.69-.58-1.03-1.43-1.03-2.53s.33-2.02.98-2.64c.65-.63,1.55-.94,2.7-.94.54,0,1.04.09,1.52.28l-.1,1.13c-.42-.24-.9-.36-1.45-.36-.68,0-1.22.23-1.63.69-.41.45-.61,1.03-.61,1.74s.21,1.27.61,1.72c.41.45.96.67,1.66.67.62,0,1.11-.09,1.47-.28"/>
        <rect class="cls-2" x="59.75" y="6.12" width="1.34" height="1.35"/>
      </g>
    </g>
  </g>
</svg>