<?xml version="1.0" encoding="UTF-8"?>
<svg id="Layer_2" data-name="Layer 2" xmlns="http://www.w3.org/2000/svg" viewBox="0 0 64.57 64.39">
  <defs>
    <style>
      .cls-1 {
        fill: #f47878;
      }
    </style>
  </defs>
  <g id="Layer_1-2" data-name="Layer 1">
    <g>
      <path class="cls-1" d="m31.57,0c9.26.07,17.04,3.06,23.43,9.37,5.64,5.56,8.85,12.33,9.45,20.21.74,9.71-2.33,18.17-9.14,25.16-5.65,5.8-12.66,9.01-20.74,9.57-9.62.66-17.98-2.46-24.88-9.16C3.93,49.54.69,42.62.1,34.6c-.68-9.21,2.19-17.31,8.43-24.11C14.76,3.68,22.65.3,31.57,0Zm.52,11.19c-.96.11-1.93.16-2.87.34-1.78.33-3.45,1-5.01,1.92-1.59.94-3.02,2.05-4.19,3.5-1.3,1.61-2.3,3.4-2.99,5.35-.36,1.01-.55,2.06-.64,3.14-.09,1.03-.13,2.05,0,3.08.21,1.59.76,3.07,1.43,4.51.96,2.05,2.05,4.04,3.31,5.92.98,1.47,1.94,2.96,2.99,4.37,1.19,1.6,2.44,3.15,3.72,4.68,1.37,1.65,2.8,3.25,4.19,4.87.19.22.3.26.5.01,1.19-1.39,2.4-2.77,3.59-4.16,1.89-2.2,3.68-4.48,5.36-6.85,1.5-2.12,2.93-4.29,4.15-6.59.79-1.49,1.55-3,2.02-4.62.3-1.05.61-2.11.59-3.22,0-.57-.03-1.15-.07-1.72-.03-.48-.06-.97-.17-1.44-.18-.79-.4-1.58-.66-2.36-.63-1.88-1.57-3.59-2.88-5.1-1.2-1.38-2.62-2.51-4.2-3.44-1.28-.75-2.63-1.32-4.07-1.68-1.35-.33-2.73-.48-4.14-.53Z"/>
      <path class="cls-1" d="m38.3,26.99c.09,3.31-2.61,5.84-5.81,5.96-3.79.14-6.1-3.03-6.24-5.76-.17-3.44,2.67-6.25,5.71-6.29,3.75-.05,6.34,2.49,6.34,6.09Z"/>
    </g>
  </g>
</svg>