<?xml version="1.0" encoding="UTF-8"?>
<svg id="Layer_2" data-name="Layer 2" xmlns="http://www.w3.org/2000/svg" viewBox="0 0 193.08 38.49">
  <defs>
    <style>
      .cls-1 {
        fill: #e6a540;
      }

      .cls-2 {
        fill: #f79e1b;
      }

      .cls-3 {
        fill: #2566af;
      }

      .cls-4 {
        fill: #0077a6;
        fill-rule: evenodd;
      }

      .cls-5 {
        fill: #ff5f00;
      }

      .cls-6 {
        fill: #eb001b;
      }

      .cls-7 {
        fill: #f79410;
      }

      .cls-8 {
        fill: #231f20;
      }
    </style>
  </defs>
  <g id="Layer_1-2" data-name="Layer 1">
    <g>
      <g>
        <path class="cls-8" d="m47.59,37.97v.1h.09s.03,0,.05-.01c.01,0,.02-.02.02-.04,0-.01,0-.03-.02-.04-.01,0-.03-.01-.05-.01h-.09Zm.09-.07s.08,0,.11.03c.03.02.04.05.04.09,0,.03,0,.06-.03.08-.02.02-.05.03-.09.04l.12.14h-.09l-.11-.14h-.04v.14h-.08v-.37h.17,0Zm-.02.49s.08,0,.12-.02c.04-.02.07-.04.1-.07.03-.03.05-.06.07-.1.03-.08.03-.16,0-.24-.02-.04-.04-.07-.07-.1-.03-.03-.06-.05-.1-.07-.04-.02-.08-.02-.12-.02-.04,0-.08,0-.12.02-.04.02-.07.04-.1.07-.09.09-.11.22-.06.34.01.04.04.07.06.1.03.03.06.05.1.07.04.02.08.02.12.02m0-.7c.11,0,.21.04.29.12.04.04.07.08.09.13.04.1.04.21,0,.31-.02.05-.05.09-.09.13-.04.04-.08.06-.13.08-.05.02-.1.03-.16.03-.05,0-.11-.01-.16-.03-.05-.02-.09-.05-.13-.08-.04-.04-.07-.08-.08-.13-.04-.1-.04-.21,0-.31.02-.05.05-.09.09-.13.04-.04.08-.07.13-.08.05-.02.1-.03.16-.03m-37.17-1.41c0-.7.46-1.28,1.21-1.28s1.2.55,1.2,1.28-.48,1.28-1.2,1.28-1.21-.58-1.21-1.28m3.23,0v-1.99h-.87v.49c-.27-.36-.69-.58-1.26-.58-1.12,0-1.99.88-1.99,2.09s.88,2.09,1.99,2.09c.57,0,.98-.23,1.26-.58v.48h.87v-1.99h0Zm29.27,0c0-.7.46-1.28,1.21-1.28s1.2.55,1.2,1.28-.48,1.28-1.2,1.28-1.21-.58-1.21-1.28m3.23,0v-3.59h-.87v2.09c-.27-.36-.69-.58-1.26-.58-1.12,0-1.99.88-1.99,2.09s.88,2.09,1.99,2.09c.57,0,.98-.23,1.26-.58v.48h.87v-1.99Zm-21.75-1.32c.56,0,.92.35,1.01.97h-2.07c.09-.58.44-.97,1.06-.97m.02-.78c-1.17,0-1.98.85-1.98,2.09s.85,2.09,2.04,2.09c.6,0,1.15-.15,1.63-.56l-.42-.64c-.33.27-.76.42-1.16.42-.56,0-1.07-.26-1.19-.98h2.96c0-.11.02-.22.02-.33,0-1.24-.78-2.09-1.89-2.09m10.46,2.09c0-.7.46-1.28,1.21-1.28s1.2.55,1.2,1.28-.48,1.28-1.2,1.28-1.21-.58-1.21-1.28m3.23,0v-1.99h-.87v.49c-.28-.36-.69-.58-1.26-.58-1.12,0-1.99.88-1.99,2.09s.88,2.09,1.99,2.09c.57,0,.98-.23,1.26-.58v.48h.87v-1.99h0Zm-8.12,0c0,1.21.84,2.09,2.13,2.09.6,0,1-.13,1.43-.48l-.42-.7c-.33.23-.67.36-1.04.36-.69,0-1.2-.51-1.2-1.28s.51-1.27,1.2-1.28c.38,0,.72.13,1.04.36l.42-.7c-.43-.34-.83-.48-1.43-.48-1.28,0-2.13.88-2.13,2.09m11.17-2.09c-.5,0-.83.23-1.05.58v-.48h-.86v3.98h.87v-2.23c0-.66.28-1.03.85-1.03.19,0,.37.03.54.1l.27-.82c-.19-.08-.44-.11-.62-.11m-23.22.42c-.42-.27-.99-.42-1.62-.42-1.01,0-1.66.48-1.66,1.28,0,.65.48,1.05,1.37,1.18l.41.06c.48.07.7.19.7.42,0,.31-.32.48-.91.48s-1.03-.19-1.33-.42l-.41.68c.48.35,1.08.52,1.72.52,1.15,0,1.82-.54,1.82-1.3,0-.7-.52-1.07-1.39-1.19l-.41-.06c-.38-.05-.68-.12-.68-.39,0-.29.28-.47.76-.47.51,0,1,.19,1.24.34l.38-.7h0Zm11.18-.42c-.5,0-.83.23-1.05.58v-.48h-.86v3.98h.87v-2.23c0-.66.28-1.03.85-1.03.19,0,.37.03.54.1l.27-.82c-.19-.08-.44-.11-.62-.11m-7.39.1h-1.42v-1.21h-.88v1.21h-.81v.79h.81v1.82c0,.92.36,1.47,1.38,1.47.38,0,.81-.12,1.08-.31l-.25-.74c-.26.15-.54.23-.77.23-.43,0-.57-.27-.57-.67v-1.8h1.42v-.79Zm-12.95,3.98v-2.5c0-.94-.6-1.58-1.57-1.58-.51,0-1.03.15-1.4.71-.27-.44-.71-.71-1.32-.71-.43,0-.84.13-1.17.59v-.49h-.87v3.98h.87v-2.21c0-.69.38-1.06.98-1.06s.87.38.87,1.05v2.22h.88v-2.21c0-.69.4-1.06.97-1.06s.87.38.87,1.05v2.22h.88Z"/>
        <path class="cls-7" d="m48.08,25.02v-.58h-.15l-.18.4-.17-.4h-.15v.58h.11v-.44l.16.38h.11l.16-.38v.44h.11,0Zm-.96,0v-.48h.19v-.1h-.5v.1h.19v.48h.11Z"/>
        <path class="cls-5" d="m30.84,27.51h-13.13V3.92h13.13v23.59Z"/>
        <path class="cls-6" d="m18.54,15.72c0-4.79,2.24-9.05,5.73-11.8-2.64-2.08-5.91-3.21-9.27-3.21C6.72.71,0,7.43,0,15.72s6.72,15,15,15c3.36,0,6.63-1.13,9.27-3.21-3.49-2.75-5.73-7.01-5.73-11.8"/>
        <path class="cls-2" d="m48.55,15.72c0,8.29-6.72,15-15,15-3.36,0-6.63-1.13-9.27-3.21,3.49-2.75,5.73-7.01,5.73-11.8s-2.24-9.05-5.73-11.8c2.64-2.08,5.91-3.21,9.27-3.21,8.29,0,15,6.72,15,15"/>
      </g>
      <g>
        <path class="cls-3" d="m96.4,29.28h-5.09l3.18-19.57h5.1l-3.18,19.57Zm-9.38-19.57l-4.86,13.46-.57-2.9h0s-1.71-8.8-1.71-8.8c0,0-.21-1.76-2.42-1.76h-8.03l-.09.33s2.46.51,5.33,2.24l4.43,17h5.31l8.11-19.57h-5.48Zm40.07,19.57h4.68l-4.08-19.57h-4.1c-1.89,0-2.35,1.46-2.35,1.46l-7.6,18.11h5.31l1.06-2.91h6.48l.6,2.91h0Zm-5.61-6.92l2.68-7.32,1.51,7.32h-4.18Zm-7.44-7.94l.73-4.2s-2.24-.85-4.58-.85c-2.53,0-8.53,1.1-8.53,6.48,0,5.06,7.05,5.12,7.05,7.77s-6.32,2.18-8.41.51l-.76,4.39s2.27,1.1,5.75,1.1,8.72-1.8,8.72-6.7-7.11-5.56-7.11-7.77c0-2.21,4.96-1.93,7.14-.73h0Z"/>
        <path class="cls-1" d="m81.59,20.27l-1.71-8.8s-.21-1.76-2.42-1.76h-8.03l-.09.33s3.86.8,7.56,3.8c3.54,2.86,4.69,6.43,4.69,6.43Z"/>
      </g>
      <path class="cls-4" d="m153.57,37.89h-.13c0-.06-.03-.16-.03-.19s0-.1-.1-.1h-.19v.29h-.1v-.67h.29c.13,0,.22.03.22.16,0,.1-.03.13-.06.16.03.03.06.06.06.13v.13s0,.03.03.03v.06h0Zm-.13-.48c0-.1-.06-.1-.1-.1h-.22v.19h.19c.06,0,.13-.03.13-.1Zm.54.13c0-.38-.32-.7-.73-.7-.38,0-.7.32-.7.7,0,.41.32.73.7.73.41,0,.73-.32.73-.73Zm-.1,0c0,.35-.29.6-.64.6s-.6-.25-.6-.6c0-.32.25-.6.6-.6s.64.29.64.6Zm39.19-12.85c0,.95-.6,1.4-1.69,1.4h-2.07v-.95h2.07c.19,0,.35-.03.41-.1.06-.06.13-.16.13-.29s-.06-.25-.13-.32c-.06-.06-.19-.1-.38-.1-.99-.03-2.23.03-2.23-1.37,0-.64.41-1.34,1.53-1.34h2.13v.95h-1.97c-.19,0-.32,0-.41.06-.1.1-.16.19-.16.35s.1.25.22.32c.13.03.25.06.41.06h.57c.6,0,.99.13,1.24.35.19.22.32.51.32.95Zm-4.49-.95c-.25-.22-.64-.35-1.24-.35h-.57c-.16,0-.29-.03-.41-.06-.13-.06-.22-.16-.22-.32s.03-.25.16-.35c.1-.06.22-.06.41-.06h1.97v-.95h-2.13c-1.15,0-1.53.7-1.53,1.34,0,1.4,1.24,1.34,2.23,1.37.19,0,.32.03.38.1.06.06.13.19.13.32s-.06.22-.13.29c-.1.06-.22.1-.41.1h-2.07v.95h2.07c1.08,0,1.69-.45,1.69-1.4,0-.45-.13-.73-.32-.95h0Zm-4.07,1.43h-2.51v-.89h2.45v-.89h-2.45v-.83h2.51v-.92h-3.56v4.45h3.56v-.92h0Zm-4.71-3.31c-.35-.19-.76-.22-1.3-.22h-2.45v4.45h1.08v-1.62h1.15c.38,0,.6.03.76.19.19.22.19.6.19.89v.54h1.05v-.86c0-.41-.03-.6-.16-.83-.1-.13-.29-.29-.54-.38.29-.1.76-.48.76-1.18,0-.51-.19-.8-.54-.99Zm-6.04-.22h-3.4l-1.37,1.46-1.3-1.46h-4.29v4.45h4.23l1.37-1.46,1.3,1.46h2.07v-1.49h1.34c.92,0,1.85-.25,1.85-1.5,0-1.21-.95-1.46-1.78-1.46h0Zm5.19,1.85c-.16.06-.32.06-.51.06l-1.3.03v-1.02h1.3c.19,0,.38,0,.51.1.13.06.22.19.22.38s-.1.35-.22.45Zm-5.19.22h-1.4v-1.15h1.4c.38,0,.64.16.64.54s-.25.6-.64.6Zm-4.1.16l1.65-1.75v3.59l-1.65-1.85Zm-2.58,1.3h-2.64v-.89h2.35v-.89h-2.35v-.83h2.67l1.18,1.3-1.21,1.3h0Zm23.03-6.74h-1.53l-2-3.34v3.34h-2.16l-.41-.99h-2.23l-.41.99h-1.24c-.51,0-1.18-.13-1.56-.51-.35-.38-.54-.89-.54-1.69,0-.67.1-1.27.57-1.75.32-.35.89-.51,1.62-.51h1.02v.95h-1.02c-.38,0-.6.06-.83.25-.19.19-.29.54-.29,1.02s.1.83.29,1.05c.16.16.45.22.73.22h.48l1.53-3.5h1.59l1.78,4.2v-4.2h1.65l1.88,3.09v-3.09h1.08v4.45h0Zm-12.63-4.45h-1.08v4.45h1.08v-4.45h0Zm-2.26.19c-.35-.19-.73-.19-1.27-.19h-2.45v4.45h1.05v-1.62h1.15c.38,0,.64.03.8.19.19.22.16.6.16.86v.57h1.08v-.89c0-.38-.03-.57-.19-.8-.1-.13-.29-.29-.51-.38.29-.13.76-.48.76-1.18,0-.51-.22-.8-.57-1.02h0Zm-4.49,3.34h-2.48v-.89h2.45v-.92h-2.45v-.8h2.48v-.92h-3.56v4.45h3.56v-.92h0Zm-4.36-3.53h-1.75l-1.3,3.02-1.4-3.02h-1.72v4.2l-1.81-4.2h-1.59l-1.91,4.45h1.15l.41-.99h2.23l.41.99h2.16v-3.5l1.56,3.5h.92l1.56-3.5v3.5h1.08v-4.45h0,0Zm17.24,2.51l-.73-1.75-.73,1.75h1.46Zm-9.23-.7c-.16.1-.32.1-.54.1h-1.3v-.99h1.3c.19,0,.41,0,.54.06.13.1.19.22.19.41s-.06.35-.19.41Zm-17.56.7l.73-1.75.73,1.75h-1.46ZM192.82,0h-37.95v16.03l1.3-2.96h2.77l.38.73v-.73h3.24l.73,1.59.7-1.59h10.34c.48,0,.89.1,1.21.35v-.35h2.83v.35c.48-.25,1.08-.35,1.78-.35h4.1l.38.73v-.73h3.02l.45.73v-.73h2.96v6.23h-2.99l-.57-.95v.95h-3.72l-.41-1.02h-.92l-.41,1.02h-1.94c-.76,0-1.34-.19-1.72-.38v.38h-4.61v-1.43c0-.19-.03-.22-.16-.22h-.16v1.65h-8.91v-.8l-.32.8h-1.88l-.32-.76v.76h-3.59l-.38-1.02h-.92l-.41,1.02h-1.85v18.8h37.95v-11.42c-.41.19-.99.29-1.56.29h-2.77v-.38c-.32.25-.89.38-1.43.38h-8.72v-1.43c0-.19-.03-.19-.19-.19h-.16v1.62h-2.86v-1.69c-.48.22-1.02.22-1.49.22h-.32v1.46h-3.5l-.83-.95-.92.95h-5.63v-6.23h5.73l.83.95.89-.95h3.85c.45,0,1.18.06,1.49.38v-.38h3.44c.35,0,1.02.06,1.46.38v-.38h5.19v.38c.29-.25.83-.38,1.3-.38h2.89v.38c.32-.22.76-.38,1.34-.38h1.97V0h0Z"/>
    </g>
  </g>
</svg>