<?xml version="1.0" encoding="UTF-8"?>
<svg id="Layer_2" data-name="Layer 2" xmlns="http://www.w3.org/2000/svg" viewBox="0 0 64.57 64.38">
  <defs>
    <style>
      .cls-1 {
        fill: #f47878;
      }
    </style>
  </defs>
  <g id="Layer_1-2" data-name="Layer 1">
    <path class="cls-1" d="m30.43.02c8.5-.25,16.17,2.09,22.72,7.65,6.55,5.57,10.35,12.69,11.23,21.19,1,9.77-1.98,18.35-8.72,25.51-5.41,5.74-12.17,9-20.02,9.81-10.11,1.04-18.85-2.15-26.08-9.16C4.51,50.13,1.45,44.06.4,37.09c-1.41-9.34.91-17.75,6.81-25.09C13.13,4.64,21.01.86,30.43.02Zm-15.25,23.75c.12.76.17,1.54.39,2.27.3,1,.72,1.97,1.11,2.95.72,1.81,1.71,3.48,2.8,5.09,1.03,1.52,2.17,2.96,3.43,4.3,1.32,1.41,2.72,2.73,4.2,3.97,2.29,1.92,4.79,3.54,7.5,4.81,1.19.56,2.42,1.01,3.68,1.39.96.29,1.93.54,2.93.49.62-.03,1.23-.14,1.84-.24,1.11-.19,2.15-.62,3.02-1.32,1.01-.82,1.92-1.76,2.87-2.65.4-.38.55-1.21.15-1.68-.15-.17-.27-.37-.44-.53-.98-.96-1.97-1.91-2.94-2.88-.92-.92-1.84-1.84-2.74-2.78-.57-.59-1.47-.69-2.11-.07-.3.29-.59.59-.88.89-.82.84-1.65,1.67-2.46,2.51-.91.94-2.48,1.27-3.61.44-1.35-.98-2.68-2-3.94-3.09-1.01-.87-1.93-1.85-2.87-2.8-1.18-1.19-2.21-2.51-3.17-3.88-.32-.45-.55-.96-.56-1.52-.02-.83.3-1.54.88-2.13.72-.73,1.46-1.45,2.18-2.18.44-.44.88-.87,1.3-1.32.25-.26.4-.56.43-.94.04-.59-.26-1.01-.64-1.39-1.17-1.17-2.35-2.34-3.53-3.51-.75-.74-1.51-1.48-2.26-2.23-.36-.36-1.21-.57-1.69-.18-.12.1-.26.18-.37.28-.6.59-1.2,1.2-1.79,1.79-1.68,1.69-2.58,3.72-2.69,6.13Z"/>
  </g>
</svg>