<?xml version="1.0" encoding="UTF-8"?>
<svg id="Layer_2" data-name="Layer 2" xmlns="http://www.w3.org/2000/svg" viewBox="0 0 42.37 42.37">
  <defs>
    <style>
      .cls-1 {
        fill: #fff;
      }

      .cls-2 {
        fill: #f47878;
      }
    </style>
  </defs>
  <g id="Layer_1-2" data-name="Layer 1">
    <g>
      <path class="cls-2" d="m21.18,21.51c8.09,0,14.75,6.09,15.66,13.94,3.5-3.84,5.6-8.96,5.52-14.58C42.21,9.86,33.36.63,22.36.03,10.13-.63,0,9.09,0,21.18c0,5.5,2.09,10.5,5.52,14.27.91-7.85,7.57-13.94,15.66-13.94Zm0-18.21c4.58,0,8.29,3.71,8.29,8.29s-3.71,8.29-8.29,8.29-8.29-3.71-8.29-8.29,3.71-8.29,8.29-8.29Z"/>
      <path class="cls-1" d="m36.85,35.45c-.91-7.85-7.57-13.94-15.66-13.94s-14.75,6.09-15.66,13.94c3.87,4.25,9.46,6.92,15.66,6.92s11.79-2.67,15.66-6.92Z"/>
      <circle class="cls-1" cx="21.18" cy="11.59" r="8.29"/>
    </g>
  </g>
</svg>