<?xml version="1.0" encoding="UTF-8"?>
<svg id="Layer_2" data-name="Layer 2" xmlns="http://www.w3.org/2000/svg" xmlns:xlink="http://www.w3.org/1999/xlink" viewBox="0 0 305.29 113.76">
  <defs>
    <style>
      .cls-1 {
        fill: url(#linear-gradient-2);
      }

      .cls-2, .cls-3 {
        fill: #fff;
      }

      .cls-3 {
        fill-rule: evenodd;
      }

      .cls-4 {
        fill: #e0e0e0;
      }

      .cls-5 {
        fill: #f1f2f2;
      }

      .cls-6 {
        fill: url(#linear-gradient);
      }
    </style>
    <linearGradient id="linear-gradient" x1="37.36" y1="60.75" x2="305.29" y2="60.75" gradientUnits="userSpaceOnUse">
      <stop offset="0" stop-color="#20b038"/>
      <stop offset="1" stop-color="#60d66a"/>
    </linearGradient>
    <linearGradient id="linear-gradient-2" x1="1185.06" y1="-2483.34" x2="1185.06" y2="-2430.14" gradientTransform="translate(-2361.82 -4957.45) scale(2.04 -2.04)" xlink:href="#linear-gradient"/>
  </defs>
  <g id="Layer_1-2" data-name="Layer 1">
    <g>
      <path class="cls-4" d="m96.75,16.53C86.1,5.88,71.95,0,56.86,0,25.78,0,.49,25.29.47,56.37c0,9.94,2.59,19.63,7.53,28.18L0,113.76l29.89-7.84c8.24,4.49,17.51,6.86,26.95,6.86h.02c31.08,0,56.38-25.29,56.39-56.37,0-15.06-5.86-29.23-16.5-39.88h0Zm-39.89,86.73h-.02c-8.41,0-16.66-2.26-23.85-6.53l-1.71-1.01-17.74,4.65,4.74-17.29-1.12-1.77c-4.69-7.46-7.17-16.08-7.17-24.93.01-25.83,21.03-46.85,46.89-46.85,12.52,0,24.29,4.88,33.13,13.74,8.85,8.86,13.72,20.63,13.71,33.15-.01,25.83-21.04,46.85-46.87,46.85Z"/>
      <g>
        <rect class="cls-6" x="37.36" y="21.98" width="267.93" height="77.55" rx="38.78" ry="38.78"/>
        <path class="cls-1" d="m2.59,110.52l7.63-27.88c-4.71-8.16-7.19-17.41-7.18-26.89C3.05,26.09,27.19,1.96,56.85,1.96c14.4,0,27.91,5.61,38.06,15.78,10.16,10.17,15.75,23.68,15.75,38.06-.01,29.66-24.15,53.79-53.81,53.79,0,0,0,0,0,0h-.02c-9.01,0-17.85-2.26-25.71-6.55l-28.53,7.48h0Z"/>
        <g>
          <path class="cls-5" d="m146.98,60.39l-5.04-15.4h3.7l4.38,13.64h-1.85l4.58-13.64h3.3l4.4,13.64h-1.78l4.49-13.64h3.41l-5.04,15.4h-3.83l-3.89-11.97h1.01l-4,11.97h-3.83Z"/>
          <path class="cls-5" d="m175.82,48.38c.94,0,1.78.19,2.52.56s1.32.95,1.75,1.72c.43.77.64,1.76.64,2.96v6.78h-3.43v-6.25c0-.95-.21-1.66-.63-2.11-.42-.45-1.01-.68-1.77-.68-.54,0-1.03.11-1.46.34-.43.23-.77.58-1.01,1.04-.24.47-.36,1.07-.36,1.8v5.85h-3.43v-16.32h3.43v7.77l-.77-.99c.42-.79,1.03-1.4,1.83-1.83.79-.42,1.69-.64,2.71-.64Z"/>
          <path class="cls-5" d="m187.48,60.57c-.92,0-1.72-.16-2.38-.47-.66-.32-1.17-.74-1.52-1.29-.35-.54-.53-1.15-.53-1.83s.17-1.32.52-1.85c.34-.53.89-.94,1.64-1.24s1.72-.45,2.93-.45h3.15v2h-2.77c-.81,0-1.36.13-1.66.4-.3.26-.45.59-.45.99,0,.44.17.79.52,1.05.34.26.82.38,1.42.38s1.09-.14,1.54-.41c.46-.27.78-.67.99-1.2l.53,1.58c-.25.76-.7,1.34-1.36,1.74-.66.4-1.51.59-2.55.59Zm3.61-.18v-2.31l-.22-.51v-4.14c0-.73-.22-1.3-.67-1.72-.45-.41-1.13-.62-2.06-.62-.63,0-1.25.1-1.86.3-.61.2-1.13.47-1.55.8l-1.23-2.4c.65-.45,1.42-.81,2.33-1.06.91-.25,1.83-.37,2.77-.37,1.8,0,3.2.42,4.2,1.28,1,.85,1.5,2.18,1.5,3.98v6.75h-3.21Z"/>
          <path class="cls-5" d="m196,51.46v-2.64h8.21v2.64h-8.21Zm6.25,9.11c-1.39,0-2.48-.36-3.26-1.07-.78-.71-1.17-1.77-1.17-3.18v-10.38h3.43v10.34c0,.5.13.88.4,1.16s.62.41,1.08.41c.54,0,1-.15,1.39-.44l.92,2.42c-.35.25-.77.44-1.26.56-.49.12-1,.19-1.53.19Z"/>
          <path class="cls-5" d="m210.96,60.57c-1.01,0-1.98-.12-2.92-.36-.93-.24-1.67-.55-2.21-.91l1.14-2.46c.54.34,1.18.61,1.92.83.74.21,1.47.32,2.19.32.79,0,1.35-.1,1.68-.29s.5-.45.5-.79c0-.28-.13-.49-.38-.63-.26-.14-.6-.25-1.02-.32-.43-.07-.89-.15-1.4-.22s-1.02-.17-1.53-.3c-.51-.12-.98-.31-1.41-.56-.43-.25-.77-.59-1.02-1.01-.26-.42-.39-.97-.39-1.65,0-.75.22-1.41.65-1.98s1.06-1.02,1.88-1.35,1.8-.5,2.95-.5c.81,0,1.63.09,2.46.26s1.53.43,2.09.77l-1.14,2.44c-.57-.34-1.15-.57-1.73-.69-.58-.12-1.14-.19-1.68-.19-.76,0-1.32.1-1.67.31-.35.21-.53.47-.53.79,0,.29.13.51.38.66.26.15.6.26,1.02.35.42.09.89.17,1.4.23.51.07,1.02.17,1.53.3.51.13.98.32,1.4.56s.76.57,1.02.99c.26.42.4.96.4,1.64,0,.73-.22,1.38-.66,1.95-.44.56-1.07,1.01-1.9,1.33-.83.32-1.84.48-3.02.48Z"/>
          <path class="cls-5" d="m216.87,60.39l6.86-15.4h3.52l6.89,15.4h-3.74l-5.63-13.6h1.41l-5.65,13.6h-3.65Zm3.43-3.3l.95-2.71h7.92l.97,2.71h-9.83Z"/>
          <path class="cls-5" d="m235.51,64.66v-16.1h3.28v2.42l-.07,3.52.22,3.5v6.67h-3.43Zm7-4.09c-1,0-1.87-.22-2.62-.66-.75-.44-1.33-1.11-1.75-2.01s-.63-2.04-.63-3.42.2-2.54.59-3.43c.4-.89.97-1.56,1.72-2,.75-.44,1.64-.66,2.68-.66,1.11,0,2.12.25,3,.76s1.59,1.21,2.11,2.12c.52.91.78,1.98.78,3.21s-.26,2.33-.78,3.23c-.52.91-1.22,1.61-2.11,2.11-.89.5-1.89.75-3,.75Zm-.59-2.82c.57,0,1.08-.13,1.53-.4s.81-.64,1.08-1.13.41-1.07.41-1.75-.14-1.28-.41-1.76c-.27-.48-.63-.86-1.08-1.12-.45-.26-.96-.4-1.53-.4s-1.09.13-1.54.4c-.46.26-.81.64-1.08,1.12-.26.48-.4,1.07-.4,1.76s.13,1.26.4,1.75c.26.49.62.87,1.08,1.13.45.26.97.4,1.54.4Z"/>
          <path class="cls-5" d="m250.69,64.66v-16.1h3.28v2.42l-.07,3.52.22,3.5v6.67h-3.43Zm7-4.09c-1,0-1.87-.22-2.62-.66-.75-.44-1.33-1.11-1.75-2.01s-.63-2.04-.63-3.42.2-2.54.59-3.43c.4-.89.97-1.56,1.72-2,.75-.44,1.64-.66,2.68-.66,1.11,0,2.12.25,3,.76s1.59,1.21,2.11,2.12c.52.91.78,1.98.78,3.21s-.26,2.33-.78,3.23c-.52.91-1.22,1.61-2.11,2.11-.89.5-1.89.75-3,.75Zm-.59-2.82c.57,0,1.08-.13,1.53-.4s.81-.64,1.08-1.13.41-1.07.41-1.75-.14-1.28-.41-1.76c-.27-.48-.63-.86-1.08-1.12-.45-.26-.96-.4-1.53-.4s-1.09.13-1.54.4c-.46.26-.81.64-1.08,1.12-.26.48-.4,1.07-.4,1.76s.13,1.26.4,1.75c.26.49.62.87,1.08,1.13.45.26.97.4,1.54.4Z"/>
          <path class="cls-5" d="m157.99,79.72c-.85,0-1.64-.14-2.36-.42s-1.34-.68-1.87-1.2-.94-1.12-1.24-1.82-.45-1.46-.45-2.29.15-1.59.45-2.29.71-1.3,1.25-1.82,1.16-.92,1.88-1.2c.72-.28,1.51-.42,2.36-.42s1.66.15,2.39.44c.73.29,1.35.73,1.86,1.3l-1.04,1.01c-.43-.45-.91-.78-1.44-1-.53-.22-1.1-.33-1.71-.33s-1.21.11-1.75.32c-.54.21-1,.51-1.4.9-.39.38-.7.84-.92,1.37-.22.53-.33,1.1-.33,1.72s.11,1.19.33,1.72c.22.53.53.98.92,1.37.39.38.86.68,1.4.9.54.21,1.12.32,1.75.32s1.18-.11,1.71-.33c.53-.22,1.01-.56,1.44-1.02l1.04,1.01c-.51.58-1.13,1.01-1.86,1.31-.73.3-1.53.45-2.41.45Z"/>
          <path class="cls-5" d="m164.33,79.59v-11.87h1.54v11.87h-1.54Z"/>
          <path class="cls-5" d="m169.56,69.48c-.3,0-.55-.1-.74-.29-.2-.19-.3-.43-.3-.7s.1-.53.3-.72c.2-.19.44-.29.74-.29s.55.09.74.28.3.42.3.7-.1.53-.29.73c-.19.2-.44.3-.75.3Zm-.77,10.11v-8.48h1.54v8.48h-1.54Z"/>
          <path class="cls-5" d="m176.95,79.69c-.86,0-1.63-.19-2.31-.56s-1.21-.89-1.59-1.54-.58-1.4-.58-2.24.19-1.59.58-2.24c.38-.65.91-1.16,1.59-1.53s1.45-.55,2.31-.55c.77,0,1.45.15,2.06.46.6.3,1.07.75,1.4,1.35l-1.17.75c-.28-.42-.62-.72-1.02-.92-.4-.2-.83-.3-1.29-.3-.55,0-1.05.12-1.49.37-.44.25-.78.59-1.04,1.03-.26.44-.38.97-.38,1.58s.13,1.14.38,1.58c.26.45.6.79,1.04,1.04.44.25.93.37,1.49.37.46,0,.89-.1,1.29-.3.4-.2.74-.5,1.02-.92l1.17.74c-.33.59-.8,1.04-1.4,1.35s-1.29.47-2.06.47Z"/>
          <path class="cls-5" d="m182.28,79.59v-11.87h1.54v11.87h-1.54Zm1.25-2.05l.03-1.97,4.88-4.46h1.86l-3.74,3.68-.83.7-2.19,2.05Zm5.23,2.05l-3.33-4.13.99-1.23,4.22,5.36h-1.89Z"/>
          <path class="cls-5" d="m195.22,72.38v-1.26h5.41v1.26h-5.41Zm4.13,7.31c-.85,0-1.51-.23-1.98-.69s-.7-1.11-.7-1.97v-7.78h1.54v7.71c0,.46.11.81.34,1.06.23.25.56.37.98.37.48,0,.88-.13,1.2-.4l.48,1.1c-.23.2-.51.35-.84.45s-.66.14-1.02.14Z"/>
          <path class="cls-5" d="m206.41,79.69c-.85,0-1.61-.19-2.27-.56-.66-.37-1.18-.89-1.57-1.54s-.58-1.4-.58-2.23.19-1.59.58-2.24c.38-.65.91-1.16,1.57-1.53.66-.37,1.42-.55,2.27-.55s1.6.18,2.26.55c.67.37,1.19.88,1.57,1.52.38.65.57,1.4.57,2.25s-.19,1.59-.57,2.24-.9,1.16-1.57,1.54c-.67.37-1.42.56-2.26.56Zm0-1.34c.54,0,1.03-.12,1.46-.37.43-.25.77-.59,1.02-1.05.25-.45.37-.98.37-1.58s-.12-1.13-.37-1.58c-.25-.44-.58-.79-1.02-1.03-.43-.25-.92-.37-1.46-.37s-1.03.12-1.46.37-.77.59-1.02,1.03c-.26.44-.38.97-.38,1.58s.13,1.12.38,1.58c.26.45.6.8,1.02,1.05.43.25.91.37,1.46.37Z"/>
          <path class="cls-5" d="m222.47,79.72c-.85,0-1.64-.14-2.36-.42s-1.34-.68-1.87-1.2-.94-1.12-1.24-1.82-.45-1.46-.45-2.29.15-1.59.45-2.29.71-1.3,1.25-1.82,1.16-.92,1.88-1.2c.72-.28,1.51-.42,2.36-.42s1.66.15,2.39.44c.73.29,1.35.73,1.86,1.3l-1.04,1.01c-.43-.45-.91-.78-1.44-1-.53-.22-1.1-.33-1.71-.33s-1.21.11-1.75.32c-.54.21-1,.51-1.4.9-.39.38-.7.84-.92,1.37-.22.53-.33,1.1-.33,1.72s.11,1.19.33,1.72c.22.53.53.98.92,1.37.39.38.86.68,1.4.9.54.21,1.12.32,1.75.32s1.18-.11,1.71-.33c.53-.22,1.01-.56,1.44-1.02l1.04,1.01c-.51.58-1.13,1.01-1.86,1.31-.73.3-1.53.45-2.41.45Z"/>
          <path class="cls-5" d="m233.34,71.03c.69,0,1.3.13,1.83.4.53.27.94.67,1.24,1.22s.45,1.23.45,2.06v4.88h-1.54v-4.7c0-.82-.2-1.44-.6-1.86-.4-.42-.96-.62-1.69-.62-.54,0-1.02.11-1.42.32-.41.21-.72.53-.94.94-.22.42-.33.93-.33,1.55v4.37h-1.54v-11.87h1.54v5.68l-.3-.61c.28-.55.7-.99,1.28-1.3s1.25-.46,2.02-.46Z"/>
          <path class="cls-5" d="m242.18,79.69c-.63,0-1.18-.11-1.66-.32-.47-.21-.84-.51-1.1-.89-.26-.38-.38-.81-.38-1.29s.11-.87.33-1.25c.22-.37.58-.67,1.07-.9s1.17-.34,2.01-.34h2.69v1.1h-2.62c-.77,0-1.29.13-1.55.38-.27.26-.4.57-.4.93,0,.42.17.75.5,1,.33.25.79.38,1.38.38s1.08-.13,1.51-.38.74-.63.94-1.12l.3,1.06c-.2.5-.56.9-1.07,1.19-.51.29-1.16.44-1.94.44Zm2.78-.1v-1.79l-.08-.34v-3.06c0-.65-.19-1.16-.57-1.51-.38-.36-.95-.54-1.7-.54-.5,0-.99.08-1.47.25-.48.17-.89.39-1.22.66l-.64-1.15c.44-.35.96-.62,1.58-.81.61-.19,1.26-.28,1.93-.28,1.16,0,2.06.28,2.69.85.63.57.94,1.43.94,2.59v5.12h-1.46Z"/>
          <path class="cls-5" d="m248.05,72.38v-1.26h5.41v1.26h-5.41Zm4.13,7.31c-.85,0-1.51-.23-1.98-.69s-.7-1.11-.7-1.97v-7.78h1.54v7.71c0,.46.11.81.34,1.06.23.25.56.37.98.37.48,0,.88-.13,1.2-.4l.48,1.1c-.23.2-.51.35-.84.45s-.66.14-1.02.14Z"/>
        </g>
      </g>
      <path class="cls-3" d="m42.93,32.44c-1.04-2.32-2.14-2.37-3.13-2.41-.81-.03-1.74-.03-2.67-.03s-2.44.35-3.71,1.74c-1.28,1.39-4.88,4.76-4.88,11.62s4.99,13.47,5.69,14.4c.7.93,9.64,15.44,23.79,21.02,11.77,4.64,14.16,3.72,16.71,3.48,2.55-.23,8.24-3.37,9.4-6.62,1.16-3.25,1.16-6.04.81-6.62-.35-.58-1.28-.93-2.67-1.63s-8.24-4.07-9.52-4.53-2.21-.7-3.13.7c-.93,1.39-3.6,4.53-4.41,5.46-.81.93-1.63,1.05-3.02.35-1.39-.7-5.88-2.17-11.2-6.91-4.14-3.69-6.94-8.25-7.75-9.64-.81-1.39-.09-2.15.61-2.84.63-.62,1.39-1.63,2.09-2.44.69-.81.93-1.39,1.39-2.32.46-.93.23-1.74-.12-2.44s-3.06-7.58-4.29-10.34h0Z"/>
      <path class="cls-2" d="m96.29,16.35C85.76,5.82,71.77.02,56.86.01,26.13.01,1.13,25.01,1.12,55.73c0,9.82,2.56,19.41,7.44,27.86L.65,112.46l29.55-7.75c8.14,4.44,17.31,6.78,26.64,6.78h.02c30.72,0,55.73-25,55.74-55.72,0-14.89-5.79-28.89-16.31-39.42h0Zm-39.43,85.74h-.02c-8.31,0-16.47-2.24-23.58-6.46l-1.69-1-17.54,4.6,4.68-17.09-1.1-1.75c-4.64-7.37-7.09-15.9-7.08-24.65.01-25.54,20.79-46.31,46.35-46.31,12.38,0,24.01,4.83,32.75,13.58,8.75,8.75,13.56,20.39,13.56,32.77-.01,25.54-20.79,46.32-46.33,46.32Z"/>
    </g>
  </g>
</svg>