<?xml version="1.0" encoding="UTF-8"?>
<svg id="Layer_2" data-name="Layer 2" xmlns="http://www.w3.org/2000/svg" viewBox="0 0 62.88 72.87">
  <defs>
    <style>
      .cls-1 {
        fill: #f47878;
      }
    </style>
  </defs>
  <g id="Layer_1-2" data-name="Layer 1">
    <g>
      <path class="cls-1" d="m50.49,24.52c.96.2,1.92.41,2.89.58.9.16,1.68-.22,2.47-.57.22-.1.45-.17.66-.27.25-.12.27.1.33.21.26.54.55,1.06.72,1.63.51,1.71,1.65,2.94,2.97,4.07.78.67,1.52,1.38,2.22,2.13.17.18.12.6.11.9-.02.49-.06.99-.14,1.48-.14.97-.26,1.95-.48,2.9-.32,1.37-.67,2.74-1.09,4.08-.5,1.59-1.17,3.12-2.03,4.56-.41.7-.77,1.42-1.23,2.09-.65.96-1.32,1.92-2.08,2.8-.97,1.13-2,2.2-3.05,3.25-1.52,1.52-3.29,2.73-5.12,3.84-1.53.93-3.12,1.74-4.8,2.34-1.31.47-2.64.89-3.99,1.22-1.32.32-2.68.51-4.03.75-.22.04-.45.02-.7.04,0-.15,0-.32,0-.49,0-5.28.02-10.55-.01-15.83-.01-1.88-.87-3.33-2.61-4.14-.55-.26-1.2-.42-1.81-.42-4.8-.04-9.61-.02-14.41-.02-1.03,0-2.06-.03-3.09.01-.51.02-.8-.19-1.08-.57-1.01-1.42-2.04-2.82-3.07-4.23-.14-.19-.32-.37-.43-.58-.45-.83-1.17-1.32-2.03-1.68-1.36-.58-2.69-1.23-4.03-1.85-.41-.19-.82-.38-1.23-.56-.26-.11-.32-.32-.33-.58,0-.25.07-.4.31-.5,1.05-.44,2.07-.93,3.13-1.33.62-.23.85-.76,1.15-1.24.28-.44.52-.9.79-1.35.14-.25.34-.16.54-.08.28.11.56.27.85.29,1.16.08,1.74-.36,1.99-1.49.39-1.72.74-3.44,1.11-5.16.05-.23.15-.36.42-.33.51.07.96.21,1.35.6.84.87,1.74,1.69,2.6,2.54.66.65,1.47.67,2.31.59.18-.02.36-.04.53-.08.81-.19,1.06-.83,1.3-1.53.36-1.08-.09-1.89-.75-2.65-1.13-1.31-2.01-2.77-2.68-4.35-.51-1.18-1.48-1.98-2.29-2.91-.65-.75-1.28-1.52-1.9-2.29-.39-.48-.75-.98-1.16-1.52.62-.54,1.2-1.1,1.85-1.56.19-.14.6,0,.9.06.29.05.57.15.91.24,0,.08.03.21,0,.31-.17.53-.02,1,.24,1.45.59,1.03,1.18,2.06,1.79,3.09.2.33.28.68.29,1.07,0,.34.07.69.19,1.02.45,1.3,2.03,1.46,2.84.58.58-.62,1.07-1.33,1.58-2.03.66-.9,1.34-1.76,2.32-2.37.88-.55,1.69-1.22,2.53-1.83.58-.42.66-1.08.84-1.68.28-.91-.01-1.63-.83-2.15-.5-.32-.98-.68-1.45-1.03-.53-.4-1.18-.4-1.79-.51-.76-.13-1.52-.22-2.28-.33-.39-.06-.77-.13-1.16-.28.7-.29,1.39-.59,2.1-.85.81-.29,1.62-.59,2.45-.8,1.1-.29,2.21-.52,3.32-.74.77-.15,1.55-.24,2.33-.3.92-.08,1.84-.15,2.76-.14,1.15.02,2.3.13,3.45.21,2.13.15,4.18.7,6.23,1.29,3.14.91,5.99,2.37,8.64,4.27.23.17.24.29.04.49-.56.57-1.11,1.13-1.64,1.73-.31.34-.69.49-1.11.52-1.16.09-2.33.15-3.49.23-.25.02-.52,0-.75.09-.26.1-.32-.01-.44-.19-.48-.7-.98-1.39-1.47-2.08-.41-.58-.96-.81-1.67-.84-1.08-.05-2.04.35-3.04.64-.68.19-1.36.42-1.91.9-1,.87-1.21,2.1-.15,2.92.56.43,1.23.72,1.85,1.08.95.54,1.91,1.05,2.82,1.66.26.17.43.63.43.96,0,.2-.38.42-.6.6-.06.05-.22.02-.31-.03-.71-.38-1.36-.81-1.79-1.54-.25-.44-.62-.81-.95-1.2-.26-.31-.61-.45-1.02-.45-.77-.02-1.52.14-2.28.2-.61.05-1.24-.12-1.85-.23-.72-.12-1.43-.3-2.15-.39-.56-.07-1.07.15-1.39.63-.31.46-.56.96-.79,1.46-.23.49-.06.97.24,1.35.52.66,1.12,1.27,1.89,1.63.43.2.94.23,1.42.34.14.03.29.07.47.11-.57.31-1.11.56-1.6.88-.35.23-.55.61-.58,1.04-.04.65,0,1.28.43,1.82.32.41.74.67,1.28.63.65-.05,1.29-.14,1.94-.2.54-.06,1.08-.11,1.63-.15.35-.03.7-.06,1.05-.08.89-.07,1.68.31,2.5.56.8.24,1.58.52,2.43.4.69-.1,1.37-.26,2.05-.38.43-.08.85-.14,1.28-.19.1-.01.22.03.32.08.77.4,1.53.81,2.3,1.22.19.1.27.23.26.46-.02.48,0,.95,0,1.46-.68.08-1.35.19-2.02.23-.94.05-1.85.27-2.74.54-.3.09-.4.04-.5-.25-.18-.5-.39-.99-.62-1.47-.39-.81-1.18-1.08-2.18-.78-.81.25-1.59.62-2.38.95-.59.25-.79.83-1.06,1.34-1.01,1.98-2.02,3.97-3.02,5.96-.28.55-.58,1.1-.79,1.67-.09.25-.08.6.03.85.43.96.91,1.9,1.37,2.84.34.69,1.03.84,1.67,1.04,1.21.38,2.43.72,3.66,1.05.42.11.72.32.92.69.69,1.33,1.9,2.13,3.04,2.99.71.54,1.41,1.1,2.1,1.66.11.09.19.25.23.4.54,1.85,1.03,3.71,1.64,5.54.28.83.74,1.61,1.2,2.36.5.81,1.43.88,2.17.48.66-.35,1.28-.79,1.93-1.17.49-.29.62-.77.76-1.26.34-1.2.7-2.4,1.04-3.61.4-1.4.8-2.81,1.21-4.21.43-1.47.88-2.93,1.32-4.39.21-.71.42-1.42.63-2.12.02-.07.04-.14.04-.21.02-.96.04-1.92.07-2.89.04-1.05.1-2.11.14-3.16.05-1.4-1.01-1.96-2.21-1.81-.62.08-1.25.15-1.87.21-.23.02-.53.1-.68,0-.16-.12-.17-.43-.26-.66-.11-.3-.25-.6-.33-.91-.03-.13.03-.3.11-.42.18-.27.39-.53.6-.8Z"/>
      <path class="cls-1" d="m22.88,44.13c.1-.05.19-.14.29-.14,2.11,0,4.23-.04,6.34,0,1.38.03,2.24.89,2.26,2.34.03,1.71,0,3.43,0,5.14,0,6.29,0,12.59,0,18.88,0,.88-.24,1.71-1.09,2.15-.42.22-.94.35-1.42.35-4.11.03-8.23.02-12.34.02-3.92,0-7.84-.01-11.75,0-1.06,0-2.1-.75-2.3-1.62-.06-.27-.07-.55-.07-.83,0-8.02.01-16.04,0-24.06,0-1.6,1.15-2.43,2.42-2.4,1.99.04,3.98.01,5.97.02.14,0,.29.01.49.02,0,.21,0,.4,0,.59,0,2.95,0,5.9,0,8.85,0,.51.2.9.63,1.15.45.26.91.16,1.3-.11.92-.63,1.82-1.29,2.73-1.94.31-.22.62-.46.96-.7.83.61,1.66,1.22,2.5,1.82.43.31.84.65,1.3.92.75.44,1.76-.03,1.8-.99.05-.92.01-1.84.01-2.75,0-2.2,0-4.41,0-6.61,0-.03,0-.07,0-.1Zm-12.07,25.27s0,0,0-.01c.98,0,1.96,0,2.94,0,.32,0,.64,0,.95-.03.48-.05.89-.42.93-.79.07-.69-.16-1.24-.66-1.4-.28-.09-.59-.13-.89-.14-.72-.02-1.45,0-2.17,0-1.55,0-3.09.02-4.64.02-.69,0-1.26.53-1.16,1.34.06.48.59,1.02,1.02,1.02,1.23,0,2.45,0,3.68,0Zm-1.82-5.35c-.59,0-1.18,0-1.76,0-.64,0-1.1.45-1.11,1.08-.02.71.43,1.25,1.08,1.26,1.19.02,2.38.02,3.57,0,.49-.01.96-.17,1.18-.68.35-.82-.22-1.64-1.15-1.66-.6-.01-1.2,0-1.8,0Z"/>
      <path class="cls-1" d="m52.77,29.56c-.05.87-.09,1.66-.14,2.45,0,.06,0,.12,0,.18.1,1.71-.31,3.32-.81,4.93-.8,2.57-1.53,5.16-2.28,7.74-.36,1.23-.71,2.46-1.07,3.69-.12.43-.29.58-1.06.92-.25-.59-.54-1.17-.73-1.78-.53-1.76-1.03-3.54-1.53-5.31-.17-.61-.64-.95-1.11-1.31-1.11-.86-2.28-1.66-3.33-2.58-.59-.52-1.02-1.23-1.47-1.89-.32-.47-.74-.75-1.26-.9-1.46-.43-2.92-.84-4.37-1.28-.17-.05-.34-.23-.43-.4-.24-.43-.45-.88-.64-1.34-.06-.16-.08-.39,0-.54.77-1.55,1.55-3.1,2.34-4.64.35-.68.73-1.34,1.06-2.03.2-.41.61-.48.97-.65.07-.03.14-.04.21-.07.31-.15.51-.11.6.27.07.29.23.56.34.84.49,1.27,1.29,1.62,2.6,1.22,1.32-.4,2.66-.63,4.03-.73.69-.05,1.37-.23,2.05-.36.17-.03.33-.14.49-.21.09.21.18.41.26.62.3.81.55,1.63.9,2.42.42.97,1.11,1.08,2.04.97.78-.09,1.56-.16,2.37-.24Z"/>
      <path class="cls-1" d="m31.77,13.89c.62-.08,1.25-.15,1.87-.24.27-.04.44.07.57.3.11.19.26.35.37.54.77,1.3,2.06,1.9,3.36,2.47.52.23,1.1.13,1.58-.23.47-.34.92-.71,1.4-1.04.81-.57.87-1.35.64-2.2-.13-.51-.35-.99-.48-1.5-.11-.41-.37-.68-.72-.88-1.09-.62-2.19-1.24-3.29-1.86-.24-.14-.46-.3-.73-.48.37-.11.71-.21,1.05-.32.36-.11.72-.23,1.09-.34.25-.08.42-.04.59.2.48.7.99,1.39,1.5,2.06.41.54.94.84,1.66.8,1.33-.09,2.67-.14,4-.23.64-.05,1.29-.13,1.92-.27.91-.2,1.48-.9,2.1-1.52.53-.53,1.1-1.03,1.7-1.58,6.45,5.64,10.09,12.78,10.87,21.37-.04.03-.07.07-.11.1-.08-.12-.14-.25-.24-.35-.41-.41-.8-.83-1.25-1.19-.63-.51-.95-1.21-1.28-1.92-.44-.97-.87-1.96-1.32-2.93-.42-.9-1.37-1.2-2.28-.84-.72.28-1.44.56-2.17.81-.2.07-.44.1-.64.06-.93-.17-1.85-.38-2.79-.54-.78-.13-1.51-.06-1.99.71-.26.42-.58.81-.86,1.22-.05.08-.07.18-.1.27-.05-.04-.11-.08-.16-.12,0-.78,0-1.55,0-2.33,0-.75-.25-1.37-.95-1.75-1.05-.56-2.09-1.13-3.13-1.7-.64-.35-1.31-.24-1.98-.12-.92.16-1.83.35-2.75.45-.37.04-.78-.09-1.16-.19-.8-.21-1.58-.51-2.39-.67-.51-.1-1.06-.05-1.59-.03-.47.02-.95.11-1.45.11.22-.11.43-.23.65-.34.83-.39,1.08-1.1.95-1.86-.16-.9-.6-1.29-1.5-1.49-.19-.04-.37-.09-.56-.13,0-.1,0-.2,0-.29Z"/>
      <path class="cls-1" d="m15.26,21.16c-.89-.84-1.76-1.69-2.68-2.5-.26-.23-.65-.36-1-.45-.28-.07-.52-.15-.7-.38-.47-.58-1.14-.62-1.76-.48-.64.14-1.07.64-1.22,1.31-.41,1.81-.8,3.63-1.2,5.45-.04.18-.1.36-.13.48-.54-.08-1.04-.16-1.55-.22-.46-.05-.82.2-1.05.54-.45.66-.84,1.35-1.24,2.04-.25.43-.5.81-1.04.95-.4.11-.77.33-1.16.5-.11.04-.23.06-.4.1.73-6.81,3.27-12.77,7.8-17.95.33.45.65.84.92,1.26.69,1.07,1.56,1.99,2.45,2.88.77.76,1.37,1.6,1.81,2.58.59,1.3,1.35,2.5,2.22,3.63-.03.08-.06.16-.08.25Z"/>
      <path class="cls-1" d="m20.5,51.12c-.58-.4-1.15-.79-1.73-1.19-.1-.07-.2-.14-.29-.21-.89-.76-1.56-.68-2.44,0-.58.45-1.19.88-1.79,1.32-.05.04-.12.06-.22.1v-7.15c.1,0,.19-.03.28-.03,1.93,0,3.85,0,5.78,0,.14,0,.28.05.42.08,0,.03.02.07.02.1,0,2.2-.01,4.39-.02,6.59,0,.1.02.19.03.29-.02.03-.03.06-.05.09Z"/>
      <path class="cls-1" d="m8.51,41.63c-.98,0-1.9.03-2.82,0-1.3-.06-2.52.1-3.6.94-.99-2.52-1.51-5.1-1.89-7.82.36.17.64.31.92.44,1.04.49,2.06,1.04,3.14,1.43,1.07.38,1.53,1.28,2.13,2.08.67.89,1.34,1.79,2.01,2.68.04.05.05.13.1.25Z"/>
      <path class="cls-1" d="m23.55,6.94c-2.11,1.55-4.39,2.77-5.62,5.24-.64-1.13-1.2-2.13-1.78-3.11-.3-.51-.51-1.01-.44-1.61.04-.32.05-.67-.03-.98-.16-.63-.66-.95-1.26-1.12-.1-.03-.21-.05-.34-.09.44-.35.87-.5,1.43-.38.69.15,1.4.2,2.1.31.99.16,1.98.33,2.98.5.48.08.97.14,1.45.25.59.14.99.57,1.52,1Z"/>
      <path class="cls-1" d="m31.77,13.89c0,.1,0,.2,0,.29-1.04-.15-2.11-.21-3.07-.71,0-.04.02-.08.02-.12,1.02.18,2.03.36,3.05.53Z"/>
      <path class="cls-1" d="m15.26,21.16c.03-.08.06-.16.08-.25.29.22.51.49.55.88-.21-.21-.42-.42-.63-.64Z"/>
      <path class="cls-1" d="m20.53,44.16s-.02-.07-.02-.1c0,.03.02.07.02.1Z"/>
      <path class="cls-1" d="m22.88,44.13s0,.07,0,.1c0-.03,0-.07,0-.1Z"/>
      <path class="cls-1" d="m20.5,51.12s.03-.06.05-.09c-.02.03-.03.06-.05.09Z"/>
    </g>
  </g>
</svg>